<svg width="430" height="276" viewBox="0 0 430 276" fill="none" xmlns="http://www.w3.org/2000/svg">
<g clip-path="url(#clip0_39_6588)">
<rect width="88.0208" height="56.0344" rx="2.80172" transform="matrix(0.961262 0.275637 -0.309017 0.951057 83.3154 110.389)" fill="#FFCAA9"/>
<path d="M66.8663 161.015C66.3881 162.487 67.2063 164.025 68.6937 164.452L147.918 187.169C149.406 187.596 150.999 186.749 151.477 185.277L154.688 175.396L122.381 137.428C121.676 136.598 120.525 136.269 119.446 136.586L70.0769 151.134L66.8663 161.015Z" fill="#FFE0CD"/>
<path d="M82.4496 113.053C82.9278 111.582 84.5212 110.734 86.0086 111.161L165.233 133.878C166.721 134.305 167.539 135.843 167.061 137.315L164.572 144.976L114.605 161.633C113.466 162.013 112.227 161.658 111.508 160.745L79.9605 120.714L82.4496 113.053Z" fill="#FF9B5E"/>
<rect width="88.0208" height="56.0344" rx="2.80172" transform="matrix(0.971384 -0.237515 0.304697 0.952449 258.748 175.831)" fill="#FFCAA9"/>
<path d="M274.968 226.533C275.439 228.006 277.04 228.903 278.543 228.536L358.602 208.96C360.105 208.593 360.941 207.1 360.47 205.626L357.304 195.731L307.624 179.525C306.538 179.171 305.376 179.455 304.658 180.251L271.802 216.637L274.968 226.533Z" fill="#FFE0CD"/>
<path d="M259.601 178.5C259.13 177.026 259.966 175.533 261.469 175.166L341.528 155.59C343.031 155.223 344.632 156.119 345.103 157.593L347.557 165.265L315.453 203.722C314.721 204.598 313.468 204.905 312.322 204.487L262.056 186.171L259.601 178.5Z" fill="#FF9B5E"/>
<rect width="61.4381" height="39.1118" rx="1.95559" transform="matrix(-0.981529 0.191312 0.0179647 0.999839 129.469 167.387)" fill="#FFCAA9"/>
<path d="M130.136 204.536C130.156 205.616 129.312 206.659 128.252 206.865L71.7875 217.871C70.7274 218.078 69.8523 217.37 69.8329 216.29L69.7027 209.039L98.4622 184.098C99.0907 183.553 99.9105 183.393 100.554 183.69L130.006 197.285L130.136 204.536Z" fill="#FFE0CD"/>
<path d="M129.504 169.342C129.484 168.262 128.609 167.554 127.549 167.761L71.0849 178.766C70.0248 178.973 69.1812 180.016 69.2006 181.096L69.3016 186.717L98.7231 201.855C99.3939 202.2 100.277 202.028 100.931 201.424L129.605 174.963L129.504 169.342Z" fill="#FF9B5E"/>
<rect width="61.4381" height="39.1118" rx="1.95559" transform="matrix(0.996195 -0.0871557 0.258819 0.965926 321.272 149.97)" fill="#FFCAA9"/>
<path d="M330.889 185.86C331.168 186.903 332.267 187.673 333.343 187.579L390.651 182.565C391.727 182.471 392.373 181.549 392.093 180.505L390.216 173.501L355.688 157.471C354.933 157.121 354.101 157.193 353.565 157.657L329.012 178.855L330.889 185.86Z" fill="#FFE0CD"/>
<path d="M321.779 151.859C321.499 150.815 322.145 149.893 323.221 149.799L380.529 144.785C381.605 144.691 382.703 145.461 382.983 146.504L384.438 151.935L360.34 174.608C359.791 175.125 358.895 175.203 358.1 174.804L323.234 157.289L321.779 151.859Z" fill="#FF9B5E"/>
<rect width="61.4381" height="39.1118" rx="1.95559" transform="matrix(-0.999967 -0.00808389 0.301319 0.953524 336.29 119.015)" fill="#FFCAA9"/>
<path d="M347.486 154.444C347.811 155.474 347.2 156.302 346.12 156.293L288.595 155.828C287.515 155.819 286.375 154.977 286.05 153.947L283.865 147.032L307.71 128.897C308.232 128.501 309.067 128.507 309.842 128.914L345.301 147.529L347.486 154.444Z" fill="#FFE0CD"/>
<path d="M336.879 120.879C336.554 119.85 335.415 119.008 334.335 118.999L276.809 118.534C275.729 118.525 275.118 119.353 275.443 120.383L277.137 125.744L312.999 145.819C313.817 146.276 314.716 146.284 315.248 145.837L338.573 126.24L336.879 120.879Z" fill="#FF9B5E"/>
<mask id="path-17-outside-1_39_6588" maskUnits="userSpaceOnUse" x="138.976" y="83.001" width="151" height="197" fill="black">
<rect fill="white" x="138.976" y="83.001" width="151" height="197"/>
<path fill-rule="evenodd" clip-rule="evenodd" d="M188.479 86.001C189.683 86.0428 190.722 86.7327 191.588 87.7012C192.515 88.737 193.338 90.1905 194.074 91.8701C195.549 95.2371 196.759 99.7172 197.717 104.157C197.869 104.859 198.012 105.562 198.152 106.26C200.321 105.933 202.539 105.762 204.798 105.762H216.903C219.599 105.762 222.237 106.004 224.802 106.467C224.954 105.701 225.111 104.929 225.278 104.157C226.236 99.7172 227.446 95.2371 228.921 91.8701C229.657 90.1904 230.48 88.737 231.407 87.7012C232.273 86.7326 233.312 86.0429 234.516 86.001H234.941C236.145 86.0428 237.184 86.7326 238.05 87.7012C238.977 88.737 239.8 90.1904 240.536 91.8701C242.011 95.2371 243.221 99.7172 244.179 104.157C245.139 108.607 245.855 113.062 246.331 116.4C246.337 116.447 246.343 116.493 246.349 116.539C250.73 120.09 254.562 124.363 257.71 129.109C258.307 129.346 259 129.624 259.769 129.942C262.432 131.043 266.019 132.611 269.7 134.477C273.376 136.34 277.172 138.512 280.243 140.824C283.278 143.11 285.75 145.637 286.563 148.248C286.955 149.506 286.791 150.883 286.053 152.001C284.988 153.62 282.6 155.73 277.241 157.327C274.674 158.092 271.413 158.742 267.266 159.165C267.27 159.433 267.274 159.701 267.274 159.97V169.244C267.274 182.909 261.442 193.804 252.05 201.266C250.978 202.118 249.857 202.922 248.696 203.683C248.693 203.693 248.689 203.703 248.686 203.713L273.223 221.766C278.343 225.531 279.677 232.394 276.79 237.707L277.831 237.449C277.93 236.294 278.898 235.388 280.079 235.388C281.324 235.388 282.334 236.398 282.334 237.644C282.334 238.889 281.324 239.899 280.079 239.899C279.344 239.899 278.693 239.547 278.281 239.004L275.432 239.711C275.285 239.888 275.133 240.062 274.974 240.233C270.692 244.857 263.767 245.461 258.791 242.024L258.602 242.063L258.604 242.074C258.68 242.482 258.435 242.882 258.038 242.999L254.706 243.98L264.871 254.873L265.002 255.021C266.319 256.577 266.274 258.857 264.871 260.364L264.872 260.365L252.253 273.934H252.252C250.765 275.531 248.273 275.704 246.571 274.342L246.57 274.341L227.694 259.192C227.626 259.138 227.57 259.075 227.525 259.007L199.147 276.089L199.146 276.088C197.415 277.152 195.148 276.82 193.809 275.295L193.808 275.294L180.406 259.999V259.998C179.199 258.623 179.049 256.601 180.104 255.083C183.195 250.635 187.796 246.545 191.586 243.585C193.488 242.1 195.199 240.889 196.435 240.049C197.053 239.629 197.553 239.301 197.9 239.078C198.073 238.967 198.208 238.881 198.3 238.823C198.346 238.794 198.382 238.772 198.406 238.757C198.418 238.749 198.427 238.743 198.433 238.739C198.436 238.737 198.439 238.736 198.441 238.735C198.442 238.735 198.442 238.734 198.443 238.733H198.444C198.536 238.677 198.635 238.641 198.735 238.624L197.88 235.156H195.699C193.702 235.156 192.076 233.531 192.076 231.534C192.076 230.063 192.962 228.793 194.227 228.227V228.631C194.227 228.801 194.235 228.962 194.251 229.128C193.756 229.426 193.36 229.872 193.123 230.402C193.361 229.874 193.756 229.43 194.248 229.133C194.276 229.436 194.329 229.732 194.402 230.019C193.969 230.386 193.69 230.928 193.69 231.538C193.69 232.642 194.588 233.544 195.696 233.544H197.082L197.078 233.548C197.228 233.635 197.384 233.713 197.542 233.786L197.54 233.778C197.384 233.706 197.23 233.629 197.082 233.543H195.703C194.599 233.543 193.698 232.645 193.698 231.537C193.698 230.927 193.976 230.385 194.409 230.018L194.571 229.892C194.513 229.931 194.458 229.973 194.406 230.019C194.333 229.732 194.28 229.436 194.251 229.133C194.494 228.983 194.761 228.874 195.043 228.806L195.106 228.791C195.085 228.795 195.065 228.8 195.044 228.805V228.802L194.835 228.861C194.63 228.929 194.433 229.02 194.251 229.129C194.239 228.963 194.228 228.798 194.228 228.632V228.228H194.227V224.867C194.227 224.609 194.24 224.354 194.26 224.101L164.421 229.061C158.148 230.529 151.924 226.495 150.682 220.206L150.626 219.904C149.486 213.214 154.423 207.029 161.195 206.65L161.867 206.612C155.976 201.739 154.028 195.096 153.846 187.813V187.772C153.928 184.492 154.369 181.341 155.367 178.422C154.75 175.522 154.427 172.46 154.427 169.244V159.97C154.427 159.341 154.439 158.712 154.462 158.083C153.386 157.848 152.402 157.595 151.503 157.327C146.145 155.73 143.757 153.621 142.691 152.002L142.692 152.001C141.953 150.883 141.79 149.506 142.182 148.248C142.995 145.637 145.467 143.11 148.502 140.824C151.574 138.512 155.369 136.34 159.045 134.477C159.858 134.065 160.667 133.667 161.461 133.286C165.291 126.313 170.533 120.128 176.81 115.397C177.281 112.197 177.949 108.175 178.816 104.157C179.774 99.7172 180.984 95.2371 182.459 91.8701C183.195 90.1905 184.019 88.737 184.945 87.7012C185.811 86.7327 186.85 86.043 188.054 86.001H188.479ZM250.161 241.318C248.657 243.328 246.65 245.33 244.615 247.126C242.317 249.153 239.951 250.949 238.162 252.235C237.266 252.879 236.513 253.397 235.983 253.755C235.718 253.934 235.509 254.073 235.366 254.167C235.294 254.214 235.238 254.25 235.201 254.274C235.182 254.287 235.168 254.296 235.158 254.303C235.153 254.306 235.149 254.308 235.146 254.31C235.145 254.31 235.144 254.311 235.143 254.312L235.142 254.312L235.13 254.32L228.962 258.137L229.365 258.46L263.255 255.514L250.358 241.692C250.256 241.583 250.191 241.454 250.161 241.318ZM252.668 235.958C252.495 237.418 251.793 238.915 250.851 240.34C251.099 240.309 251.357 240.392 251.54 240.589L253.518 242.708C253.598 242.644 253.692 242.594 253.796 242.563L256.878 241.653L256.583 240.085L252.668 235.958ZM195.137 229.622C195.101 229.633 195.067 229.647 195.032 229.659C195.068 229.646 195.104 229.632 195.141 229.621C195.145 229.62 195.149 229.618 195.153 229.617C195.148 229.619 195.142 229.621 195.137 229.622ZM195.531 228.729C195.586 228.726 195.642 228.725 195.699 228.725H196.295V228.724H195.699C195.642 228.724 195.586 228.726 195.531 228.729ZM194.826 228.021L194.827 228.022L194.826 228.021ZM195.53 227.919V227.92V227.919ZM195.844 227.915H196.096L196.095 227.912H195.845V226.896L195.844 226.891V227.915Z"/>
</mask>
<path fill-rule="evenodd" clip-rule="evenodd" d="M188.479 86.001C189.683 86.0428 190.722 86.7327 191.588 87.7012C192.515 88.737 193.338 90.1905 194.074 91.8701C195.549 95.2371 196.759 99.7172 197.717 104.157C197.869 104.859 198.012 105.562 198.152 106.26C200.321 105.933 202.539 105.762 204.798 105.762H216.903C219.599 105.762 222.237 106.004 224.802 106.467C224.954 105.701 225.111 104.929 225.278 104.157C226.236 99.7172 227.446 95.2371 228.921 91.8701C229.657 90.1904 230.48 88.737 231.407 87.7012C232.273 86.7326 233.312 86.0429 234.516 86.001H234.941C236.145 86.0428 237.184 86.7326 238.05 87.7012C238.977 88.737 239.8 90.1904 240.536 91.8701C242.011 95.2371 243.221 99.7172 244.179 104.157C245.139 108.607 245.855 113.062 246.331 116.4C246.337 116.447 246.343 116.493 246.349 116.539C250.73 120.09 254.562 124.363 257.71 129.109C258.307 129.346 259 129.624 259.769 129.942C262.432 131.043 266.019 132.611 269.7 134.477C273.376 136.34 277.172 138.512 280.243 140.824C283.278 143.11 285.75 145.637 286.563 148.248C286.955 149.506 286.791 150.883 286.053 152.001C284.988 153.62 282.6 155.73 277.241 157.327C274.674 158.092 271.413 158.742 267.266 159.165C267.27 159.433 267.274 159.701 267.274 159.97V169.244C267.274 182.909 261.442 193.804 252.05 201.266C250.978 202.118 249.857 202.922 248.696 203.683C248.693 203.693 248.689 203.703 248.686 203.713L273.223 221.766C278.343 225.531 279.677 232.394 276.79 237.707L277.831 237.449C277.93 236.294 278.898 235.388 280.079 235.388C281.324 235.388 282.334 236.398 282.334 237.644C282.334 238.889 281.324 239.899 280.079 239.899C279.344 239.899 278.693 239.547 278.281 239.004L275.432 239.711C275.285 239.888 275.133 240.062 274.974 240.233C270.692 244.857 263.767 245.461 258.791 242.024L258.602 242.063L258.604 242.074C258.68 242.482 258.435 242.882 258.038 242.999L254.706 243.98L264.871 254.873L265.002 255.021C266.319 256.577 266.274 258.857 264.871 260.364L264.872 260.365L252.253 273.934H252.252C250.765 275.531 248.273 275.704 246.571 274.342L246.57 274.341L227.694 259.192C227.626 259.138 227.57 259.075 227.525 259.007L199.147 276.089L199.146 276.088C197.415 277.152 195.148 276.82 193.809 275.295L193.808 275.294L180.406 259.999V259.998C179.199 258.623 179.049 256.601 180.104 255.083C183.195 250.635 187.796 246.545 191.586 243.585C193.488 242.1 195.199 240.889 196.435 240.049C197.053 239.629 197.553 239.301 197.9 239.078C198.073 238.967 198.208 238.881 198.3 238.823C198.346 238.794 198.382 238.772 198.406 238.757C198.418 238.749 198.427 238.743 198.433 238.739C198.436 238.737 198.439 238.736 198.441 238.735C198.442 238.735 198.442 238.734 198.443 238.733H198.444C198.536 238.677 198.635 238.641 198.735 238.624L197.88 235.156H195.699C193.702 235.156 192.076 233.531 192.076 231.534C192.076 230.063 192.962 228.793 194.227 228.227V228.631C194.227 228.801 194.235 228.962 194.251 229.128C193.756 229.426 193.36 229.872 193.123 230.402C193.361 229.874 193.756 229.43 194.248 229.133C194.276 229.436 194.329 229.732 194.402 230.019C193.969 230.386 193.69 230.928 193.69 231.538C193.69 232.642 194.588 233.544 195.696 233.544H197.082L197.078 233.548C197.228 233.635 197.384 233.713 197.542 233.786L197.54 233.778C197.384 233.706 197.23 233.629 197.082 233.543H195.703C194.599 233.543 193.698 232.645 193.698 231.537C193.698 230.927 193.976 230.385 194.409 230.018L194.571 229.892C194.513 229.931 194.458 229.973 194.406 230.019C194.333 229.732 194.28 229.436 194.251 229.133C194.494 228.983 194.761 228.874 195.043 228.806L195.106 228.791C195.085 228.795 195.065 228.8 195.044 228.805V228.802L194.835 228.861C194.63 228.929 194.433 229.02 194.251 229.129C194.239 228.963 194.228 228.798 194.228 228.632V228.228H194.227V224.867C194.227 224.609 194.24 224.354 194.26 224.101L164.421 229.061C158.148 230.529 151.924 226.495 150.682 220.206L150.626 219.904C149.486 213.214 154.423 207.029 161.195 206.65L161.867 206.612C155.976 201.739 154.028 195.096 153.846 187.813V187.772C153.928 184.492 154.369 181.341 155.367 178.422C154.75 175.522 154.427 172.46 154.427 169.244V159.97C154.427 159.341 154.439 158.712 154.462 158.083C153.386 157.848 152.402 157.595 151.503 157.327C146.145 155.73 143.757 153.621 142.691 152.002L142.692 152.001C141.953 150.883 141.79 149.506 142.182 148.248C142.995 145.637 145.467 143.11 148.502 140.824C151.574 138.512 155.369 136.34 159.045 134.477C159.858 134.065 160.667 133.667 161.461 133.286C165.291 126.313 170.533 120.128 176.81 115.397C177.281 112.197 177.949 108.175 178.816 104.157C179.774 99.7172 180.984 95.2371 182.459 91.8701C183.195 90.1905 184.019 88.737 184.945 87.7012C185.811 86.7327 186.85 86.043 188.054 86.001H188.479ZM250.161 241.318C248.657 243.328 246.65 245.33 244.615 247.126C242.317 249.153 239.951 250.949 238.162 252.235C237.266 252.879 236.513 253.397 235.983 253.755C235.718 253.934 235.509 254.073 235.366 254.167C235.294 254.214 235.238 254.25 235.201 254.274C235.182 254.287 235.168 254.296 235.158 254.303C235.153 254.306 235.149 254.308 235.146 254.31C235.145 254.31 235.144 254.311 235.143 254.312L235.142 254.312L235.13 254.32L228.962 258.137L229.365 258.46L263.255 255.514L250.358 241.692C250.256 241.583 250.191 241.454 250.161 241.318ZM252.668 235.958C252.495 237.418 251.793 238.915 250.851 240.34C251.099 240.309 251.357 240.392 251.54 240.589L253.518 242.708C253.598 242.644 253.692 242.594 253.796 242.563L256.878 241.653L256.583 240.085L252.668 235.958ZM195.137 229.622C195.101 229.633 195.067 229.647 195.032 229.659C195.068 229.646 195.104 229.632 195.141 229.621C195.145 229.62 195.149 229.618 195.153 229.617C195.148 229.619 195.142 229.621 195.137 229.622ZM195.531 228.729C195.586 228.726 195.642 228.725 195.699 228.725H196.295V228.724H195.699C195.642 228.724 195.586 228.726 195.531 228.729ZM194.826 228.021L194.827 228.022L194.826 228.021ZM195.53 227.919V227.92V227.919ZM195.844 227.915H196.096L196.095 227.912H195.845V226.896L195.844 226.891V227.915Z" fill="black"/>
<path d="M188.479 86.001L188.582 83.0465C188.547 83.0453 188.513 83.0447 188.479 83.0447V86.001ZM191.588 87.7012L193.792 85.7305L193.792 85.7304L191.588 87.7012ZM194.074 91.8701L196.781 90.6837L196.781 90.6836L194.074 91.8701ZM197.717 104.157L200.607 103.534L200.607 103.534L197.717 104.157ZM198.152 106.26L195.253 106.839C195.562 108.386 197.032 109.418 198.593 109.183L198.152 106.26ZM204.798 105.762V102.805H204.798L204.798 105.762ZM224.802 106.467L224.278 109.376C225.865 109.662 227.389 108.623 227.702 107.041L224.802 106.467ZM225.278 104.157L222.388 103.534V103.534L225.278 104.157ZM228.921 91.8701L226.214 90.6837L226.214 90.6837L228.921 91.8701ZM231.407 87.7012L229.203 85.7305L229.203 85.7305L231.407 87.7012ZM234.516 86.001V83.0447C234.482 83.0447 234.448 83.0453 234.413 83.0465L234.516 86.001ZM234.941 86.001L235.044 83.0465C235.009 83.0453 234.975 83.0447 234.941 83.0447V86.001ZM238.05 87.7012L240.254 85.7305L240.254 85.7305L238.05 87.7012ZM240.536 91.8701L243.243 90.6837L243.243 90.6837L240.536 91.8701ZM244.179 104.157L247.069 103.534V103.534L244.179 104.157ZM246.331 116.4L243.404 116.817V116.817L246.331 116.4ZM246.349 116.539L243.422 116.954C243.527 117.693 243.907 118.365 244.487 118.836L246.349 116.539ZM257.71 129.109L255.247 130.744C255.581 131.247 256.06 131.635 256.621 131.858L257.71 129.109ZM259.769 129.942L260.898 127.21L260.898 127.21L259.769 129.942ZM269.7 134.477L271.036 131.84L271.036 131.84L269.7 134.477ZM280.243 140.824L282.021 138.463L282.021 138.462L280.243 140.824ZM286.563 148.248L289.386 147.369V147.369L286.563 148.248ZM286.053 152.001L283.586 150.372L283.584 150.376L286.053 152.001ZM277.241 157.327L278.085 160.16L278.085 160.16L277.241 157.327ZM267.266 159.165L266.966 156.224C265.439 156.38 264.286 157.678 264.31 159.212L267.266 159.165ZM267.274 169.244H270.23V169.244H267.274ZM252.05 201.266L253.889 203.58L253.889 203.58L252.05 201.266ZM248.696 203.683L247.075 201.21C246.505 201.584 246.082 202.142 245.877 202.792L248.696 203.683ZM248.686 203.713L245.87 202.812C245.484 204.021 245.912 205.342 246.934 206.094L248.686 203.713ZM273.223 221.766L271.471 224.147L271.472 224.147L273.223 221.766ZM276.79 237.707L274.192 236.295C273.633 237.325 273.734 238.587 274.45 239.514C275.166 240.441 276.362 240.858 277.5 240.577L276.79 237.707ZM277.831 237.449L278.542 240.319C279.77 240.015 280.669 238.962 280.777 237.701L277.831 237.449ZM280.079 235.388L280.079 232.431H280.079V235.388ZM282.334 237.644H285.291V237.643L282.334 237.644ZM280.079 239.899V242.856H280.079L280.079 239.899ZM278.281 239.004L280.637 237.218C279.923 236.276 278.716 235.85 277.569 236.135L278.281 239.004ZM275.432 239.711L274.72 236.842C274.108 236.994 273.56 237.338 273.157 237.823L275.432 239.711ZM274.974 240.233L272.806 238.224L272.805 238.225L274.974 240.233ZM258.791 242.024L260.472 239.592C259.808 239.133 258.985 238.966 258.194 239.129L258.791 242.024ZM258.602 242.063L258.005 239.168C256.432 239.492 255.406 241.013 255.693 242.592L258.602 242.063ZM258.604 242.074L255.695 242.603C255.696 242.608 255.697 242.613 255.698 242.619L258.604 242.074ZM258.038 242.999L258.873 245.835L258.874 245.835L258.038 242.999ZM254.706 243.98L253.87 241.145C252.887 241.434 252.124 242.213 251.854 243.201C251.584 244.19 251.845 245.248 252.544 245.997L254.706 243.98ZM264.871 254.873L267.081 252.91C267.065 252.892 267.048 252.874 267.032 252.856L264.871 254.873ZM265.002 255.021L267.259 253.112C267.244 253.094 267.228 253.076 267.213 253.058L265.002 255.021ZM264.871 260.364L262.707 258.35C261.622 259.515 261.655 261.329 262.78 262.455L264.871 260.364ZM264.872 260.365L267.036 262.378C268.12 261.213 268.087 259.4 266.962 258.275L264.872 260.365ZM252.253 273.934V276.89C253.075 276.89 253.859 276.548 254.418 275.947L252.253 273.934ZM252.252 273.934V270.977C251.432 270.977 250.648 271.319 250.089 271.919L252.252 273.934ZM246.571 274.342L244.48 276.432C244.558 276.509 244.639 276.582 244.724 276.65L246.571 274.342ZM246.57 274.341L248.66 272.25C248.584 272.174 248.504 272.103 248.42 272.035L246.57 274.341ZM227.694 259.192L225.843 261.498L225.844 261.498L227.694 259.192ZM227.525 259.007L229.992 257.379C229.119 256.056 227.358 255.657 226 256.474L227.525 259.007ZM199.147 276.089L197.057 278.179C198.017 279.14 199.508 279.322 200.672 278.622L199.147 276.089ZM199.146 276.088L201.236 273.998C200.269 273.03 198.763 272.853 197.597 273.57L199.146 276.088ZM193.809 275.295L196.03 273.344C195.988 273.296 195.944 273.25 195.899 273.205L193.809 275.295ZM193.808 275.294L191.585 277.242C191.627 277.291 191.672 277.338 191.718 277.384L193.808 275.294ZM180.406 259.999H177.449C177.449 260.716 177.71 261.408 178.182 261.947L180.406 259.999ZM180.406 259.998H183.362C183.362 259.28 183.101 258.587 182.627 258.048L180.406 259.998ZM180.104 255.083L177.676 253.396L177.676 253.396L180.104 255.083ZM191.586 243.585L189.767 241.255L189.767 241.255L191.586 243.585ZM196.435 240.049L194.774 237.604V237.604L196.435 240.049ZM197.9 239.078L196.298 236.593L196.298 236.593L197.9 239.078ZM198.3 238.823L196.725 236.321L196.725 236.321L198.3 238.823ZM198.406 238.757L199.968 241.266L199.968 241.266L198.406 238.757ZM198.433 238.739L196.882 236.223L196.877 236.226L198.433 238.739ZM198.441 238.735L199.995 241.25C200.011 241.24 200.028 241.229 200.045 241.219L198.441 238.735ZM198.443 238.733V235.777C197.895 235.777 197.359 235.929 196.892 236.216L198.443 238.733ZM198.444 238.733V241.69C198.991 241.69 199.528 241.538 199.994 241.25L198.444 238.733ZM198.735 238.624L199.221 241.54C200.033 241.405 200.752 240.937 201.204 240.249C201.657 239.561 201.802 238.716 201.605 237.917L198.735 238.624ZM197.88 235.156L200.751 234.449C200.425 233.128 199.241 232.2 197.88 232.2V235.156ZM192.076 231.534H189.119V231.535L192.076 231.534ZM194.227 228.227H197.183C197.183 227.225 196.676 226.291 195.835 225.746C194.994 225.201 193.935 225.119 193.02 225.528L194.227 228.227ZM194.227 228.631H191.271V228.631H194.227ZM194.251 229.128L195.774 231.662C196.752 231.074 197.304 229.976 197.194 228.841L194.251 229.128ZM193.123 230.402L190.424 229.198C189.759 230.687 190.427 232.434 191.915 233.1C193.403 233.767 195.151 233.102 195.82 231.615L193.123 230.402ZM194.248 229.133L197.191 228.858C197.096 227.845 196.487 226.952 195.579 226.493C194.67 226.035 193.59 226.076 192.719 226.602L194.248 229.133ZM194.402 230.019L196.317 232.27C197.176 231.54 197.544 230.385 197.267 229.292L194.402 230.019ZM193.69 231.538L190.734 231.538V231.538H193.69ZM197.082 233.544L198.929 235.852C199.91 235.068 200.288 233.75 199.872 232.565C199.457 231.381 198.338 230.588 197.082 230.588V233.544ZM197.078 233.548L195.231 231.239C194.468 231.85 194.056 232.797 194.13 233.771C194.204 234.745 194.754 235.62 195.599 236.108L197.078 233.548ZM197.542 233.786L196.308 236.472C197.341 236.947 198.555 236.787 199.43 236.061C200.305 235.335 200.686 234.172 200.41 233.069L197.542 233.786ZM197.54 233.778L200.408 233.061C200.191 232.192 199.591 231.468 198.778 231.093L197.54 233.778ZM197.082 233.543L198.56 230.983C198.11 230.723 197.6 230.587 197.082 230.587V233.543ZM195.703 233.543L195.702 236.499H195.703V233.543ZM193.698 231.537L190.741 231.537V231.537H193.698ZM194.409 230.018L192.595 227.683C192.56 227.71 192.526 227.738 192.493 227.766L194.409 230.018ZM194.571 229.892L196.385 232.226C197.647 231.245 197.901 229.438 196.957 228.147C196.014 226.856 194.215 226.55 192.897 227.455L194.571 229.892ZM194.406 230.019L191.54 230.745C191.792 231.739 192.541 232.531 193.519 232.839C194.497 233.146 195.565 232.925 196.34 232.254L194.406 230.019ZM194.251 229.133L192.7 226.617C191.743 227.207 191.203 228.288 191.308 229.408L194.251 229.133ZM195.043 228.806L194.369 225.927C194.361 225.929 194.353 225.931 194.345 225.933L195.043 228.806ZM195.106 228.791L195.781 231.669C197.359 231.299 198.345 229.727 197.991 228.145C197.637 226.563 196.074 225.561 194.489 225.9L195.106 228.791ZM195.044 228.805H192.088C192.088 229.706 192.499 230.557 193.204 231.118C193.909 231.679 194.831 231.888 195.709 231.685L195.044 228.805ZM195.044 228.802H198.001C198.001 227.874 197.566 227.001 196.825 226.442C196.085 225.884 195.126 225.705 194.234 225.959L195.044 228.802ZM194.835 228.861L194.025 226.018C193.987 226.029 193.95 226.041 193.912 226.053L194.835 228.861ZM194.251 229.129L191.303 229.345C191.378 230.368 191.979 231.28 192.89 231.753C193.801 232.226 194.892 232.192 195.772 231.664L194.251 229.129ZM194.228 228.632H191.272V228.632L194.228 228.632ZM194.228 228.228H197.184C197.184 226.595 195.861 225.271 194.228 225.271V228.228ZM194.227 228.228H191.271C191.271 229.86 192.594 231.184 194.227 231.184V228.228ZM194.227 224.867L191.271 224.867V224.867H194.227ZM194.26 224.101L197.207 224.339C197.28 223.432 196.931 222.541 196.261 221.924C195.591 221.308 194.674 221.035 193.775 221.184L194.26 224.101ZM164.421 229.061L163.937 226.144C163.873 226.155 163.81 226.167 163.747 226.182L164.421 229.061ZM150.682 220.206L147.775 220.742C147.777 220.754 147.779 220.767 147.782 220.779L150.682 220.206ZM150.626 219.904L147.712 220.401C147.714 220.414 147.717 220.427 147.719 220.441L150.626 219.904ZM161.195 206.65L161.36 209.602L161.362 209.602L161.195 206.65ZM161.867 206.612L162.034 209.564C163.248 209.495 164.296 208.69 164.675 207.535C165.055 206.379 164.688 205.11 163.751 204.334L161.867 206.612ZM153.846 187.813H150.89C150.89 187.838 150.89 187.863 150.891 187.887L153.846 187.813ZM153.846 187.772L150.891 187.699C150.89 187.723 150.89 187.748 150.89 187.772H153.846ZM155.367 178.422L158.164 179.378C158.337 178.872 158.369 178.33 158.258 177.807L155.367 178.422ZM154.427 169.244H151.471V169.244H154.427ZM154.462 158.083L157.417 158.192C157.47 156.762 156.491 155.5 155.093 155.195L154.462 158.083ZM151.503 157.327L150.659 160.16L150.659 160.16L151.503 157.327ZM142.691 152.002L140.6 149.912C139.609 150.903 139.45 152.456 140.221 153.627L142.691 152.002ZM142.692 152.001L144.782 154.091C145.775 153.098 145.933 151.544 145.159 150.372L142.692 152.001ZM142.182 148.248L145.005 149.127L145.005 149.127L142.182 148.248ZM148.502 140.824L146.724 138.462L146.724 138.462L148.502 140.824ZM159.045 134.477L157.709 131.84L157.709 131.84L159.045 134.477ZM161.461 133.286L162.74 135.952C163.296 135.685 163.755 135.25 164.053 134.709L161.461 133.286ZM176.81 115.397L178.589 117.758C179.21 117.291 179.621 116.597 179.735 115.828L176.81 115.397ZM178.816 104.157L175.926 103.534L175.926 103.534L178.816 104.157ZM182.459 91.8701L179.752 90.6837L179.752 90.6837L182.459 91.8701ZM184.945 87.7012L182.741 85.7305L182.741 85.7306L184.945 87.7012ZM188.054 86.001V83.0447C188.02 83.0447 187.985 83.0453 187.951 83.0465L188.054 86.001ZM250.161 241.318L253.046 240.673C252.794 239.547 251.909 238.67 250.78 238.428C249.651 238.186 248.485 238.623 247.793 239.547L250.161 241.318ZM244.615 247.126L246.57 249.343L246.57 249.343L244.615 247.126ZM238.162 252.235L239.888 254.635H239.888L238.162 252.235ZM235.983 253.755L237.637 256.205L237.637 256.205L235.983 253.755ZM235.366 254.167L236.99 256.637L236.99 256.637L235.366 254.167ZM235.201 254.274L233.59 251.796L233.59 251.796L235.201 254.274ZM235.158 254.303L236.762 256.786L236.762 256.786L235.158 254.303ZM235.146 254.31L233.551 251.82L233.543 251.826L235.146 254.31ZM235.143 254.312L233.533 251.832C233.36 251.945 233.199 252.075 233.053 252.221L235.143 254.312ZM235.142 254.312L236.782 256.772C236.944 256.664 237.095 256.541 237.232 256.403L235.142 254.312ZM235.13 254.32L236.686 256.834C236.714 256.817 236.742 256.799 236.77 256.78L235.13 254.32ZM228.962 258.137L227.407 255.623C226.591 256.128 226.071 256.998 226.012 257.955C225.953 258.913 226.363 259.84 227.111 260.441L228.962 258.137ZM229.365 258.46L227.513 260.765C228.107 261.242 228.862 261.471 229.621 261.405L229.365 258.46ZM263.255 255.514L263.511 258.459C264.638 258.361 265.61 257.629 266.015 256.573C266.42 255.518 266.188 254.323 265.417 253.497L263.255 255.514ZM250.358 241.692L248.196 243.709L248.196 243.709L250.358 241.692ZM252.668 235.958L254.813 233.923C254.024 233.092 252.825 232.791 251.737 233.152C250.649 233.513 249.868 234.471 249.733 235.609L252.668 235.958ZM250.851 240.34L248.385 238.71C247.749 239.672 247.731 240.916 248.338 241.896C248.945 242.876 250.066 243.414 251.211 243.274L250.851 240.34ZM251.54 240.589L253.702 238.572L253.702 238.572L251.54 240.589ZM253.518 242.708L251.357 244.725C252.413 245.857 254.165 245.982 255.371 245.011L253.518 242.708ZM253.796 242.563L252.959 239.728L252.959 239.728L253.796 242.563ZM256.878 241.653L257.716 244.489C259.17 244.059 260.064 242.598 259.784 241.107L256.878 241.653ZM256.583 240.085L259.489 239.539C259.384 238.98 259.12 238.463 258.728 238.05L256.583 240.085ZM195.137 229.622L194.3 226.787L194.292 226.789L195.137 229.622ZM195.032 229.659L194.038 226.875C192.501 227.424 191.699 229.114 192.247 230.652C192.795 232.189 194.485 232.991 196.022 232.445L195.032 229.659ZM195.141 229.621L195.975 232.457L195.978 232.456L195.141 229.621ZM195.153 229.617L195.978 232.456C197.545 232 198.446 230.361 197.992 228.794C197.538 227.227 195.899 226.324 194.332 226.777L195.153 229.617ZM195.531 228.729L195.33 225.78C193.704 225.891 192.475 227.296 192.581 228.922C192.687 230.548 194.089 231.782 195.715 231.68L195.531 228.729ZM195.699 228.725V225.768H195.699L195.699 228.725ZM196.295 228.725V231.681C197.928 231.681 199.252 230.357 199.252 228.725H196.295ZM196.295 228.724H199.252C199.252 227.091 197.928 225.767 196.295 225.767V228.724ZM195.699 228.724V225.767H195.698L195.699 228.724ZM196.916 225.931C195.762 224.777 193.89 224.777 192.735 225.931C191.581 227.086 191.581 228.957 192.735 230.112L194.826 228.021L196.916 225.931ZM192.736 230.113C193.891 231.267 195.763 231.267 196.917 230.113C198.071 228.958 198.071 227.087 196.917 225.932L194.827 228.022L192.736 230.113ZM198.486 227.919C198.486 226.286 197.162 224.963 195.53 224.963C193.897 224.963 192.573 226.286 192.573 227.919H195.53H198.486ZM192.573 227.92C192.573 229.553 193.897 230.876 195.53 230.876C197.162 230.876 198.486 229.553 198.486 227.92H195.53H192.573ZM195.844 227.915H192.888C192.888 229.548 194.212 230.871 195.844 230.871V227.915ZM196.096 227.915V230.871C197.046 230.871 197.939 230.414 198.494 229.644C199.05 228.873 199.201 227.882 198.901 226.98L196.096 227.915ZM196.095 227.912L198.9 226.977C198.497 225.77 197.368 224.956 196.095 224.956V227.912ZM195.845 227.912H192.889C192.889 229.545 194.212 230.868 195.845 230.868V227.912ZM195.845 226.896H198.801C198.801 226.701 198.782 226.507 198.744 226.316L195.845 226.896ZM195.844 226.891L198.743 226.311C198.445 224.82 197.065 223.799 195.553 223.949C194.04 224.099 192.888 225.371 192.888 226.891H195.844ZM188.479 86.001L188.376 88.9554C188.449 88.958 188.79 89.0065 189.385 89.6719L191.588 87.7012L193.792 85.7304C192.655 84.4589 190.918 83.1277 188.582 83.0465L188.479 86.001ZM191.588 87.7012L189.385 89.6718C190.011 90.3717 190.685 91.5014 191.366 93.0566L194.074 91.8701L196.781 90.6836C195.991 88.8796 195.019 87.1023 193.792 85.7305L191.588 87.7012ZM194.074 91.8701L191.366 93.0565C192.72 96.1474 193.881 100.396 194.827 104.781L197.717 104.157L200.607 103.534C199.637 99.0387 198.378 94.3267 196.781 90.6837L194.074 91.8701ZM197.717 104.157L194.827 104.781C194.975 105.463 195.115 106.149 195.253 106.839L198.152 106.26L201.051 105.681C200.91 104.974 200.763 104.256 200.607 103.534L197.717 104.157ZM198.152 106.26L198.593 109.183C200.618 108.878 202.688 108.718 204.798 108.718L204.798 105.762L204.798 102.805C202.389 102.805 200.024 102.988 197.711 103.337L198.152 106.26ZM204.798 105.762V108.718H216.903V105.762V102.805H204.798V105.762ZM216.903 105.762V108.718C219.421 108.718 221.883 108.945 224.278 109.376L224.802 106.467L225.326 103.557C222.59 103.064 219.777 102.805 216.903 102.805V105.762ZM224.802 106.467L227.702 107.041C227.852 106.286 228.006 105.531 228.168 104.781L225.278 104.157L222.388 103.534C222.217 104.327 222.056 105.116 221.902 105.892L224.802 106.467ZM225.278 104.157L228.168 104.781C229.114 100.396 230.275 96.1475 231.629 93.0565L228.921 91.8701L226.214 90.6837C224.617 94.3268 223.358 99.0387 222.388 103.534L225.278 104.157ZM228.921 91.8701L231.629 93.0566C232.311 91.5013 232.984 90.3718 233.61 89.6718L231.407 87.7012L229.203 85.7305C227.976 87.1023 227.004 88.8795 226.214 90.6837L228.921 91.8701ZM231.407 87.7012L233.61 89.6718C234.205 89.0065 234.546 88.958 234.619 88.9554L234.516 86.001L234.413 83.0465C232.077 83.1277 230.34 84.4587 229.203 85.7305L231.407 87.7012ZM234.516 86.001V88.9572H234.941V86.001V83.0447H234.516V86.001ZM234.941 86.001L234.838 88.9554C234.911 88.958 235.252 89.0064 235.847 89.6718L238.05 87.7012L240.254 85.7305C239.117 84.4587 237.38 83.1277 235.044 83.0465L234.941 86.001ZM238.05 87.7012L235.847 89.6718C236.473 90.3717 237.146 91.5014 237.828 93.0566L240.536 91.8701L243.243 90.6837C242.453 88.8795 241.481 87.1023 240.254 85.7305L238.05 87.7012ZM240.536 91.8701L237.828 93.0565C239.182 96.1475 240.343 100.396 241.289 104.781L244.179 104.157L247.069 103.534C246.099 99.0387 244.84 94.3268 243.243 90.6837L240.536 91.8701ZM244.179 104.157L241.289 104.781C242.23 109.138 242.934 113.518 243.404 116.817L246.331 116.4L249.257 115.984C248.776 112.605 248.049 108.076 247.069 103.534L244.179 104.157ZM246.331 116.4L243.404 116.817C243.404 116.817 243.404 116.819 243.405 116.825C243.406 116.831 243.407 116.838 243.408 116.85C243.411 116.87 243.416 116.911 243.422 116.954L246.349 116.539L249.276 116.124C249.276 116.124 249.276 116.122 249.275 116.116C249.274 116.109 249.273 116.102 249.272 116.09C249.269 116.069 249.264 116.028 249.257 115.984L246.331 116.4ZM246.349 116.539L244.487 118.836C248.624 122.189 252.256 126.235 255.247 130.744L257.71 129.109L260.174 127.475C256.868 122.492 252.836 117.992 248.211 114.243L246.349 116.539ZM257.71 129.109L256.621 131.858C257.207 132.09 257.886 132.363 258.64 132.674L259.769 129.942L260.898 127.21C260.114 126.886 259.407 126.602 258.799 126.361L257.71 129.109ZM259.769 129.942L258.64 132.674C261.258 133.757 264.771 135.293 268.363 137.114L269.7 134.477L271.036 131.84C267.266 129.929 263.606 128.33 260.898 127.21L259.769 129.942ZM269.7 134.477L268.363 137.114C271.968 138.94 275.591 141.023 278.465 143.186L280.243 140.824L282.021 138.462C278.752 136.002 274.784 133.739 271.036 131.84L269.7 134.477ZM280.243 140.824L278.465 143.186C281.431 145.419 283.224 147.467 283.74 149.127L286.563 148.248L289.386 147.369C288.277 143.806 285.126 140.801 282.021 138.463L280.243 140.824ZM286.563 148.248L283.74 149.127C283.882 149.582 283.811 150.032 283.586 150.372L286.053 152.001L288.52 153.63C289.772 151.734 290.027 149.43 289.386 147.369L286.563 148.248ZM286.053 152.001L283.584 150.376C283.014 151.241 281.317 153.028 276.396 154.494L277.241 157.327L278.085 160.16C283.882 158.433 286.961 155.999 288.523 153.626L286.053 152.001ZM277.241 157.327L276.397 154.494C274.043 155.195 270.969 155.815 266.966 156.224L267.266 159.165L267.566 162.106C271.857 161.668 275.305 160.989 278.085 160.16L277.241 157.327ZM267.266 159.165L264.31 159.212C264.314 159.477 264.318 159.726 264.318 159.97H267.274H270.23C270.23 159.677 270.226 159.39 270.222 159.118L267.266 159.165ZM267.274 159.97H264.318V169.244H267.274H270.23V159.97H267.274ZM267.274 169.244H264.318C264.318 181.979 258.919 192.033 250.211 198.951L252.05 201.266L253.889 203.58C263.965 195.576 270.23 183.838 270.23 169.244H267.274ZM252.05 201.266L250.211 198.951C249.215 199.743 248.168 200.494 247.075 201.21L248.696 203.683L250.316 206.155C251.546 205.349 252.74 204.493 253.889 203.58L252.05 201.266ZM248.696 203.683L245.877 202.792C245.878 202.788 245.879 202.785 245.88 202.784C245.88 202.783 245.88 202.782 245.879 202.784C245.879 202.786 245.879 202.786 245.878 202.788C245.878 202.789 245.877 202.791 245.876 202.794C245.875 202.798 245.873 202.805 245.87 202.812L248.686 203.713L251.502 204.614C251.501 204.616 251.5 204.617 251.501 204.617C251.501 204.616 251.501 204.615 251.502 204.611C251.504 204.606 251.509 204.591 251.515 204.573L248.696 203.683ZM248.686 203.713L246.934 206.094L271.471 224.147L273.223 221.766L274.975 219.384L250.438 201.332L248.686 203.713ZM273.223 221.766L271.472 224.147C275.369 227.013 276.394 232.244 274.192 236.295L276.79 237.707L279.387 239.119C282.961 232.543 281.317 224.048 274.974 219.384L273.223 221.766ZM276.79 237.707L277.5 240.577L278.542 240.319L277.831 237.449L277.121 234.579L276.079 234.837L276.79 237.707ZM277.831 237.449L280.777 237.701C280.746 238.061 280.448 238.344 280.079 238.344V235.388V232.431C277.349 232.431 275.114 234.528 274.886 237.198L277.831 237.449ZM280.079 235.388L280.078 238.344C279.692 238.344 279.378 238.031 279.378 237.644L282.334 237.644L285.291 237.643C285.291 234.765 282.957 232.432 280.079 232.431L280.079 235.388ZM282.334 237.644H279.378C279.378 237.256 279.692 236.943 280.078 236.943L280.079 239.899L280.079 242.856C282.957 242.855 285.291 240.523 285.291 237.644H282.334ZM280.079 239.899V236.943C280.313 236.943 280.517 237.06 280.637 237.218L278.281 239.004L275.925 240.79C276.869 242.035 278.375 242.856 280.079 242.856V239.899ZM278.281 239.004L277.569 236.135L274.72 236.842L275.432 239.711L276.144 242.58L278.993 241.873L278.281 239.004ZM275.432 239.711L273.157 237.823C273.043 237.96 272.926 238.094 272.806 238.224L274.974 240.233L277.142 242.243C277.339 242.031 277.527 241.816 277.707 241.599L275.432 239.711ZM274.974 240.233L272.805 238.225C269.545 241.745 264.264 242.212 260.472 239.592L258.791 242.024L257.111 244.457C263.269 248.71 271.839 247.968 277.143 242.242L274.974 240.233ZM258.791 242.024L258.194 239.129L258.005 239.168L258.602 242.063L259.199 244.959L259.388 244.92L258.791 242.024ZM258.602 242.063L255.693 242.592L255.695 242.603L258.604 242.074L261.513 241.545L261.511 241.535L258.602 242.063ZM258.604 242.074L255.698 242.619C255.495 241.535 256.145 240.475 257.201 240.163L258.038 242.999L258.874 245.835C260.726 245.288 261.866 243.429 261.51 241.53L258.604 242.074ZM258.038 242.999L257.202 240.163L253.87 241.145L254.706 243.98L255.541 246.816L258.873 245.835L258.038 242.999ZM254.706 243.98L252.544 245.997L262.709 256.89L264.871 254.873L267.032 252.856L256.867 241.964L254.706 243.98ZM264.871 254.873L262.66 256.836L262.792 256.985L265.002 255.021L267.213 253.058L267.081 252.91L264.871 254.873ZM265.002 255.021L262.746 256.931C263.097 257.346 263.088 257.941 262.707 258.35L264.871 260.364L267.034 262.379C269.46 259.774 269.54 255.808 267.259 253.112L265.002 255.021ZM264.871 260.364L262.78 262.455L262.781 262.456L264.872 260.365L266.962 258.275L266.961 258.274L264.871 260.364ZM264.872 260.365L262.707 258.352L250.089 271.92L252.253 273.934L254.418 275.947L267.036 262.378L264.872 260.365ZM252.253 273.934V270.977H252.252V273.934V276.89H252.253V273.934ZM252.252 273.934L250.089 271.919C249.664 272.376 248.922 272.437 248.417 272.033L246.571 274.342L244.724 276.65C247.625 278.971 251.866 278.687 254.416 275.948L252.252 273.934ZM246.571 274.342L248.661 272.251L248.66 272.25L246.57 274.341L244.479 276.431L244.48 276.432L246.571 274.342ZM246.57 274.341L248.42 272.035L229.544 256.887L227.694 259.192L225.844 261.498L244.719 276.646L246.57 274.341ZM227.694 259.192L229.544 256.887C229.724 257.031 229.874 257.199 229.992 257.379L227.525 259.007L225.057 260.635C225.266 260.952 225.529 261.245 225.843 261.498L227.694 259.192ZM227.525 259.007L226 256.474L197.622 273.556L199.147 276.089L200.672 278.622L229.049 261.54L227.525 259.007ZM199.147 276.089L201.237 273.998L201.236 273.998L199.146 276.088L197.056 278.178L197.057 278.179L199.147 276.089ZM199.146 276.088L197.597 273.57C197.083 273.886 196.411 273.777 196.03 273.344L193.809 275.295L191.588 277.246C193.886 279.862 197.747 280.419 200.695 278.606L199.146 276.088ZM193.809 275.295L195.899 273.205L195.898 273.204L193.808 275.294L191.718 277.384L191.719 277.385L193.809 275.295ZM193.808 275.294L196.031 273.346L182.629 258.051L180.406 259.999L178.182 261.947L191.585 277.242L193.808 275.294ZM180.406 259.999H183.362V259.998H180.406H177.449V259.999H180.406ZM180.406 259.998L182.627 258.048C182.289 257.663 182.276 257.138 182.532 256.77L180.104 255.083L177.676 253.396C175.823 256.064 176.108 259.584 178.184 261.949L180.406 259.998ZM180.104 255.083L182.531 256.77C185.369 252.688 189.693 248.814 193.406 245.915L191.586 243.585L189.767 241.255C185.898 244.276 181.022 248.583 177.676 253.396L180.104 255.083ZM191.586 243.585L193.406 245.915C195.246 244.478 196.902 243.305 198.096 242.494L196.435 240.049L194.774 237.604C193.495 238.472 191.73 239.722 189.767 241.255L191.586 243.585ZM196.435 240.049L198.096 242.494C198.692 242.089 199.172 241.775 199.501 241.563L197.9 239.078L196.298 236.593C195.935 236.828 195.414 237.168 194.774 237.604L196.435 240.049ZM197.9 239.078L199.501 241.563C199.662 241.459 199.787 241.38 199.875 241.325L198.3 238.823L196.725 236.321C196.629 236.382 196.484 236.474 196.298 236.593L197.9 239.078ZM198.3 238.823L199.875 241.325C199.936 241.287 199.952 241.277 199.968 241.266L198.406 238.757L196.843 236.247C196.811 236.267 196.756 236.302 196.725 236.321L198.3 238.823ZM198.406 238.757L199.968 241.266C200.003 241.245 200.03 241.227 200.039 241.221C200.04 241.221 200.041 241.22 200.042 241.22C200.042 241.219 200.042 241.219 200.042 241.219C200.042 241.219 200.042 241.219 200.042 241.219C200.042 241.219 200.042 241.219 200.041 241.22C200.04 241.22 200.039 241.221 200.037 241.222C200.034 241.224 200.028 241.228 200.021 241.233C200.014 241.238 200.003 241.244 199.99 241.253L198.433 238.739L196.877 236.226C196.862 236.235 196.849 236.243 196.84 236.249C196.831 236.255 196.823 236.26 196.818 236.263C196.813 236.266 196.809 236.269 196.807 236.27C196.806 236.271 196.805 236.271 196.805 236.272C196.805 236.272 196.804 236.272 196.804 236.272C196.804 236.272 196.804 236.272 196.804 236.272C196.804 236.272 196.821 236.261 196.843 236.247L198.406 238.757ZM198.433 238.739L199.984 241.256C199.896 241.31 199.819 241.351 199.761 241.38C199.732 241.395 199.706 241.407 199.687 241.416C199.668 241.425 199.653 241.432 199.645 241.435C199.642 241.437 199.639 241.438 199.639 241.438C199.638 241.438 199.639 241.438 199.639 241.438C199.64 241.438 199.641 241.437 199.643 241.436C199.646 241.435 199.652 241.432 199.66 241.429C199.667 241.425 199.678 241.421 199.69 241.415C199.703 241.409 199.718 241.402 199.736 241.393C199.754 241.384 199.776 241.373 199.801 241.36C199.825 241.348 199.854 241.332 199.886 241.314C199.918 241.297 199.954 241.275 199.995 241.25L198.441 238.735L196.887 236.22C196.927 236.196 196.964 236.174 196.995 236.157C197.027 236.139 197.055 236.124 197.08 236.111C197.104 236.099 197.125 236.088 197.143 236.079C197.161 236.071 197.176 236.063 197.189 236.058C197.201 236.052 197.211 236.047 197.218 236.044C197.225 236.041 197.231 236.038 197.234 236.037C197.235 236.036 197.237 236.036 197.237 236.035C197.237 236.035 197.238 236.035 197.237 236.035C197.237 236.036 197.234 236.037 197.23 236.039C197.222 236.042 197.206 236.049 197.186 236.059C197.166 236.068 197.14 236.08 197.11 236.096C197.05 236.126 196.971 236.168 196.882 236.223L198.433 238.739ZM198.441 238.735L200.045 241.219C200.166 241.14 200.266 241.063 200.345 240.997C200.424 240.931 200.488 240.87 200.536 240.821C200.585 240.772 200.624 240.729 200.651 240.699C200.677 240.67 200.697 240.646 200.705 240.636C200.709 240.632 200.713 240.627 200.712 240.628C200.712 240.628 200.712 240.629 200.711 240.629C200.711 240.629 200.71 240.63 200.71 240.631C200.708 240.632 200.706 240.635 200.704 240.638C200.699 240.644 200.69 240.654 200.679 240.667C200.668 240.68 200.652 240.698 200.633 240.719C200.613 240.74 200.588 240.768 200.558 240.799C200.528 240.83 200.489 240.868 200.442 240.911C200.396 240.953 200.337 241.005 200.265 241.061C200.194 241.117 200.103 241.183 199.993 241.25L198.443 238.733L196.892 236.216C196.782 236.284 196.691 236.35 196.62 236.406C196.549 236.462 196.489 236.514 196.443 236.556C196.396 236.599 196.357 236.638 196.327 236.669C196.297 236.7 196.271 236.727 196.252 236.748C196.233 236.769 196.217 236.788 196.206 236.801C196.195 236.814 196.186 236.824 196.181 236.83C196.178 236.833 196.176 236.836 196.175 236.837C196.174 236.838 196.173 236.839 196.173 236.839C196.173 236.84 196.172 236.84 196.172 236.84C196.172 236.841 196.175 236.837 196.179 236.832C196.187 236.823 196.207 236.799 196.233 236.77C196.259 236.74 196.298 236.698 196.347 236.649C196.395 236.6 196.459 236.539 196.538 236.473C196.616 236.407 196.716 236.33 196.837 236.252L198.441 238.735ZM198.443 238.733V241.69H198.444V238.733V235.777H198.443V238.733ZM198.444 238.733L199.994 241.25C199.755 241.398 199.492 241.495 199.221 241.54L198.735 238.624L198.249 235.708C197.777 235.787 197.316 235.956 196.893 236.216L198.444 238.733ZM198.735 238.624L201.605 237.917L200.751 234.449L197.88 235.156L195.01 235.864L195.864 239.331L198.735 238.624ZM197.88 235.156V232.2H195.699V235.156V238.113H197.88V235.156ZM195.699 235.156V232.2C195.334 232.2 195.032 231.898 195.032 231.534L192.076 231.534L189.119 231.535C189.12 235.165 192.07 238.113 195.699 238.113V235.156ZM192.076 231.534H195.032C195.032 231.278 195.186 231.036 195.434 230.925L194.227 228.227L193.02 225.528C190.737 226.549 189.119 228.847 189.119 231.534H192.076ZM194.227 228.227H191.271V228.631H194.227H197.183V228.227H194.227ZM194.227 228.631H191.271C191.271 228.9 191.284 229.158 191.309 229.415L194.251 229.128L197.194 228.841C197.186 228.767 197.183 228.701 197.183 228.631H194.227ZM194.251 229.128L192.729 226.594C191.714 227.204 190.907 228.114 190.424 229.198L193.123 230.402L195.823 231.607C195.818 231.62 195.811 231.63 195.804 231.638C195.796 231.646 195.787 231.654 195.774 231.662L194.251 229.128ZM193.123 230.402L195.82 231.615C195.814 231.627 195.809 231.635 195.803 231.642C195.797 231.648 195.789 231.656 195.776 231.663L194.248 229.133L192.719 226.602C191.714 227.21 190.912 228.113 190.427 229.19L193.123 230.402ZM194.248 229.133L191.304 229.408C191.348 229.876 191.429 230.322 191.536 230.745L194.402 230.019L197.267 229.292C197.229 229.141 197.204 228.996 197.191 228.858L194.248 229.133ZM194.402 230.019L192.487 227.767C191.445 228.652 190.734 229.995 190.734 231.538L193.69 231.538L196.646 231.538C196.646 231.86 196.494 232.12 196.317 232.27L194.402 230.019ZM193.69 231.538H190.734C190.734 234.271 192.951 236.5 195.696 236.5V233.544V230.588C196.225 230.588 196.646 231.013 196.646 231.538H193.69ZM195.696 233.544V236.5H197.082V233.544V230.588H195.696V233.544ZM197.082 233.544L195.236 231.236L195.231 231.239L197.078 233.548L198.924 235.856L198.929 235.852L197.082 233.544ZM197.078 233.548L195.599 236.108C195.846 236.25 196.086 236.37 196.308 236.472L197.542 233.786L198.777 231.1C198.682 231.056 198.61 231.019 198.556 230.988L197.078 233.548ZM197.542 233.786L200.41 233.069L200.408 233.061L197.54 233.778L194.673 234.495L194.674 234.503L197.542 233.786ZM197.54 233.778L198.778 231.093C198.681 231.049 198.611 231.013 198.56 230.983L197.082 233.543L195.603 236.103C195.849 236.245 196.087 236.363 196.303 236.463L197.54 233.778ZM197.082 233.543V230.587H195.703V233.543V236.499H197.082V233.543ZM195.703 233.543L195.703 230.587C196.229 230.587 196.654 231.01 196.654 231.537H193.698H190.741C190.741 234.28 192.968 236.499 195.702 236.499L195.703 233.543ZM193.698 231.537L196.654 231.538C196.654 231.856 196.503 232.117 196.324 232.269L194.409 230.018L192.493 227.766C191.45 228.654 190.742 229.998 190.741 231.537L193.698 231.537ZM194.409 230.018L196.223 232.352L196.385 232.226L194.571 229.892L192.757 227.557L192.595 227.683L194.409 230.018ZM194.571 229.892L192.897 227.455C192.759 227.55 192.615 227.659 192.471 227.783L194.406 230.019L196.34 232.254C196.301 232.288 196.268 232.312 196.244 232.328L194.571 229.892ZM194.406 230.019L197.271 229.292C197.233 229.141 197.208 228.996 197.195 228.858L194.251 229.133L191.308 229.408C191.352 229.876 191.433 230.322 191.54 230.745L194.406 230.019ZM194.251 229.133L195.803 231.649C195.765 231.672 195.741 231.678 195.742 231.678L195.043 228.806L194.345 225.933C193.78 226.07 193.222 226.294 192.7 226.617L194.251 229.133ZM195.043 228.806L195.718 231.684L195.781 231.669L195.106 228.791L194.431 225.913L194.369 225.927L195.043 228.806ZM195.106 228.791L194.489 225.9C194.451 225.908 194.415 225.916 194.38 225.924L195.044 228.805L195.709 231.685C195.715 231.684 195.719 231.683 195.723 231.682L195.106 228.791ZM195.044 228.805H198.001V228.802H195.044H192.088V228.805H195.044ZM195.044 228.802L194.234 225.959L194.025 226.018L194.835 228.861L195.646 231.704L195.855 231.645L195.044 228.802ZM194.835 228.861L193.912 226.053C193.492 226.191 193.096 226.375 192.73 226.594L194.251 229.129L195.772 231.664C195.772 231.664 195.77 231.665 195.768 231.666C195.766 231.667 195.763 231.668 195.758 231.67L194.835 228.861ZM194.251 229.129L197.2 228.913C197.187 228.743 197.184 228.677 197.184 228.632L194.228 228.632L191.272 228.632C191.272 228.918 191.291 229.183 191.303 229.345L194.251 229.129ZM194.228 228.632H197.184V228.228H194.228H191.272V228.632H194.228ZM194.228 228.228V225.271H194.227V228.228V231.184H194.228V228.228ZM194.227 228.228H197.183V224.867H194.227H191.271V228.228H194.227ZM194.227 224.867L197.183 224.867C197.183 224.705 197.191 224.531 197.207 224.339L194.26 224.101L191.314 223.862C191.288 224.176 191.271 224.513 191.271 224.867L194.227 224.867ZM194.26 224.101L193.775 221.184L163.937 226.144L164.421 229.061L164.906 231.977L194.745 227.017L194.26 224.101ZM164.421 229.061L163.747 226.182C159.105 227.269 154.5 224.283 153.582 219.633L150.682 220.206L147.782 220.779C149.347 228.708 157.19 233.79 165.095 231.939L164.421 229.061ZM150.682 220.206L153.589 219.67L153.534 219.368L150.626 219.904L147.719 220.441L147.775 220.742L150.682 220.206ZM150.626 219.904L153.541 219.408C152.697 214.459 156.348 209.882 161.36 209.602L161.195 206.65L161.03 203.699C152.497 204.176 146.275 211.97 147.712 220.401L150.626 219.904ZM161.195 206.65L161.362 209.602L162.034 209.564L161.867 206.612L161.699 203.661L161.027 203.699L161.195 206.65ZM161.867 206.612L163.751 204.334C158.76 200.205 156.971 194.538 156.801 187.74L153.846 187.813L150.891 187.887C151.085 195.654 153.193 203.273 159.982 208.89L161.867 206.612ZM153.846 187.813H156.802V187.772H153.846H150.89V187.813H153.846ZM153.846 187.772L156.801 187.846C156.878 184.774 157.29 181.937 158.164 179.378L155.367 178.422L152.569 177.466C151.449 180.744 150.978 184.209 150.891 187.699L153.846 187.772ZM155.367 178.422L158.258 177.807C157.687 175.117 157.383 172.261 157.383 169.244H154.427H151.471C151.471 172.659 151.814 175.927 152.475 179.036L155.367 178.422ZM154.427 169.244H157.383V159.97H154.427H151.471V169.244H154.427ZM154.427 159.97H157.383C157.383 159.378 157.395 158.785 157.417 158.192L154.462 158.083L151.508 157.974C151.484 158.638 151.471 159.303 151.471 159.97H154.427ZM154.462 158.083L155.093 155.195C154.081 154.974 153.169 154.739 152.348 154.494L151.503 157.327L150.659 160.16C151.634 160.451 152.69 160.722 153.832 160.971L154.462 158.083ZM151.503 157.327L152.348 154.494C147.427 153.028 145.73 151.242 145.16 150.377L142.691 152.002L140.221 153.627C141.783 156 144.863 158.433 150.659 160.16L151.503 157.327ZM142.691 152.002L144.781 154.092L144.782 154.091L142.692 152.001L140.601 149.911L140.6 149.912L142.691 152.002ZM142.692 152.001L145.159 150.372C144.934 150.032 144.863 149.582 145.005 149.127L142.182 148.248L139.359 147.369C138.718 149.43 138.973 151.734 140.225 153.63L142.692 152.001ZM142.182 148.248L145.005 149.127C145.521 147.467 147.314 145.419 150.281 143.186L148.502 140.824L146.724 138.462C143.619 140.801 140.469 143.806 139.359 147.369L142.182 148.248ZM148.502 140.824L150.281 143.186C153.154 141.022 156.777 138.94 160.382 137.114L159.045 134.477L157.709 131.84C153.961 133.739 149.993 136.002 146.724 138.462L148.502 140.824ZM159.045 134.477L160.382 137.114C161.174 136.712 161.962 136.324 162.74 135.952L161.461 133.286L160.183 130.621C159.371 131.01 158.543 131.417 157.709 131.84L159.045 134.477ZM161.461 133.286L164.053 134.709C167.693 128.081 172.665 122.223 178.589 117.758L176.81 115.397L175.031 113.037C168.4 118.034 162.889 124.545 158.87 131.863L161.461 133.286ZM176.81 115.397L179.735 115.828C180.2 112.667 180.857 108.714 181.706 104.781L178.816 104.157L175.926 103.534C175.041 107.637 174.363 111.727 173.885 114.967L176.81 115.397ZM178.816 104.157L181.706 104.781C182.652 100.396 183.813 96.1474 185.167 93.0565L182.459 91.8701L179.752 90.6837C178.155 94.3267 176.896 99.0387 175.926 103.534L178.816 104.157ZM182.459 91.8701L185.167 93.0566C185.849 91.5015 186.523 90.3717 187.148 89.6717L184.945 87.7012L182.741 85.7306C181.515 87.1023 180.542 88.8795 179.752 90.6837L182.459 91.8701ZM184.945 87.7012L187.148 89.6718C187.743 89.0069 188.084 88.958 188.157 88.9554L188.054 86.001L187.951 83.0465C185.616 83.128 183.879 84.4585 182.741 85.7305L184.945 87.7012ZM188.054 86.001V88.9572H188.479V86.001V83.0447H188.054V86.001ZM250.161 241.318L247.793 239.547C246.461 241.328 244.621 243.179 242.659 244.909L244.615 247.126L246.57 249.343C248.68 247.482 250.853 245.327 252.528 243.089L250.161 241.318ZM244.615 247.126L242.659 244.909C240.459 246.85 238.176 248.583 236.435 249.835L238.162 252.235L239.888 254.635C241.725 253.314 244.175 251.456 246.57 249.343L244.615 247.126ZM238.162 252.235L236.436 249.835C235.568 250.459 234.839 250.96 234.329 251.305L235.983 253.755L237.637 256.205C238.186 255.834 238.964 255.299 239.888 254.635L238.162 252.235ZM235.983 253.755L234.329 251.305C234.072 251.478 233.873 251.61 233.741 251.697L235.366 254.167L236.99 256.637C237.145 256.535 237.364 256.389 237.637 256.205L235.983 253.755ZM235.366 254.167L233.741 251.697C233.678 251.738 233.642 251.762 233.59 251.796L235.201 254.274L236.812 256.753C236.835 256.738 236.91 256.69 236.99 256.637L235.366 254.167ZM235.201 254.274L233.59 251.796C233.567 251.81 233.549 251.822 233.54 251.828C233.534 251.832 233.535 251.832 233.535 251.832C233.535 251.832 233.542 251.827 233.553 251.82L235.158 254.303L236.762 256.786C236.778 256.776 236.791 256.767 236.797 256.763C236.803 256.759 236.81 256.754 236.812 256.753C236.817 256.75 236.815 256.751 236.812 256.753L235.201 254.274ZM235.158 254.303L233.553 251.82C233.595 251.793 233.632 251.77 233.66 251.754C233.674 251.746 233.687 251.739 233.696 251.733C233.706 251.728 233.713 251.724 233.717 251.722C233.719 251.721 233.72 251.72 233.72 251.72C233.72 251.72 233.721 251.719 233.72 251.72C233.72 251.72 233.719 251.72 233.719 251.721C233.717 251.721 233.715 251.723 233.711 251.725C233.708 251.727 233.703 251.729 233.697 251.733C233.691 251.736 233.684 251.74 233.675 251.745C233.667 251.75 233.656 251.756 233.645 251.763C233.633 251.77 233.619 251.778 233.604 251.787C233.588 251.797 233.571 251.808 233.551 251.82L235.146 254.31L236.741 256.799C236.721 256.811 236.704 256.822 236.689 256.831C236.674 256.84 236.661 256.848 236.649 256.855C236.627 256.868 236.61 256.878 236.599 256.884C236.594 256.887 236.59 256.889 236.586 256.891C236.583 256.893 236.581 256.894 236.58 256.894C236.58 256.895 236.579 256.895 236.58 256.895C236.581 256.894 236.583 256.893 236.585 256.892C236.594 256.887 236.618 256.873 236.648 256.856C236.679 256.838 236.718 256.815 236.762 256.786L235.158 254.303ZM235.146 254.31L233.543 251.826C233.528 251.835 233.516 251.843 233.507 251.849C233.498 251.855 233.491 251.86 233.489 251.862C233.488 251.862 233.487 251.862 233.487 251.863C233.487 251.863 233.487 251.863 233.487 251.862C233.488 251.862 233.49 251.861 233.493 251.859C233.496 251.857 233.501 251.853 233.507 251.849C233.513 251.845 233.522 251.839 233.533 251.832L235.143 254.312L236.753 256.791C236.764 256.784 236.773 256.778 236.78 256.773C236.786 256.769 236.791 256.766 236.794 256.764C236.797 256.762 236.8 256.76 236.8 256.759C236.801 256.759 236.801 256.759 236.801 256.759C236.801 256.759 236.801 256.759 236.8 256.76C236.798 256.761 236.792 256.765 236.784 256.771C236.775 256.776 236.763 256.784 236.749 256.793L235.146 254.31ZM235.143 254.312L233.053 252.221L233.052 252.222L235.142 254.312L237.232 256.403L237.233 256.402L235.143 254.312ZM235.142 254.312L233.502 251.853L233.49 251.861L235.13 254.32L236.77 256.78L236.782 256.772L235.142 254.312ZM235.13 254.32L233.575 251.806L227.407 255.623L228.962 258.137L230.518 260.651L236.686 256.834L235.13 254.32ZM228.962 258.137L227.111 260.441L227.513 260.765L229.365 258.46L231.216 256.155L230.814 255.832L228.962 258.137ZM229.365 258.46L229.621 261.405L263.511 258.459L263.255 255.514L262.999 252.569L229.109 255.515L229.365 258.46ZM263.255 255.514L265.417 253.497L252.519 239.675L250.358 241.692L248.196 243.709L261.094 257.531L263.255 255.514ZM250.358 241.692L252.52 239.676C252.79 239.965 252.965 240.314 253.046 240.673L250.161 241.318L247.276 241.963C247.417 242.594 247.723 243.202 248.196 243.709L250.358 241.692ZM252.668 235.958L249.733 235.609C249.636 236.42 249.206 237.468 248.385 238.71L250.851 240.34L253.317 241.97C254.379 240.363 255.353 238.416 255.604 236.307L252.668 235.958ZM250.851 240.34L251.211 243.274C250.573 243.352 249.877 243.139 249.379 242.606L251.54 240.589L253.702 238.572C252.837 237.645 251.624 237.267 250.491 237.406L250.851 240.34ZM251.54 240.589L249.379 242.606L251.357 244.725L253.518 242.708L255.679 240.691L253.702 238.572L251.54 240.589ZM253.518 242.708L255.371 245.011C255.144 245.194 254.891 245.323 254.634 245.399L253.796 242.563L252.959 239.728C252.493 239.866 252.052 240.093 251.665 240.405L253.518 242.708ZM253.796 242.563L254.634 245.399L257.716 244.489L256.878 241.653L256.041 238.818L252.959 239.728L253.796 242.563ZM256.878 241.653L259.784 241.107L259.489 239.539L256.583 240.085L253.678 240.631L253.973 242.2L256.878 241.653ZM256.583 240.085L258.728 238.05L254.813 233.923L252.668 235.958L250.524 237.993L254.439 242.12L256.583 240.085ZM195.137 229.622L194.292 226.789C194.191 226.819 194.11 226.848 194.073 226.862C194.055 226.869 194.035 226.876 194.032 226.877C194.025 226.88 194.03 226.878 194.038 226.875L195.032 229.659L196.026 232.443C196.051 232.434 196.073 232.426 196.084 232.422C196.086 232.421 196.089 232.42 196.091 232.42C196.093 232.419 196.094 232.418 196.095 232.418C196.098 232.417 196.097 232.417 196.096 232.418C196.093 232.419 196.08 232.423 196.062 232.429C196.044 232.436 196.017 232.445 195.983 232.455L195.137 229.622ZM195.032 229.659L196.022 232.445C196.047 232.436 196.068 232.428 196.077 232.425C196.084 232.422 196.085 232.422 196.088 232.421C196.09 232.42 196.09 232.42 196.088 232.421C196.085 232.422 196.072 232.426 196.054 232.432C196.036 232.439 196.009 232.447 195.975 232.457L195.141 229.621L194.307 226.785C194.206 226.815 194.124 226.844 194.084 226.858C194.065 226.865 194.045 226.872 194.04 226.874C194.032 226.877 194.035 226.876 194.041 226.874L195.032 229.659ZM195.141 229.621L195.978 232.456C196.004 232.449 196.027 232.441 196.047 232.435C196.066 232.429 196.082 232.424 196.095 232.419C196.107 232.415 196.117 232.412 196.123 232.409C196.127 232.408 196.129 232.407 196.131 232.407C196.132 232.406 196.133 232.406 196.133 232.406C196.133 232.406 196.133 232.406 196.133 232.406C196.133 232.406 196.133 232.406 196.133 232.406C196.133 232.406 196.133 232.406 196.132 232.406C196.132 232.406 196.131 232.407 196.131 232.407C196.129 232.407 196.127 232.408 196.123 232.409C196.117 232.412 196.107 232.415 196.095 232.419C196.082 232.424 196.065 232.429 196.046 232.435C196.027 232.441 196.004 232.448 195.978 232.456L195.153 229.617L194.328 226.778C194.301 226.786 194.277 226.794 194.256 226.8C194.236 226.806 194.219 226.812 194.205 226.817C194.192 226.821 194.181 226.825 194.173 226.828C194.167 226.83 194.161 226.832 194.161 226.832C194.16 226.832 194.161 226.832 194.162 226.832C194.163 226.832 194.165 226.831 194.167 226.83C194.173 226.828 194.182 226.825 194.193 226.821C194.205 226.817 194.22 226.812 194.239 226.806C194.257 226.8 194.279 226.793 194.304 226.786L195.141 229.621ZM195.153 229.617L194.332 226.777C194.303 226.785 194.28 226.793 194.265 226.797C194.257 226.8 194.25 226.802 194.246 226.803C194.242 226.805 194.238 226.806 194.237 226.806C194.235 226.807 194.237 226.806 194.238 226.806C194.24 226.805 194.244 226.804 194.249 226.803C194.259 226.799 194.277 226.794 194.3 226.787L195.137 229.622L195.975 232.457C196 232.45 196.021 232.443 196.033 232.439C196.04 232.437 196.045 232.436 196.048 232.435C196.051 232.434 196.054 232.433 196.053 232.433C196.053 232.433 196.053 232.433 196.053 232.433C196.053 232.433 196.053 232.433 196.053 232.433C196.052 232.433 196.052 232.433 196.052 232.433C196.051 232.434 196.05 232.434 196.048 232.435C196.045 232.436 196.04 232.437 196.033 232.439C196.021 232.443 196 232.45 195.974 232.457L195.153 229.617ZM195.531 228.729L195.715 231.68C195.698 231.681 195.691 231.681 195.699 231.681L195.699 228.725L195.699 225.768C195.593 225.768 195.475 225.771 195.347 225.779L195.531 228.729ZM195.699 228.725V231.681H196.295V228.725V225.768H195.699V228.725ZM196.295 228.725H199.252V228.724H196.295H193.339V228.725H196.295ZM196.295 228.724V225.767H195.699V228.724V231.68H196.295V228.724ZM195.699 228.724L195.698 225.767C195.57 225.767 195.447 225.772 195.33 225.78L195.531 228.729L195.732 231.679C195.726 231.679 195.714 231.68 195.699 231.68L195.699 228.724ZM194.826 228.021L192.735 230.112L192.736 230.113L194.827 228.022L196.917 225.932L196.916 225.931L194.826 228.021ZM194.827 228.022L196.917 225.932L196.916 225.931L194.826 228.021L192.735 230.112L192.736 230.113L194.827 228.022ZM195.53 227.919H192.573V227.92H195.53H198.486V227.919H195.53ZM195.53 227.92H198.486V227.919H195.53H192.573V227.92H195.53ZM195.844 227.915V230.871H196.096V227.915V224.959H195.844V227.915ZM196.096 227.915L198.901 226.98L198.9 226.977L196.095 227.912L193.291 228.847L193.292 228.85L196.096 227.915ZM196.095 227.912V224.956H195.845V227.912V230.868H196.095V227.912ZM195.845 227.912H198.801V226.896H195.845H192.889V227.912H195.845ZM195.845 226.896L198.744 226.316L198.743 226.311L195.844 226.891L192.945 227.47L192.946 227.475L195.845 226.896ZM195.844 226.891H192.888V227.915H195.844H198.8V226.891H195.844Z" fill="#090A0A" mask="url(#path-17-outside-1_39_6588)"/>
<path d="M254.026 243.338L257.811 242.222L256.21 233.704L266.325 240.625L273.247 230.51L274.844 239.024L279.679 237.823" stroke="black" stroke-width="1.61718" stroke-linecap="round" stroke-linejoin="round"/>
<path d="M280.079 239.899C281.325 239.899 282.335 238.889 282.335 237.643C282.335 236.397 281.325 235.387 280.079 235.387C278.833 235.387 277.823 236.397 277.823 237.643C277.823 238.889 278.833 239.899 280.079 239.899Z" fill="black"/>
<path d="M250.949 241.14L264.279 255.423C265.439 256.669 265.439 258.569 264.279 259.814L251.661 273.382C250.464 274.668 248.451 274.809 247.076 273.71L228.2 258.561" fill="#E5E5E5"/>
<path d="M250.949 241.14L264.279 255.423C265.439 256.669 265.439 258.569 264.279 259.814L251.661 273.382C250.464 274.668 248.451 274.809 247.076 273.71L228.2 258.561" stroke="black" stroke-width="1.61718" stroke-linecap="round" stroke-linejoin="round"/>
<path d="M198.443 205.297L161.285 207.371C154.994 207.723 150.409 213.468 151.468 219.682C152.491 225.694 158.382 229.587 164.313 228.18L194.91 223.094L198.912 239.339C198.912 239.339 186.856 246.766 180.812 255.462C179.975 256.667 180.088 258.28 181.059 259.384L194.461 274.678C195.541 275.907 197.376 276.178 198.775 275.313L228.256 257.569L234.749 253.55C234.749 253.55 254.083 241.126 251.754 233.917L244.141 225.666L257.454 239.703C262.075 244.579 269.858 244.53 274.423 239.602C279.141 234.512 278.373 226.446 272.785 222.334L239.758 198.036L198.443 205.305V205.297Z" fill="white"/>
<path d="M239.718 198.118L272.745 222.416C278.337 226.528 279.101 234.594 274.383 239.684C269.818 244.612 262.039 244.657 257.414 239.785L244.101 225.748" stroke="black" stroke-width="1.61718" stroke-linecap="round" stroke-linejoin="round"/>
<path d="M198.868 239.42C198.868 239.42 186.812 246.847 180.768 255.543C179.931 256.748 180.044 258.361 181.015 259.465L194.417 274.759C195.497 275.988 197.332 276.259 198.731 275.394L228.212 257.649L234.705 253.631C234.705 253.631 254.039 241.207 251.71 233.998" stroke="black" stroke-width="1.61718" stroke-linecap="round" stroke-linejoin="round"/>
<path d="M199.777 122.063C199.777 122.063 196.013 86.5173 188.267 86.8084C180.521 86.5173 176.757 122.063 176.757 122.063H199.777Z" fill="#FF6100" stroke="black" stroke-width="1.61718" stroke-miterlimit="10"/>
<path d="M246.239 122.063C246.239 122.063 242.475 86.5173 234.729 86.8084C226.983 86.5173 223.219 122.063 223.219 122.063H246.239Z" fill="#FF6100" stroke="black" stroke-width="1.61718" stroke-miterlimit="10"/>
<path d="M173.672 128.96C173.672 128.96 145.881 139.084 142.954 148.487C142.63 149.526 142.768 150.65 143.366 151.556C145.226 154.382 152.164 159.642 178.342 158.785L173.672 128.96Z" fill="black" stroke="black" stroke-width="1.61718" stroke-miterlimit="10"/>
<path d="M255.073 128.96C255.073 128.96 282.864 139.084 285.791 148.487C286.115 149.526 285.977 150.65 285.379 151.556C283.519 154.382 276.581 159.642 250.403 158.785L255.073 128.96Z" fill="black" stroke="black" stroke-width="1.61718" stroke-miterlimit="10"/>
<path d="M198.4 205.383L161.241 207.457C154.95 207.809 150.365 213.554 151.424 219.768C152.447 225.78 158.338 229.673 164.269 228.266L194.866 223.18" stroke="black" stroke-width="1.61718" stroke-linecap="round" stroke-linejoin="round"/>
<path d="M248.18 202.868C248.18 202.868 246.009 215.866 218.533 220.002C189.836 224.32 185.155 210.804 185.155 210.804L184.31 208.346" fill="black"/>
<path d="M248.18 202.868C248.18 202.868 246.009 215.866 218.533 220.002C189.836 224.32 185.155 210.804 185.155 210.804L184.31 208.346" stroke="black" stroke-width="1.41503" stroke-miterlimit="10"/>
<path d="M215.679 211.904H206.02C178.088 211.904 155.237 196.064 155.237 169.243V159.969C155.237 133.148 176.867 106.569 204.799 106.569H216.904C244.837 106.569 266.466 133.152 266.466 159.969V169.243C266.466 196.064 243.612 211.904 215.683 211.904H215.679Z" fill="white" stroke="black" stroke-width="1.61718" stroke-miterlimit="10"/>
<path d="M192.072 157.18C192.12 168.674 187.661 174.071 181.475 173.731C175.294 174.075 170.834 168.674 170.883 157.18C170.838 145.685 175.294 140.288 181.475 140.628C187.657 140.284 192.12 145.685 192.072 157.18Z" fill="white"/>
<path d="M192.072 157.18C192.12 168.674 187.661 174.071 181.475 173.731C175.294 174.075 170.834 168.674 170.883 157.18C170.838 145.685 175.294 140.288 181.475 140.628C187.657 140.284 192.12 145.685 192.072 157.18Z" stroke="black" stroke-width="1.41503" stroke-miterlimit="10"/>
<path d="M191.389 155.707C191.421 163.478 188.615 167.31 184.73 167.096C180.845 167.31 178.039 163.478 178.071 155.707C178.043 147.937 180.845 144.104 184.73 144.318C188.615 144.104 191.417 147.937 191.389 155.707Z" fill="black"/>
<path d="M191.389 155.707C191.421 163.478 188.615 167.31 184.73 167.096C180.845 167.31 178.039 163.478 178.071 155.707C178.043 147.937 180.845 144.104 184.73 144.318C188.615 144.104 191.417 147.937 191.389 155.707Z" stroke="black" stroke-width="1.41503" stroke-miterlimit="10"/>
<path d="M226.198 157.18C226.247 168.674 221.787 174.071 215.602 173.731C209.416 174.075 204.961 168.674 205.009 157.18C204.961 145.685 209.42 140.288 215.602 140.628C221.783 140.284 226.243 145.685 226.198 157.18Z" fill="white"/>
<path d="M226.198 157.18C226.247 168.674 221.787 174.071 215.602 173.731C209.416 174.075 204.961 168.674 205.009 157.18C204.961 145.685 209.42 140.288 215.602 140.628C221.783 140.284 226.243 145.685 226.198 157.18Z" stroke="black" stroke-width="1.41503" stroke-miterlimit="10"/>
<path d="M226.198 155.707C226.23 163.478 223.425 167.31 219.539 167.096C215.654 167.31 212.852 163.478 212.881 155.707C212.848 147.937 215.654 144.104 219.539 144.318C223.429 144.104 226.226 147.937 226.198 155.707Z" fill="black"/>
<path d="M226.198 155.707C226.23 163.478 223.425 167.31 219.539 167.096C215.654 167.31 212.852 163.478 212.881 155.707C212.848 147.937 215.654 144.104 219.539 144.318C223.429 144.104 226.226 147.937 226.198 155.707Z" stroke="black" stroke-width="1.41503" stroke-miterlimit="10"/>
<path d="M237.171 187.792C236.977 195.571 234.745 202.452 227.836 207.206C221.128 211.993 209.739 214.653 195.913 214.686C182.086 214.658 170.697 211.993 163.989 207.206C157.08 202.452 154.848 195.571 154.654 187.792C154.848 180.014 157.08 173.132 163.989 168.378C170.697 163.591 182.082 160.931 195.909 160.898C209.735 160.927 221.124 163.591 227.832 168.378C234.741 173.132 236.973 180.014 237.167 187.792H237.171Z" fill="#FF6100"/>
<path d="M237.171 187.792C236.977 195.571 234.745 202.452 227.836 207.206C221.128 211.993 209.739 214.653 195.913 214.686C182.086 214.658 170.697 211.993 163.989 207.206C157.08 202.452 154.848 195.571 154.654 187.792C154.848 180.014 157.08 173.132 163.989 168.378C170.697 163.591 182.082 160.931 195.909 160.898C209.735 160.927 221.124 163.591 227.832 168.378C234.741 173.132 236.973 180.014 237.167 187.792H237.171Z" stroke="black" stroke-width="1.61718" stroke-miterlimit="10"/>
<path opacity="0.75" d="M180.355 195.571V180.01L195.913 195.571L211.47 180.01V195.571" stroke="black" stroke-width="2.42577" stroke-linecap="round" stroke-linejoin="round"/>
<path d="M203.651 237.881C205.159 237.881 206.389 236.664 206.417 235.16H200.89C200.914 236.664 202.143 237.881 203.656 237.881H203.651Z" fill="#DB9B2A"/>
<path d="M203.651 238.69C201.694 238.69 200.105 237.113 200.077 235.16H199.269C199.293 237.554 201.25 239.498 203.651 239.498C206.053 239.498 208.005 237.558 208.034 235.16H207.225C207.201 237.113 205.612 238.69 203.651 238.69Z" fill="black"/>
<path d="M203.651 237.881C202.143 237.881 200.914 236.664 200.886 235.16H200.077C200.101 237.113 201.69 238.69 203.651 238.69C205.612 238.69 207.197 237.113 207.225 235.16H206.416C206.392 236.664 205.163 237.881 203.651 237.881Z" fill="black"/>
<path d="M211.458 224.867C211.458 220.561 207.957 217.06 203.651 217.06C199.345 217.06 195.844 220.561 195.844 224.867V227.911H211.458V224.867Z" fill="#FFCA00"/>
<path d="M195.036 224.866C195.036 220.127 198.913 216.25 203.651 216.25C208.39 216.25 212.267 220.127 212.267 224.866V227.975C212.55 228.027 212.821 228.112 213.075 228.225V224.866C213.075 219.67 208.846 215.441 203.651 215.441C198.456 215.441 194.227 219.67 194.227 224.866V228.225C194.482 228.112 194.753 228.027 195.036 227.975V224.866Z" fill="black"/>
<path d="M195.845 227.914V224.869C195.845 220.564 199.346 217.062 203.652 217.062C207.957 217.062 211.459 220.564 211.459 224.869V227.914H211.604C211.831 227.914 212.053 227.938 212.267 227.978V224.869C212.267 220.131 208.39 216.254 203.652 216.254C198.913 216.254 195.036 220.131 195.036 224.869V227.978C195.25 227.938 195.473 227.914 195.699 227.914H195.845Z" fill="black"/>
<path d="M212.897 230.016C212.687 229.834 212.436 229.701 212.165 229.62C211.987 229.568 211.801 229.531 211.607 229.531H195.698C195.504 229.531 195.318 229.568 195.14 229.62C194.865 229.701 194.619 229.834 194.408 230.016C193.976 230.384 193.697 230.926 193.697 231.537C193.697 232.644 194.598 233.542 195.702 233.542H211.611C212.719 233.542 213.616 232.64 213.616 231.537C213.616 230.926 213.337 230.384 212.905 230.016H212.897Z" fill="#FFCA00"/>
<path d="M213.075 228.23V228.635C213.075 228.801 213.063 228.966 213.051 229.132C213.868 229.625 214.421 230.523 214.421 231.542C214.421 233.09 213.156 234.356 211.608 234.356H207.965C208.009 234.602 208.034 234.857 208.034 235.116C208.034 235.132 208.034 235.148 208.034 235.164H211.608C213.605 235.164 215.23 233.539 215.23 231.542C215.23 230.066 214.345 228.801 213.079 228.235L213.075 228.23Z" fill="black"/>
<path d="M199.337 234.35H195.695C194.146 234.35 192.881 233.084 192.881 231.536C192.881 230.517 193.431 229.619 194.251 229.126C194.235 228.96 194.227 228.799 194.227 228.629V228.225C192.962 228.791 192.076 230.06 192.076 231.532C192.076 233.529 193.701 235.154 195.699 235.154H199.273C199.273 235.154 199.273 235.122 199.273 235.106C199.273 234.847 199.301 234.592 199.341 234.346L199.337 234.35Z" fill="black"/>
<path d="M200.886 235.111C200.886 235.111 200.886 235.143 200.886 235.159H206.412C206.412 235.159 206.412 235.127 206.412 235.111C206.412 234.848 206.372 234.593 206.303 234.351H200.987C200.918 234.593 200.877 234.848 200.877 235.111H200.886Z" fill="#BC7F1D"/>
<path d="M200.077 235.111C200.077 234.848 200.105 234.597 200.162 234.351H199.341C199.297 234.597 199.272 234.852 199.272 235.111C199.272 235.127 199.272 235.143 199.272 235.159H200.081C200.081 235.159 200.081 235.127 200.081 235.111H200.077Z" fill="black"/>
<path d="M207.965 234.351H207.144C207.197 234.597 207.229 234.852 207.229 235.111C207.229 235.127 207.229 235.143 207.229 235.159H208.038C208.038 235.159 208.038 235.127 208.038 235.111C208.038 234.852 208.009 234.597 207.969 234.351H207.965Z" fill="black"/>
<path d="M206.416 235.111C206.416 235.111 206.416 235.143 206.416 235.159H207.225C207.225 235.159 207.225 235.127 207.225 235.111C207.225 234.848 207.197 234.597 207.14 234.351H206.307C206.376 234.593 206.416 234.848 206.416 235.111Z" fill="black"/>
<path d="M200.886 235.111C200.886 234.848 200.926 234.593 200.995 234.351H200.162C200.11 234.597 200.077 234.852 200.077 235.111C200.077 235.127 200.077 235.143 200.077 235.159H200.886C200.886 235.159 200.886 235.127 200.886 235.111Z" fill="black"/>
<path d="M211.458 228.633V227.913H195.844V228.633C195.844 228.665 195.844 228.693 195.848 228.722H211.454C211.454 228.693 211.458 228.661 211.458 228.633Z" fill="#BC7F1D"/>
<path d="M194.251 229.127C194.494 228.981 194.761 228.868 195.044 228.799C195.044 228.743 195.036 228.686 195.036 228.63V227.975C194.753 228.027 194.482 228.112 194.227 228.225V228.63C194.227 228.795 194.239 228.961 194.251 229.127Z" fill="black"/>
<path d="M212.266 228.633C212.266 228.69 212.258 228.747 212.258 228.803C212.541 228.872 212.808 228.981 213.051 229.131C213.067 228.965 213.075 228.803 213.075 228.633V228.229C212.82 228.116 212.549 228.031 212.266 227.979V228.633Z" fill="black"/>
<path d="M211.458 227.913V228.633C211.458 228.665 211.458 228.693 211.454 228.722H211.604C211.83 228.722 212.048 228.75 212.259 228.803C212.259 228.746 212.267 228.689 212.267 228.633V227.978C212.052 227.937 211.83 227.913 211.604 227.913H211.458Z" fill="black"/>
<path d="M195.849 228.722C195.849 228.693 195.845 228.661 195.845 228.633V227.913H195.699C195.473 227.913 195.25 227.937 195.036 227.978V228.633C195.036 228.689 195.044 228.746 195.044 228.803C195.254 228.754 195.473 228.722 195.699 228.722H195.849Z" fill="black"/>
<path d="M213.613 231.537C213.613 232.644 212.712 233.542 211.608 233.542H210.221C209.542 233.934 208.774 234.189 207.953 234.266C207.957 234.294 207.961 234.322 207.965 234.35H211.608C213.156 234.35 214.422 233.085 214.422 231.537C214.422 230.518 213.872 229.62 213.051 229.127C213.023 229.43 212.97 229.725 212.898 230.012C213.33 230.38 213.609 230.922 213.609 231.533L213.613 231.537Z" fill="black"/>
<path d="M197.082 233.542H195.695C194.587 233.542 193.69 232.64 193.69 231.536C193.69 230.926 193.969 230.384 194.401 230.016C194.328 229.729 194.276 229.434 194.248 229.131C193.431 229.624 192.877 230.522 192.877 231.54C192.877 233.089 194.142 234.354 195.691 234.354H199.334C199.338 234.326 199.342 234.298 199.346 234.269C198.525 234.193 197.757 233.938 197.078 233.546L197.082 233.542Z" fill="black"/>
<path d="M200.995 234.351H206.311C206.311 234.351 206.303 234.31 206.295 234.29H201.011C201.011 234.29 201.003 234.33 200.995 234.351Z" fill="#BC7F1D"/>
<path d="M199.887 234.295C199.705 234.295 199.527 234.283 199.353 234.267C199.349 234.295 199.345 234.323 199.341 234.352H200.162C200.162 234.352 200.174 234.311 200.178 234.291H199.891L199.887 234.295Z" fill="black"/>
<path d="M207.415 234.295H207.128C207.128 234.295 207.14 234.335 207.144 234.355H207.965C207.961 234.327 207.957 234.299 207.953 234.271C207.775 234.287 207.597 234.299 207.419 234.299L207.415 234.295Z" fill="black"/>
<path d="M201.007 234.294H200.174C200.174 234.294 200.162 234.334 200.158 234.355H200.991C200.991 234.355 200.999 234.314 201.007 234.294Z" fill="black"/>
<path d="M206.295 234.294C206.295 234.294 206.303 234.334 206.311 234.355H207.144C207.144 234.355 207.132 234.314 207.128 234.294H206.295Z" fill="black"/>
<path d="M211.454 228.723H195.849C195.857 229.002 195.889 229.268 195.95 229.531H211.357C211.418 229.268 211.45 229.002 211.458 228.723H211.454Z" fill="#BC7F1D"/>
<path d="M207.952 234.266C208.773 234.189 209.541 233.934 210.221 233.542H207.742C207.831 233.772 207.904 234.015 207.952 234.266Z" fill="black"/>
<path d="M197.081 233.542C197.76 233.934 198.528 234.189 199.349 234.266C199.398 234.015 199.47 233.776 199.559 233.542H197.081Z" fill="black"/>
<path d="M195.137 229.62C195.08 229.354 195.052 229.083 195.044 228.804C194.761 228.872 194.494 228.982 194.251 229.131C194.28 229.434 194.332 229.73 194.405 230.017C194.615 229.835 194.866 229.701 195.137 229.62Z" fill="black"/>
<path d="M212.166 229.62C212.44 229.701 212.687 229.835 212.897 230.017C212.97 229.73 213.023 229.434 213.051 229.131C212.808 228.986 212.542 228.872 212.259 228.804C212.25 229.083 212.222 229.358 212.166 229.62Z" fill="black"/>
<path d="M201.375 233.542C201.217 233.768 201.092 234.023 201.007 234.29H206.291C206.206 234.019 206.081 233.768 205.923 233.542H201.371H201.375Z" fill="#BC7F1D"/>
<path d="M199.563 233.542C199.474 233.772 199.402 234.015 199.353 234.266C199.531 234.282 199.709 234.294 199.887 234.294H200.174C200.234 234.031 200.327 233.781 200.441 233.546H199.559L199.563 233.542Z" fill="black"/>
<path d="M206.861 233.542C206.979 233.781 207.068 234.027 207.128 234.29H207.415C207.597 234.29 207.775 234.278 207.949 234.262C207.901 234.011 207.828 233.773 207.739 233.538H206.857L206.861 233.542Z" fill="black"/>
<path d="M205.927 233.542C206.084 233.768 206.21 234.023 206.295 234.29H207.128C207.067 234.027 206.974 233.776 206.861 233.542H205.927Z" fill="black"/>
<path d="M200.441 233.542C200.323 233.781 200.234 234.027 200.174 234.29H201.007C201.092 234.019 201.217 233.768 201.375 233.542H200.441Z" fill="black"/>
<path d="M195.698 229.531H195.949C195.888 229.268 195.856 229.002 195.848 228.723H195.698C195.472 228.723 195.254 228.751 195.043 228.804C195.052 229.082 195.08 229.357 195.136 229.62C195.314 229.568 195.5 229.531 195.694 229.531H195.698Z" fill="black"/>
<path d="M211.454 228.723C211.446 229.002 211.414 229.268 211.353 229.531H211.604C211.798 229.531 211.984 229.568 212.162 229.62C212.218 229.353 212.247 229.082 212.255 228.804C212.044 228.755 211.826 228.723 211.6 228.723H211.45H211.454Z" fill="black"/>
<path d="M150.054 6.936V5.976H167.19V6.936H168.15V18.768H167.19V19.728H163.902V18.768H162.942V10.608H150.054V9.648H149.094V6.936H150.054ZM159.654 22.656H168.438V23.616H169.422V26.304H168.438V27.264H148.806V26.304H147.822V23.616H148.806V22.656H154.398V16.296H155.358V15.336H158.67V16.296H159.654V22.656ZM176.566 14.496H175.582V15.384H174.718V16.344H173.854V17.136H171.262V16.344H170.518V13.152H171.526V12.192H172.654V11.256H173.494V6.96H174.454V5.976H177.622V6.96H178.582V11.256H179.422V12.192H180.55V13.152H181.558V16.344H180.79V17.136H178.246V16.344H177.406V15.384H176.566V14.496ZM187.558 9.24V6.84H188.422V5.976H191.086V6.84H191.95V16.224H191.086V17.208H188.422V16.224H187.558V13.32H186.574V16.224H185.686V17.208H183.046V16.224H182.158V6.84H183.046V5.976H185.686V6.84H186.574V9.24H187.558ZM174.862 19.032V18.216H189.31V19.032H190.318V19.872H191.278V20.808H192.166V25.248H191.278V26.184H190.318V27.024H189.31V27.84H174.862V27.024H173.854V26.184H172.894V25.248H172.006V20.808H172.894V19.872H173.854V19.032H174.862ZM178.198 24.192H185.974V23.52H186.862V22.536H185.974V21.864H178.198V22.536H177.31V23.52H178.198V24.192ZM201.374 18.504H196.31V17.784H195.374V16.992H194.51V16.176H193.694V12.552H194.51V11.736H195.35V11.208H194.03V10.344H193.214V7.896H194.03V7.008H196.406V5.568H197.39V4.8H200.318V5.568H201.302V7.008H203.654V7.896H204.47V10.344H203.654V11.208H202.358V11.736H203.198V12.552H204.014V16.176H203.198V16.992H202.31V17.784H201.374V18.504ZM210.398 10.032V6.84H211.262V5.976H213.926V6.84H214.79V17.544H213.926V18.504H211.262V17.544H210.398V14.112H209.414V17.544H208.526V18.504H205.886V17.544H204.998V6.84H205.886V5.976H208.526V6.84H209.414V10.032H210.398ZM199.598 12.432H198.086V13.104H197.414V14.688H198.086V15.36H199.598V14.688H200.27V13.104H199.598V12.432ZM204.758 23.232V24H205.646V23.232H206.486V22.416H207.254V20.088H208.118V19.344H211.622V20.088H212.486V22.368H213.23V22.992H214.046V23.736H214.982V24.552H215.822V27.264H215.054V27.984H212.318V27.168H211.31V26.352H210.35V25.584H209.294V26.352H208.334V27.168H207.206V27.984H203.198V27.168H202.094V26.352H201.134V25.584H200.078V26.352H199.118V27.168H198.086V27.984H195.35V27.264H194.582V24.552H195.446V23.736H196.382V22.992H197.198V22.368H197.918V20.088H198.782V19.344H202.286V20.088H203.174V22.416H203.918V23.232H204.758ZM234.199 14.04V14.784H220.087V14.04H219.031V13.32H218.095V12.528H217.231V8.208H218.047V7.44H218.911V6.696H219.871V5.976H234.367V6.696H235.375V7.44H236.239V8.208H237.055V12.528H236.191V13.32H235.255V14.04H234.199ZM231.199 11.472V10.896H232.015V9.84H231.199V9.264H223.087V9.84H222.271V10.896H223.087V11.472H231.199ZM216.343 18.504V16.488H217.159V15.672H237.127V16.488H237.943V18.504H237.127V19.32H217.159V18.504H216.343ZM217.327 21.168H218.215V20.256H236.071V21.168H236.959V26.928H236.071V27.84H218.215V26.928H217.327V21.168ZM231.751 24.552V23.544H222.535V24.552H231.751ZM239.183 6.936H240.167V5.976H248.471V6.936H249.431V13.872H250.895V6.936H251.759V5.976H254.351V6.936H255.239V26.88H254.351V27.84H251.759V26.88H250.895V18.48H249.431V25.944H248.471V26.904H240.167V25.944H239.183V6.936ZM260.615 26.88H259.751V27.84H257.135V26.88H256.247V6.936H257.135V5.976H259.751V6.936H260.615V26.88ZM245.351 10.392H243.287V22.464H245.351V10.392ZM278.007 20.376V21.192H271.839V20.28H270.903V19.416H269.991V18.576H269.127V17.76H268.095V18.576H267.279V20.064H266.319V21.024H263.295V20.064H262.335V15.48H263.199V14.52H264.159V13.632H265.191V12.816H271.359V13.728H272.295V14.592H273.207V15.456H274.071V16.272H275.103V15.456H275.919V13.968H276.879V13.008H279.903V13.968H280.863V18.528H279.999V19.512H279.039V20.376H278.007ZM62.1654 39.976V40.936H63.1254V43.552H62.1654V44.512H55.6374V56.368H62.6214V57.328H63.5814V59.944H62.6214V60.904H51.5094V59.944H50.5494V40.936H51.5094V39.976H62.1654ZM66.4854 39.976H69.9414V40.936H70.8534V47.992H72.4134V48.856H73.1334V51.784H72.4134V52.648H70.8534V60.88H69.9414V61.84H66.4854V60.88H65.5494V40.936H66.4854V39.976ZM90.9338 48.04V48.784H76.8218V48.04H75.7658V47.32H74.8298V46.528H73.9658V42.208H74.7818V41.44H75.6458V40.696H76.6058V39.976H91.1018V40.696H92.1098V41.44H92.9738V42.208H93.7898V46.528H92.9258V47.32H91.9898V48.04H90.9338ZM87.9338 45.472V44.896H88.7498V43.84H87.9338V43.264H79.8218V43.84H79.0058V44.896H79.8218V45.472H87.9338ZM73.0778 52.504V50.488H73.8938V49.672H93.8618V50.488H94.6778V52.504H93.8618V53.32H73.8938V52.504H73.0778ZM74.0618 55.168H74.9498V54.256H92.8058V55.168H93.6938V60.928H92.8058V61.84H74.9498V60.928H74.0618V55.168ZM88.4858 58.552V57.544H79.2698V58.552H88.4858ZM113.565 49.336V48.376H112.317V49.336H111.189V50.344H110.013V51.424H108.789V52.576H107.493V53.584H104.109V52.648H102.885L102.933 49.12H104.157V48.088H105.525V47.056H106.797V46.072H107.949V45.112H109.029V44.176H110.013V40.864H110.949V39.976H114.933V40.864H115.845V44.176H116.853V45.112H117.933V46.072H119.085V47.056H120.357V48.088H121.725V49.12H122.949V52.648H121.773V53.584H118.389V52.576H117.093V51.424H115.845V50.344H114.693V49.336H113.565ZM103.125 56.584H122.757V57.544H123.741V60.304H122.757V61.264H103.125V60.304H102.141V57.544H103.125V56.584ZM144.638 52.912V53.872H126.926V52.912H125.966V50.296H126.926V49.312H129.086V44.512H126.782V43.552H125.798V40.936H126.782V39.976H144.782V40.936H145.766V43.552H144.782V44.512H142.526V49.312H144.638V50.296H145.598V52.912H144.638ZM137.39 49.312V44.512H134.198V49.312H137.39ZM125.966 56.584H145.598V57.544H146.582V60.304H145.598V61.264H125.966V60.304H124.982V57.544H125.966V56.584ZM160.134 47.56V48.4H153.366V49.504H160.878V50.344H161.742V52.432H160.878V53.272H149.142V52.432H148.278V45.616H149.142V44.776H155.91V43.696H149.142V42.856H148.278V40.816H149.142V39.976H160.134V40.816H161.022V47.56H160.134ZM164.55 39.976H167.886V40.936H168.822V54.904H167.886V55.864H164.55V54.904H163.59V40.936H164.55V39.976ZM168.006 61.84H149.79V60.88H148.83V55.72H149.694V54.976H153.15V55.72H154.014V57.856H168.006V58.72H168.966V60.976H168.006V61.84ZM190.27 53.968V54.928H172.894V53.968H171.934V40.936H172.894V39.976H190.126V40.936H191.086V43.144H190.126V44.104H177.118V45.4H189.982V46.36H190.942V48.52H189.982V49.48H177.118V50.8H190.27V51.76H191.23V53.968H190.27ZM171.646 56.776H191.278V57.736H192.262V60.304H191.278V61.264H171.646V60.304H170.662V57.736H171.646V56.776ZM193.43 58.072V42.952H194.366V41.92H195.302V40.936H196.19V39.976H201.062V40.936H201.974V41.92H202.91V42.952H203.846V47.872H205.214V40.936H206.078V39.976H208.67V40.936H209.558V60.88H208.67V61.84H206.078V60.88H205.214V52.48H203.846V58.072H202.91V59.104H201.974V60.088H201.062V61.048H196.19V60.088H195.302V59.104H194.366V58.072H193.43ZM214.07 60.88V61.84H211.454V60.88H210.566V40.936H211.454V39.976H214.07V40.936H214.934V60.88H214.07ZM199.79 55.84V45.184H199.19V44.392H198.062V45.184H197.486V55.84H198.062V56.632H199.19V55.84H199.79ZM229.495 56.32H230.359V59.992H229.423V61.024H226.519V59.992H225.607V58.888H224.719V57.856H223.903V56.872H222.751V57.856H221.935V58.888H221.047V59.992H220.111V61.024H217.111V59.992H216.175V56.32H217.015V55.288H217.927V54.28H218.767V53.344H219.583V52.528H220.351V40.96H221.335V39.976H225.199V40.96H226.183V52.528H226.927V53.344H227.767V54.28H228.607V55.288H229.495V56.32ZM232.039 51.016H228.511V50.056H227.551V47.368H228.511V46.408H232.039V40.936H232.999V39.976H236.383V40.936H237.343V60.88H236.383V61.84H232.999V60.88H232.039V51.016ZM245.862 40.936H246.822V39.976H257.79V40.936H258.75V51.352H257.79V52.312H246.822V51.352H245.862V40.936ZM261.75 39.976H265.11V40.936H266.022V44.632H267.438V45.52H268.158V48.28H267.438V49.144H266.022V53.872H265.11V54.832H261.75V53.872H260.79V40.936H261.75V39.976ZM253.95 43.96H250.638V48.304H253.95V43.96ZM265.59 61.84H247.374V60.88H246.414V55.024H247.374V54.064H250.758V55.024H251.718V57.616H265.59V58.576H266.55V60.88H265.59V61.84ZM280.631 60.904H269.663V59.944H268.703V40.936H269.663V39.976H273.095V40.936H274.055V56.32H280.631V57.28H281.591V59.944H280.631V60.904ZM284.495 39.976H287.951V40.936H288.863V47.992H290.423V48.856H291.143V51.784H290.423V52.648H288.863V60.88H287.951V61.84H284.495V60.88H283.559V40.936H284.495V39.976ZM295.071 53.272V44.488H292.023V43.528H291.063V40.936H292.023V39.976H303.975V40.936H304.959V43.528H303.975V44.488H300.951V53.272H301.911V54.28H302.967V55.384H304.071V56.56H305.103V59.992H304.191V61.024H301.311V59.992H300.351V58.984H299.415V58.048H298.599V57.184H297.543V58.048H296.727V58.984H295.791V59.992H294.831V61.024H291.831V59.992H290.919V56.56H291.951V55.384H293.055V54.28H294.111V53.272H295.071ZM310.791 39.976V40.936H311.703V47.992H313.263V48.856H313.983V51.784H313.263V52.648H311.703V60.88H310.791V61.84H307.335V60.88H306.399V40.936H307.335V39.976H310.791ZM331.783 48.04V48.784H317.671V48.04H316.615V47.32H315.679V46.528H314.815V42.208H315.631V41.44H316.495V40.696H317.455V39.976H331.951V40.696H332.959V41.44H333.823V42.208H334.639V46.528H333.775V47.32H332.839V48.04H331.783ZM328.783 45.472V44.896H329.599V43.84H328.783V43.264H320.671V43.84H319.855V44.896H320.671V45.472H328.783ZM313.927 52.504V50.488H314.743V49.672H334.711V50.488H335.527V52.504H334.711V53.32H314.743V52.504H313.927ZM314.911 55.168H315.799V54.256H333.655V55.168H334.543V60.928H333.655V61.84H315.799V60.928H314.911V55.168ZM329.335 58.552V57.544H320.119V58.552H329.335ZM336.767 40.936H337.751V39.976H346.055V40.936H347.015V47.872H348.479V40.936H349.343V39.976H351.935V40.936H352.823V60.88H351.935V61.84H349.343V60.88H348.479V52.48H347.015V59.944H346.055V60.904H337.751V59.944H336.767V40.936ZM358.199 60.88H357.335V61.84H354.719V60.88H353.831V40.936H354.719V39.976H357.335V40.936H358.199V60.88ZM342.935 44.392H340.871V56.464H342.935V44.392ZM375.592 54.376V55.192H369.424V54.28H368.488V53.416H367.576V52.576H366.712V51.76H365.68V52.576H364.864V54.064H363.904V55.024H360.88V54.064H359.92V49.48H360.784V48.52H361.744V47.632H362.776V46.816H368.944V47.728H369.88V48.592H370.792V49.456H371.656V50.272H372.688V49.456H373.504V47.968H374.464V47.008H377.488V47.968H378.448V52.528H377.584V53.512H376.624V54.376H375.592Z" fill="#FF6100"/>
</g>
<defs>
<clipPath id="clip0_39_6588">
<rect width="430" height="276" rx="6.71875" fill="white"/>
</clipPath>
</defs>
</svg>
