<svg width="149" height="122" viewBox="0 0 149 122" fill="none" xmlns="http://www.w3.org/2000/svg">
<path d="M32.9105 71.6581C22.5219 70.3755 4.57367 67.0877 1.11832 59.4752C0.609069 58.3553 0.635474 57.0614 1.18999 55.9301C5.36206 47.421 31.7336 42.1316 32.8539 41.9122L33.7555 41.7344V71.7603L32.9105 71.6544V71.6581Z" fill="#A8A8A8"/>
<path d="M33.0019 42.6581V70.9096C8.75039 67.9168 3.1147 62.0486 1.80575 59.1656C1.38703 58.2386 1.42098 57.1792 1.86987 56.2674C5.925 47.9966 33.0019 42.6581 33.0019 42.6581ZM34.5108 40.8193L32.7115 41.175C32.4323 41.2317 25.7706 42.556 18.4902 44.9244C8.42975 48.1972 2.38289 51.7915 0.515649 55.6015C-0.140716 56.9371 -0.170893 58.4656 0.432661 59.7936C1.54169 62.234 4.13697 64.4436 8.15061 66.3618C13.7712 69.0481 22.0701 71.0836 32.8171 72.4116L34.5108 72.6197V40.8193Z" fill="#A8A8A8"/>
<path d="M114.319 41.7388L115.22 41.9166C116.341 42.136 142.712 47.4254 146.884 55.9345C147.439 57.0658 147.465 58.3559 146.956 59.4796C143.5 67.092 125.556 70.3799 115.164 71.6625L114.319 71.7685V41.7426V41.7388Z" fill="#A8A8A8"/>
<path d="M115.073 42.6581C115.073 42.6581 142.15 47.9966 146.205 56.2674C146.654 57.1792 146.688 58.2386 146.269 59.1656C144.96 62.0486 139.325 67.9168 115.073 70.9096V42.6581ZM113.564 40.8193V72.6197L115.258 72.4116C126.005 71.0836 134.304 69.0481 139.924 66.3618C143.938 64.4436 146.533 62.234 147.642 59.7936C148.246 58.4656 148.216 56.9371 147.559 55.6015C145.692 51.7915 139.642 48.1972 129.585 44.9244C122.304 42.556 115.643 41.2317 115.364 41.175L113.564 40.8193Z" fill="#A8A8A8"/>
<path d="M63.1045 33.7882C63.1045 33.7882 59.5925 0.523562 52.365 0.792191C45.1374 0.519779 41.6255 33.7844 41.6255 33.7844H63.1045V33.7882Z" fill="#646464" stroke="#A8A8A8" stroke-width="1.58131" stroke-miterlimit="10"/>
<path d="M106.455 33.7886C106.455 33.7886 102.943 0.524051 95.7158 0.79268C88.4882 0.520267 84.9763 33.7849 84.9763 33.7849H106.455V33.7886Z" fill="#646464" stroke="#A8A8A8" stroke-width="1.58131" stroke-miterlimit="10"/>
<path d="M78.5433 119.129H69.5315C43.4692 119.129 22.1487 102.932 22.1487 77.836V69.1566C22.1487 44.0569 42.33 19.1841 68.3923 19.1841L79.6863 19.1841C105.748 19.1841 125.93 44.0606 125.93 69.1566V77.836C125.93 102.936 104.606 119.129 78.5471 119.129H78.5433Z" fill="white" stroke="#A8A8A8" stroke-width="1.58131" stroke-miterlimit="10"/>
<path fill-rule="evenodd" clip-rule="evenodd" d="M63.8942 56.2314C64.3566 55.7679 65.1071 55.7663 65.5709 56.2285C66.0346 56.6908 66.0359 57.4414 65.5738 57.9053L59.15 64.3476L65.5738 70.79C66.0361 71.2538 66.0344 72.0044 65.5709 72.4668C65.1071 72.9292 64.3566 72.9285 63.8942 72.4648L57.4762 66.0273L51.0582 72.4648C50.5957 72.9285 49.8453 72.9292 49.3815 72.4668C48.9177 72.0044 48.9162 71.2539 49.3785 70.79L55.8014 64.3476L49.3785 57.9053C48.9163 57.4414 48.9177 56.6909 49.3815 56.2285C49.8454 55.7665 50.5959 55.7677 51.0582 56.2314L57.4762 62.668L63.8942 56.2314Z" fill="#A8A8A8"/>
<path fill-rule="evenodd" clip-rule="evenodd" d="M98.5929 56.2272C99.0579 55.766 99.8084 55.7691 100.27 56.2341C100.731 56.6991 100.728 57.4497 100.263 57.9108L93.7706 64.3483L100.262 70.7858C100.727 71.2471 100.731 71.9985 100.27 72.4636C99.8084 72.9283 99.0569 72.9314 98.5919 72.4704L92.087 66.0182L85.5831 72.4704C85.1181 72.9314 84.3666 72.9283 83.9054 72.4636C83.4441 71.9985 83.4481 71.2471 83.9132 70.7858L90.4034 64.3483L83.9122 57.9108C83.4472 57.4497 83.4443 56.6991 83.9054 56.2341C84.3666 55.769 85.1171 55.766 85.5821 56.2272L92.087 62.6784L98.5929 56.2272Z" fill="#A8A8A8"/>
<path d="M113.399 95.6225C113.214 102.902 111.136 109.341 104.689 113.791C98.4309 118.271 87.8084 120.76 74.9036 120.79C62.0027 120.764 51.3763 118.271 45.1182 113.791C38.6715 109.341 36.5893 102.902 36.4082 95.6225C36.5893 88.343 38.6715 81.9035 45.1182 77.4541C51.3763 72.9744 61.9989 70.4849 74.8999 70.4546C87.8008 70.4811 98.4234 72.9744 104.681 77.4541C111.128 81.9035 113.21 88.343 113.392 95.6225H113.399Z" fill="#646464"/>
<path d="M113.399 95.6225C113.214 102.902 111.136 109.341 104.689 113.791C98.4309 118.271 87.8084 120.76 74.9036 120.79C62.0027 120.764 51.3763 118.271 45.1182 113.791C38.6715 109.341 36.5893 102.902 36.4082 95.6225C36.5893 88.343 38.6715 81.9035 45.1182 77.4541C51.3763 72.9744 61.9989 70.4849 74.8999 70.4546C87.8008 70.4811 98.4234 72.9744 104.681 77.4541C111.128 81.9035 113.21 88.343 113.392 95.6225H113.399Z" stroke="#A8A8A8" stroke-width="1.58131" stroke-miterlimit="10"/>
<path d="M60.3882 102.902V88.3428L74.9037 102.902L89.4191 88.3428V102.902" stroke="#A8A8A8" stroke-width="2.37197" stroke-linecap="round" stroke-linejoin="round"/>
</svg>
