<svg width="284" height="84" viewBox="0 0 284 84" fill="none" xmlns="http://www.w3.org/2000/svg">
<g filter="url(#filter0_d_39_7640)">
<mask id="path-1-outside-1_39_7640" maskUnits="userSpaceOnUse" x="4.39551" y="2.595" width="274" height="74" fill="black">
<rect fill="white" x="4.39551" y="2.595" width="274" height="74"/>
<path fill-rule="evenodd" clip-rule="evenodd" d="M193.011 45.0013C196.23 44.7168 199.665 44.8314 203.316 45.3441C205.901 45.7072 208.572 46.2953 211.327 47.1087C213.822 47.8468 215.669 49.1918 216.868 51.1439C218.106 53.1014 218.429 55.6291 217.839 58.7259C217.373 61.2196 216.634 63.4429 215.623 65.3949C214.65 67.3521 213.511 68.8402 212.204 69.8587C210.898 70.8772 209.56 71.2901 208.192 71.098C206.899 70.9164 205.811 70.2396 204.928 69.0687C204.078 67.9412 203.483 66.5201 203.142 64.805C202.839 63.0952 202.816 61.3275 203.073 59.5023C203.126 59.122 203.244 58.5568 203.427 57.807C200.208 58.3631 196.64 58.3658 192.723 57.8158C189.415 57.3511 186.698 56.5426 184.572 55.391C182.484 54.2448 181.552 52.8735 181.776 51.2767C182.021 49.5275 183.15 48.1149 185.162 47.0404C187.213 45.9711 189.829 45.2912 193.011 45.0013ZM234.705 58.8294C236.523 58.8294 237.959 59.4273 239.011 60.6224C240.063 61.7843 240.589 63.2615 240.589 65.054C240.589 66.747 240.015 68.1578 238.867 69.2865C237.719 70.4151 236.205 70.9797 234.323 70.9798C232.506 70.9798 231.07 70.3819 230.018 69.1869C228.966 68.025 228.44 66.5477 228.44 64.7552C228.44 63.0955 228.997 61.7012 230.114 60.5726C231.261 59.4108 232.792 58.8295 234.705 58.8294ZM267.106 58.8294C268.923 58.8294 270.358 59.4274 271.41 60.6224C272.463 61.7843 272.989 63.2615 272.99 65.054C272.99 66.7471 272.415 68.1578 271.267 69.2865C270.119 70.4151 268.604 70.9798 266.723 70.9798C264.905 70.9798 263.471 70.3819 262.418 69.1869C261.366 68.025 260.839 66.5478 260.839 64.7552C260.839 63.0954 261.398 61.7013 262.514 60.5726C263.662 59.4108 265.192 58.8294 267.106 58.8294ZM40.7473 51.2357C43.279 51.1225 45.5648 51.097 47.6047 51.1595C50.6439 51.2159 53.0028 51.9561 54.6809 53.3802C56.3972 54.8025 57.3145 56.8369 57.4329 59.4837C57.5169 61.3635 57.2508 63.1441 56.634 64.8246C56.019 66.5432 55.1197 67.9286 53.9368 68.9808C52.794 70.0696 51.4939 70.647 50.0364 70.7122C48.0416 70.8014 46.3219 70.1858 44.8791 68.8665C43.4366 67.5473 42.6675 65.8135 42.5715 63.6654C42.5595 63.3968 42.5779 62.9535 42.6272 62.3363C38.8253 63.275 34.757 63.8417 30.4221 64.0355C26.4327 64.2138 23.0974 63.9783 20.4163 63.3294C17.7369 62.7189 16.2873 61.6884 16.0686 60.2376C15.8414 58.595 16.8331 57.1286 19.0432 55.8382C21.2918 54.5461 24.3397 53.5061 28.1868 52.7191C32.0338 51.9321 36.2207 51.438 40.7473 51.2357ZM151.476 51.221C154.007 51.1001 156.294 51.068 158.334 51.1244C161.373 51.1715 163.734 51.9047 165.416 53.3236C167.137 54.7406 168.06 56.772 168.187 59.4183C168.277 61.2976 168.016 63.0789 167.405 64.7611C166.795 66.4817 165.9 67.8702 164.72 68.9261C163.58 70.0184 162.282 70.5996 160.824 70.6693C158.83 70.7645 157.109 70.1541 155.662 68.8392C154.216 67.5244 153.441 65.7935 153.338 63.6458C153.325 63.3774 153.342 62.934 153.39 62.3167C149.591 63.267 145.525 63.8451 141.191 64.0521C137.202 64.2426 133.865 64.018 131.182 63.3773C128.5 62.7749 127.048 61.7484 126.825 60.2982C126.593 58.6562 127.58 57.1871 129.786 55.89C132.031 54.591 135.076 53.5422 138.92 52.7435C142.765 51.9448 146.95 51.4372 151.476 51.221ZM250.906 57.4798C252.723 57.4798 254.159 58.0556 255.211 59.2064C256.263 60.3252 256.789 61.7479 256.789 63.474C256.789 65.104 256.215 66.4624 255.068 67.5492C253.92 68.636 252.404 69.18 250.523 69.18C248.705 69.18 247.27 68.6042 246.218 67.4535C245.166 66.3346 244.639 64.9121 244.639 63.1859C244.639 61.5875 245.198 60.2444 246.314 59.1576C247.462 58.0389 248.992 57.4799 250.906 57.4798ZM84.3381 40.0384C87.5229 39.4873 90.9555 39.3152 94.636 39.5228C97.243 39.6698 99.9535 40.0348 102.767 40.6165C105.314 41.1448 107.266 42.3315 108.623 44.1771C110.019 46.025 110.552 48.5167 110.221 51.6517C109.963 54.1756 109.412 56.4526 108.567 58.4818C107.76 60.5131 106.748 62.0906 105.531 63.2142C104.313 64.3378 103.014 64.8604 101.634 64.7826C100.331 64.709 99.1908 64.1258 98.2141 63.0326C97.2735 61.9795 96.5614 60.612 96.0793 58.931C95.6357 57.2523 95.4658 55.4928 95.5696 53.6527C95.5912 53.2693 95.6626 52.6963 95.7825 51.9339C92.6208 52.7556 89.0653 53.0551 85.1164 52.8324C81.781 52.6442 79.0057 52.0642 76.7913 51.0931C74.6154 50.1243 73.5727 48.835 73.6633 47.2249C73.7628 45.4613 74.7708 43.9601 76.6868 42.722C78.641 41.4862 81.1917 40.5917 84.3381 40.0384ZM146.611 31.4437C148.298 31.3631 149.828 32.001 151.199 33.3578C152.571 34.7147 153.421 36.4042 153.748 38.4261L153.847 39.2865C156.528 39.0815 158.387 38.9541 159.423 38.9046C163.872 38.6922 167.165 38.8236 169.302 39.2982C171.476 39.7326 172.594 40.6015 172.656 41.9056C172.783 44.5522 168.802 46.5303 160.714 47.8392C152.665 49.1462 144.881 49.9792 137.364 50.3382C132.032 50.5928 128.008 50.4578 125.292 49.9339C122.575 49.3718 121.181 48.3812 121.114 46.9622C121.04 45.428 122.577 44.1815 125.722 43.224C128.867 42.2665 133.822 41.3768 140.587 40.554L140.576 40.3236C140.529 40.1336 140.495 39.8275 140.475 39.4056C140.413 38.1016 140.641 36.8417 141.159 35.6253C141.678 34.4088 142.419 33.4308 143.383 32.6927C144.346 31.9163 145.422 31.5005 146.611 31.4437ZM35.9416 31.4427C37.6296 31.3673 39.1579 32.0103 40.5256 33.3714C41.8933 34.7325 42.7378 36.4248 43.0588 38.4476L43.1545 39.3079C45.8364 39.1112 47.6959 38.99 48.7317 38.9437C53.1814 38.7448 56.4741 38.8854 58.6096 39.3665C60.7818 39.8076 61.897 40.6804 61.9553 41.9847C62.0735 44.6316 58.0868 46.597 49.9954 47.8812C41.9424 49.1636 34.1566 49.9728 26.6379 50.3089C21.3058 50.5473 17.2821 50.4006 14.5676 49.8685C11.8517 49.2981 10.4614 48.3033 10.3977 46.8841C10.3291 45.3497 11.869 44.1084 15.0168 43.1605C18.1649 42.2126 23.1231 41.3367 29.8909 40.5345L29.8801 40.305C29.8332 40.115 29.8004 39.8088 29.7815 39.3871C29.7232 38.0828 29.9555 36.8227 30.4778 35.6078C31 34.3929 31.7447 33.418 32.7112 32.6829C33.6759 31.9096 34.7526 31.4959 35.9416 31.4427ZM190.916 13.5306C193.903 13.5235 196.518 13.6774 198.762 13.9925C204.314 14.7723 207.046 16.4366 206.96 18.9837C206.941 19.9502 206.335 20.8155 205.142 21.5785C203.992 22.3089 202.34 22.8904 200.185 23.3246C198.068 23.764 195.598 23.96 192.774 23.9124C193.285 24.4108 193.643 25.1786 193.846 26.2152C194.087 27.2573 194.131 28.3302 193.976 29.4329C193.874 30.1553 193.713 30.753 193.491 31.2259C194.826 30.5603 196.362 30.1172 198.099 29.8958C199.874 29.6799 201.617 29.6917 203.328 29.932C206.18 30.3325 208.186 31.2345 209.346 32.638C209.923 28.5312 211.017 24.6133 212.626 20.8841C214.241 17.1171 216.455 15.4314 219.269 15.8265C221.246 16.1042 222.558 17.2579 223.203 19.2874C223.854 21.2788 224.142 23.5099 224.067 25.9808C225.99 26.3673 227.474 27.1185 228.52 28.2347C229.603 29.3563 230.03 30.7353 229.8 32.3704C229.57 34.0052 228.745 35.1883 227.324 35.9193C225.909 36.6123 224.233 36.9396 222.3 36.9007C221.357 40.0254 220.165 42.4364 218.725 44.1341C217.284 45.8318 215.69 46.5584 213.941 46.3128C212.191 46.0672 210.967 45.1193 210.268 43.4701C209.574 41.783 209.187 39.848 209.106 37.6654C207.827 39.0368 205.758 40.103 202.898 40.8646C200.038 41.6262 197.025 42.095 193.86 42.2708C190.694 42.4467 188.065 42.3878 185.974 42.0941C183.654 41.7683 181.756 40.9206 180.281 39.5501C178.845 38.1851 178.114 36.6278 178.088 34.8792C178.07 34.1789 178.109 33.4864 178.205 32.8021C178.52 30.5585 179.347 28.5411 180.684 26.7513C182.064 24.929 183.908 23.6758 186.214 22.9915C183.77 22.7258 181.886 22.1901 180.565 21.3841C179.281 20.5835 178.725 19.5744 178.896 18.3578C179.147 16.5705 180.466 15.3204 182.854 14.6087C185.285 13.8644 187.973 13.505 190.916 13.5306ZM79.636 8.85092C82.6117 8.59573 85.2305 8.53096 87.4924 8.65854C93.0897 8.97425 95.9515 10.4052 96.0774 12.9505C96.1383 13.9155 95.606 14.8283 94.4807 15.6878C93.3958 16.5112 91.7972 17.2285 89.6858 17.8402C87.6128 18.454 85.167 18.8551 82.3489 19.0423C82.9001 19.4965 83.3208 20.2312 83.6096 21.2474C83.9368 22.2658 84.0688 23.331 84.0061 24.4427C83.965 25.171 83.8535 25.7802 83.6721 26.2699C84.9465 25.4956 86.4408 24.9268 88.1536 24.5619C89.9045 24.1992 91.6424 24.0662 93.3674 24.1634C96.2429 24.3256 98.3174 25.0581 99.5901 26.3607C99.8236 22.2201 100.587 18.2244 101.881 14.3744C103.177 10.486 105.244 8.62159 108.081 8.78158C110.075 8.89403 111.478 9.9348 112.29 11.9037C113.104 13.8342 113.576 16.0344 113.706 18.5033C115.655 18.7286 117.197 19.3538 118.331 20.3792C119.504 21.4069 120.043 22.7455 119.95 24.3939C119.857 26.0422 119.133 27.2895 117.778 28.1361C116.424 28.9443 114.783 29.4097 112.853 29.5316C112.173 32.7238 111.186 35.2259 109.892 37.0374C108.597 38.849 107.068 39.7053 105.304 39.6058C103.541 39.5062 102.242 38.6637 101.408 37.0785C100.577 35.4548 100.03 33.5584 99.7678 31.39C98.6078 32.8629 96.6337 34.0975 93.8469 35.0941C91.0602 36.0906 88.097 36.8082 84.9573 37.2464C81.8174 37.6847 79.1928 37.8438 77.0842 37.7249C74.7455 37.593 72.7841 36.9056 71.2004 35.6624C69.6551 34.4215 68.7963 32.9311 68.6252 31.1908C68.5491 30.4942 68.5307 29.8008 68.5696 29.1107C68.6972 26.8487 69.3536 24.7701 70.5373 22.8753C71.7616 20.9446 73.4943 19.5428 75.7356 18.6693C73.2778 18.6076 71.3568 18.2298 69.9729 17.5365C68.6273 16.8452 67.9887 15.8854 68.0579 14.6585C68.1596 12.8569 69.3708 11.5026 71.6907 10.5951C74.0516 9.65131 76.7006 9.06996 79.636 8.85092ZM145.912 11.9857C149.096 11.8337 152.354 12.8507 155.688 15.0365C159.06 17.2205 161.88 19.9118 164.147 23.1097C166.45 26.2673 167.659 29.0547 167.775 31.471C167.842 32.89 167.493 34.0024 166.724 34.8079C165.882 35.6939 164.789 36.1686 163.447 36.2328C161.797 36.3114 159.908 35.8062 157.781 34.7162C155.653 33.626 153.603 32.1662 151.632 30.3382C149.661 28.5102 148.071 26.606 146.862 24.6263C145.963 26.7451 144.416 28.9532 142.219 31.2494C140.059 33.5053 137.708 35.4049 135.167 36.9486C132.627 38.4923 130.417 39.309 128.537 39.3988C127.54 39.4464 126.685 39.2567 125.973 38.8294C124.625 37.9712 123.907 36.6216 123.819 34.7806C123.694 32.1724 124.72 29.0866 126.895 25.5228C129.068 21.9206 131.879 18.8071 135.329 16.182C138.818 13.555 142.345 12.156 145.912 11.9857ZM35.303 11.9828C38.4869 11.8405 41.7427 12.8678 45.0696 15.0638C48.4348 17.2581 51.2459 19.9577 53.5032 23.1624C55.7971 26.3271 56.9986 29.1178 57.1067 31.5345C57.1701 32.9539 56.8155 34.0653 56.0442 34.8685C55.1997 35.7518 54.1064 36.2235 52.7639 36.2835C51.1144 36.3573 49.2273 35.8458 47.1028 34.7494C44.9782 33.6528 42.9324 32.1878 40.967 30.3538C39.0017 28.5199 37.4175 26.6106 36.2141 24.6273C35.3093 26.7434 33.7549 28.9462 31.551 31.2357C29.3837 33.4851 27.0268 35.3774 24.4817 36.9134C21.9367 38.4493 19.7246 39.26 17.845 39.3441C16.8476 39.3887 15.9926 39.1954 15.2815 38.766C13.9364 37.9036 13.2222 36.5514 13.1399 34.7103C13.0234 32.1018 14.0588 29.0192 16.2444 25.4622C18.4284 21.8668 21.2494 18.7614 24.7073 16.1468C28.2034 13.5306 31.7354 12.1422 35.303 11.9828Z"/>
</mask>
<path fill-rule="evenodd" clip-rule="evenodd" d="M193.011 45.0013C196.23 44.7168 199.665 44.8314 203.316 45.3441C205.901 45.7072 208.572 46.2953 211.327 47.1087C213.822 47.8468 215.669 49.1918 216.868 51.1439C218.106 53.1014 218.429 55.6291 217.839 58.7259C217.373 61.2196 216.634 63.4429 215.623 65.3949C214.65 67.3521 213.511 68.8402 212.204 69.8587C210.898 70.8772 209.56 71.2901 208.192 71.098C206.899 70.9164 205.811 70.2396 204.928 69.0687C204.078 67.9412 203.483 66.5201 203.142 64.805C202.839 63.0952 202.816 61.3275 203.073 59.5023C203.126 59.122 203.244 58.5568 203.427 57.807C200.208 58.3631 196.64 58.3658 192.723 57.8158C189.415 57.3511 186.698 56.5426 184.572 55.391C182.484 54.2448 181.552 52.8735 181.776 51.2767C182.021 49.5275 183.15 48.1149 185.162 47.0404C187.213 45.9711 189.829 45.2912 193.011 45.0013ZM234.705 58.8294C236.523 58.8294 237.959 59.4273 239.011 60.6224C240.063 61.7843 240.589 63.2615 240.589 65.054C240.589 66.747 240.015 68.1578 238.867 69.2865C237.719 70.4151 236.205 70.9797 234.323 70.9798C232.506 70.9798 231.07 70.3819 230.018 69.1869C228.966 68.025 228.44 66.5477 228.44 64.7552C228.44 63.0955 228.997 61.7012 230.114 60.5726C231.261 59.4108 232.792 58.8295 234.705 58.8294ZM267.106 58.8294C268.923 58.8294 270.358 59.4274 271.41 60.6224C272.463 61.7843 272.989 63.2615 272.99 65.054C272.99 66.7471 272.415 68.1578 271.267 69.2865C270.119 70.4151 268.604 70.9798 266.723 70.9798C264.905 70.9798 263.471 70.3819 262.418 69.1869C261.366 68.025 260.839 66.5478 260.839 64.7552C260.839 63.0954 261.398 61.7013 262.514 60.5726C263.662 59.4108 265.192 58.8294 267.106 58.8294ZM40.7473 51.2357C43.279 51.1225 45.5648 51.097 47.6047 51.1595C50.6439 51.2159 53.0028 51.9561 54.6809 53.3802C56.3972 54.8025 57.3145 56.8369 57.4329 59.4837C57.5169 61.3635 57.2508 63.1441 56.634 64.8246C56.019 66.5432 55.1197 67.9286 53.9368 68.9808C52.794 70.0696 51.4939 70.647 50.0364 70.7122C48.0416 70.8014 46.3219 70.1858 44.8791 68.8665C43.4366 67.5473 42.6675 65.8135 42.5715 63.6654C42.5595 63.3968 42.5779 62.9535 42.6272 62.3363C38.8253 63.275 34.757 63.8417 30.4221 64.0355C26.4327 64.2138 23.0974 63.9783 20.4163 63.3294C17.7369 62.7189 16.2873 61.6884 16.0686 60.2376C15.8414 58.595 16.8331 57.1286 19.0432 55.8382C21.2918 54.5461 24.3397 53.5061 28.1868 52.7191C32.0338 51.9321 36.2207 51.438 40.7473 51.2357ZM151.476 51.221C154.007 51.1001 156.294 51.068 158.334 51.1244C161.373 51.1715 163.734 51.9047 165.416 53.3236C167.137 54.7406 168.06 56.772 168.187 59.4183C168.277 61.2976 168.016 63.0789 167.405 64.7611C166.795 66.4817 165.9 67.8702 164.72 68.9261C163.58 70.0184 162.282 70.5996 160.824 70.6693C158.83 70.7645 157.109 70.1541 155.662 68.8392C154.216 67.5244 153.441 65.7935 153.338 63.6458C153.325 63.3774 153.342 62.934 153.39 62.3167C149.591 63.267 145.525 63.8451 141.191 64.0521C137.202 64.2426 133.865 64.018 131.182 63.3773C128.5 62.7749 127.048 61.7484 126.825 60.2982C126.593 58.6562 127.58 57.1871 129.786 55.89C132.031 54.591 135.076 53.5422 138.92 52.7435C142.765 51.9448 146.95 51.4372 151.476 51.221ZM250.906 57.4798C252.723 57.4798 254.159 58.0556 255.211 59.2064C256.263 60.3252 256.789 61.7479 256.789 63.474C256.789 65.104 256.215 66.4624 255.068 67.5492C253.92 68.636 252.404 69.18 250.523 69.18C248.705 69.18 247.27 68.6042 246.218 67.4535C245.166 66.3346 244.639 64.9121 244.639 63.1859C244.639 61.5875 245.198 60.2444 246.314 59.1576C247.462 58.0389 248.992 57.4799 250.906 57.4798ZM84.3381 40.0384C87.5229 39.4873 90.9555 39.3152 94.636 39.5228C97.243 39.6698 99.9535 40.0348 102.767 40.6165C105.314 41.1448 107.266 42.3315 108.623 44.1771C110.019 46.025 110.552 48.5167 110.221 51.6517C109.963 54.1756 109.412 56.4526 108.567 58.4818C107.76 60.5131 106.748 62.0906 105.531 63.2142C104.313 64.3378 103.014 64.8604 101.634 64.7826C100.331 64.709 99.1908 64.1258 98.2141 63.0326C97.2735 61.9795 96.5614 60.612 96.0793 58.931C95.6357 57.2523 95.4658 55.4928 95.5696 53.6527C95.5912 53.2693 95.6626 52.6963 95.7825 51.9339C92.6208 52.7556 89.0653 53.0551 85.1164 52.8324C81.781 52.6442 79.0057 52.0642 76.7913 51.0931C74.6154 50.1243 73.5727 48.835 73.6633 47.2249C73.7628 45.4613 74.7708 43.9601 76.6868 42.722C78.641 41.4862 81.1917 40.5917 84.3381 40.0384ZM146.611 31.4437C148.298 31.3631 149.828 32.001 151.199 33.3578C152.571 34.7147 153.421 36.4042 153.748 38.4261L153.847 39.2865C156.528 39.0815 158.387 38.9541 159.423 38.9046C163.872 38.6922 167.165 38.8236 169.302 39.2982C171.476 39.7326 172.594 40.6015 172.656 41.9056C172.783 44.5522 168.802 46.5303 160.714 47.8392C152.665 49.1462 144.881 49.9792 137.364 50.3382C132.032 50.5928 128.008 50.4578 125.292 49.9339C122.575 49.3718 121.181 48.3812 121.114 46.9622C121.04 45.428 122.577 44.1815 125.722 43.224C128.867 42.2665 133.822 41.3768 140.587 40.554L140.576 40.3236C140.529 40.1336 140.495 39.8275 140.475 39.4056C140.413 38.1016 140.641 36.8417 141.159 35.6253C141.678 34.4088 142.419 33.4308 143.383 32.6927C144.346 31.9163 145.422 31.5005 146.611 31.4437ZM35.9416 31.4427C37.6296 31.3673 39.1579 32.0103 40.5256 33.3714C41.8933 34.7325 42.7378 36.4248 43.0588 38.4476L43.1545 39.3079C45.8364 39.1112 47.6959 38.99 48.7317 38.9437C53.1814 38.7448 56.4741 38.8854 58.6096 39.3665C60.7818 39.8076 61.897 40.6804 61.9553 41.9847C62.0735 44.6316 58.0868 46.597 49.9954 47.8812C41.9424 49.1636 34.1566 49.9728 26.6379 50.3089C21.3058 50.5473 17.2821 50.4006 14.5676 49.8685C11.8517 49.2981 10.4614 48.3033 10.3977 46.8841C10.3291 45.3497 11.869 44.1084 15.0168 43.1605C18.1649 42.2126 23.1231 41.3367 29.8909 40.5345L29.8801 40.305C29.8332 40.115 29.8004 39.8088 29.7815 39.3871C29.7232 38.0828 29.9555 36.8227 30.4778 35.6078C31 34.3929 31.7447 33.418 32.7112 32.6829C33.6759 31.9096 34.7526 31.4959 35.9416 31.4427ZM190.916 13.5306C193.903 13.5235 196.518 13.6774 198.762 13.9925C204.314 14.7723 207.046 16.4366 206.96 18.9837C206.941 19.9502 206.335 20.8155 205.142 21.5785C203.992 22.3089 202.34 22.8904 200.185 23.3246C198.068 23.764 195.598 23.96 192.774 23.9124C193.285 24.4108 193.643 25.1786 193.846 26.2152C194.087 27.2573 194.131 28.3302 193.976 29.4329C193.874 30.1553 193.713 30.753 193.491 31.2259C194.826 30.5603 196.362 30.1172 198.099 29.8958C199.874 29.6799 201.617 29.6917 203.328 29.932C206.18 30.3325 208.186 31.2345 209.346 32.638C209.923 28.5312 211.017 24.6133 212.626 20.8841C214.241 17.1171 216.455 15.4314 219.269 15.8265C221.246 16.1042 222.558 17.2579 223.203 19.2874C223.854 21.2788 224.142 23.5099 224.067 25.9808C225.99 26.3673 227.474 27.1185 228.52 28.2347C229.603 29.3563 230.03 30.7353 229.8 32.3704C229.57 34.0052 228.745 35.1883 227.324 35.9193C225.909 36.6123 224.233 36.9396 222.3 36.9007C221.357 40.0254 220.165 42.4364 218.725 44.1341C217.284 45.8318 215.69 46.5584 213.941 46.3128C212.191 46.0672 210.967 45.1193 210.268 43.4701C209.574 41.783 209.187 39.848 209.106 37.6654C207.827 39.0368 205.758 40.103 202.898 40.8646C200.038 41.6262 197.025 42.095 193.86 42.2708C190.694 42.4467 188.065 42.3878 185.974 42.0941C183.654 41.7683 181.756 40.9206 180.281 39.5501C178.845 38.1851 178.114 36.6278 178.088 34.8792C178.07 34.1789 178.109 33.4864 178.205 32.8021C178.52 30.5585 179.347 28.5411 180.684 26.7513C182.064 24.929 183.908 23.6758 186.214 22.9915C183.77 22.7258 181.886 22.1901 180.565 21.3841C179.281 20.5835 178.725 19.5744 178.896 18.3578C179.147 16.5705 180.466 15.3204 182.854 14.6087C185.285 13.8644 187.973 13.505 190.916 13.5306ZM79.636 8.85092C82.6117 8.59573 85.2305 8.53096 87.4924 8.65854C93.0897 8.97425 95.9515 10.4052 96.0774 12.9505C96.1383 13.9155 95.606 14.8283 94.4807 15.6878C93.3958 16.5112 91.7972 17.2285 89.6858 17.8402C87.6128 18.454 85.167 18.8551 82.3489 19.0423C82.9001 19.4965 83.3208 20.2312 83.6096 21.2474C83.9368 22.2658 84.0688 23.331 84.0061 24.4427C83.965 25.171 83.8535 25.7802 83.6721 26.2699C84.9465 25.4956 86.4408 24.9268 88.1536 24.5619C89.9045 24.1992 91.6424 24.0662 93.3674 24.1634C96.2429 24.3256 98.3174 25.0581 99.5901 26.3607C99.8236 22.2201 100.587 18.2244 101.881 14.3744C103.177 10.486 105.244 8.62159 108.081 8.78158C110.075 8.89403 111.478 9.9348 112.29 11.9037C113.104 13.8342 113.576 16.0344 113.706 18.5033C115.655 18.7286 117.197 19.3538 118.331 20.3792C119.504 21.4069 120.043 22.7455 119.95 24.3939C119.857 26.0422 119.133 27.2895 117.778 28.1361C116.424 28.9443 114.783 29.4097 112.853 29.5316C112.173 32.7238 111.186 35.2259 109.892 37.0374C108.597 38.849 107.068 39.7053 105.304 39.6058C103.541 39.5062 102.242 38.6637 101.408 37.0785C100.577 35.4548 100.03 33.5584 99.7678 31.39C98.6078 32.8629 96.6337 34.0975 93.8469 35.0941C91.0602 36.0906 88.097 36.8082 84.9573 37.2464C81.8174 37.6847 79.1928 37.8438 77.0842 37.7249C74.7455 37.593 72.7841 36.9056 71.2004 35.6624C69.6551 34.4215 68.7963 32.9311 68.6252 31.1908C68.5491 30.4942 68.5307 29.8008 68.5696 29.1107C68.6972 26.8487 69.3536 24.7701 70.5373 22.8753C71.7616 20.9446 73.4943 19.5428 75.7356 18.6693C73.2778 18.6076 71.3568 18.2298 69.9729 17.5365C68.6273 16.8452 67.9887 15.8854 68.0579 14.6585C68.1596 12.8569 69.3708 11.5026 71.6907 10.5951C74.0516 9.65131 76.7006 9.06996 79.636 8.85092ZM145.912 11.9857C149.096 11.8337 152.354 12.8507 155.688 15.0365C159.06 17.2205 161.88 19.9118 164.147 23.1097C166.45 26.2673 167.659 29.0547 167.775 31.471C167.842 32.89 167.493 34.0024 166.724 34.8079C165.882 35.6939 164.789 36.1686 163.447 36.2328C161.797 36.3114 159.908 35.8062 157.781 34.7162C155.653 33.626 153.603 32.1662 151.632 30.3382C149.661 28.5102 148.071 26.606 146.862 24.6263C145.963 26.7451 144.416 28.9532 142.219 31.2494C140.059 33.5053 137.708 35.4049 135.167 36.9486C132.627 38.4923 130.417 39.309 128.537 39.3988C127.54 39.4464 126.685 39.2567 125.973 38.8294C124.625 37.9712 123.907 36.6216 123.819 34.7806C123.694 32.1724 124.72 29.0866 126.895 25.5228C129.068 21.9206 131.879 18.8071 135.329 16.182C138.818 13.555 142.345 12.156 145.912 11.9857ZM35.303 11.9828C38.4869 11.8405 41.7427 12.8678 45.0696 15.0638C48.4348 17.2581 51.2459 19.9577 53.5032 23.1624C55.7971 26.3271 56.9986 29.1178 57.1067 31.5345C57.1701 32.9539 56.8155 34.0653 56.0442 34.8685C55.1997 35.7518 54.1064 36.2235 52.7639 36.2835C51.1144 36.3573 49.2273 35.8458 47.1028 34.7494C44.9782 33.6528 42.9324 32.1878 40.967 30.3538C39.0017 28.5199 37.4175 26.6106 36.2141 24.6273C35.3093 26.7434 33.7549 28.9462 31.551 31.2357C29.3837 33.4851 27.0268 35.3774 24.4817 36.9134C21.9367 38.4493 19.7246 39.26 17.845 39.3441C16.8476 39.3887 15.9926 39.1954 15.2815 38.766C13.9364 37.9036 13.2222 36.5514 13.1399 34.7103C13.0234 32.1018 14.0588 29.0192 16.2444 25.4622C18.4284 21.8668 21.2494 18.7614 24.7073 16.1468C28.2034 13.5306 31.7354 12.1422 35.303 11.9828Z" fill="black"/>
<path d="M193.011 45.0013L192.536 39.6223L192.528 39.6229L192.521 39.6236L193.011 45.0013ZM203.316 45.3441L204.067 39.9966L204.067 39.9966L203.316 45.3441ZM211.327 47.1087L212.86 41.9307L212.856 41.9297L211.327 47.1087ZM216.868 51.1439L212.267 53.9707L212.285 54.0001L212.304 54.0292L216.868 51.1439ZM217.839 58.7259L212.535 57.7152L212.533 57.724L212.531 57.7328L217.839 58.7259ZM215.623 65.3949L210.828 62.9115L210.808 62.9512L210.788 62.9913L215.623 65.3949ZM212.204 69.8587L215.525 74.1172L215.525 74.1172L212.204 69.8587ZM208.192 71.098L207.441 76.4455L207.441 76.4456L208.192 71.098ZM204.928 69.0687L200.616 72.3187L200.616 72.3189L204.928 69.0687ZM203.142 64.805L197.825 65.7464L197.834 65.802L197.845 65.8573L203.142 64.805ZM203.073 59.5023L197.725 58.7513L197.725 58.7513L203.073 59.5023ZM203.427 57.807L208.673 59.0864L210.625 51.0835L202.508 52.4858L203.427 57.807ZM192.723 57.8158L191.972 63.1633L191.972 63.1633L192.723 57.8158ZM184.572 55.391L181.973 60.1245L181.986 60.1318L182 60.1391L184.572 55.391ZM181.776 51.2767L176.428 50.5257L176.428 50.5265L181.776 51.2767ZM185.162 47.0404L182.665 42.2524L182.642 42.2646L182.618 42.2771L185.162 47.0404ZM234.705 58.8294V53.4294H234.705L234.705 58.8294ZM239.011 60.6224L234.958 64.1911L234.983 64.2194L235.009 64.2474L239.011 60.6224ZM240.589 65.054H245.989V65.054L240.589 65.054ZM238.867 69.2865L242.653 73.1371L242.653 73.137L238.867 69.2865ZM234.323 70.9798V76.3798H234.324L234.323 70.9798ZM230.018 69.1869L234.071 65.6181L234.046 65.5899L234.02 65.5619L230.018 69.1869ZM228.44 64.7552L223.04 64.7551V64.7552H228.44ZM230.114 60.5726L233.953 64.3696L233.955 64.368L230.114 60.5726ZM267.106 58.8294V53.4294V53.4294V58.8294ZM271.41 60.6224L267.358 64.1913L267.383 64.2196L267.408 64.2475L271.41 60.6224ZM272.99 65.054H278.389V65.054L272.99 65.054ZM271.267 69.2865L275.053 73.1372L275.053 73.1371L271.267 69.2865ZM266.723 70.9798L266.723 76.3798H266.723V70.9798ZM262.418 69.1869L266.471 65.6181L266.446 65.5898L266.421 65.5618L262.418 69.1869ZM260.839 64.7552L255.439 64.7551V64.7552H260.839ZM262.514 60.5726L266.354 64.3696L266.355 64.3682L262.514 60.5726ZM40.7473 51.2357L40.5062 45.8411H40.5062L40.7473 51.2357ZM47.6047 51.1595L47.4392 56.557L47.4719 56.558L47.5046 56.5586L47.6047 51.1595ZM54.6809 53.3802L51.1868 57.4974L51.2109 57.5179L51.2353 57.5381L54.6809 53.3802ZM57.4329 59.4837L62.8275 59.2426L62.8275 59.2425L57.4329 59.4837ZM56.634 64.8246L51.5647 62.9639L51.5572 62.9844L51.5498 63.005L56.634 64.8246ZM53.9368 68.9808L50.3478 64.946L50.2788 65.0074L50.2119 65.0711L53.9368 68.9808ZM50.0364 70.7122L50.2775 76.1069L50.2779 76.1068L50.0364 70.7122ZM44.8791 68.8665L41.2349 72.8514L41.2351 72.8516L44.8791 68.8665ZM42.5715 63.6654L37.1769 63.9065V63.9065L42.5715 63.6654ZM42.6272 62.3363L48.0101 62.7661L48.6064 55.2978L41.3328 57.0937L42.6272 62.3363ZM30.4221 64.0355L30.6632 69.4301H30.6632L30.4221 64.0355ZM20.4163 63.3294L21.6864 58.0809L21.6512 58.0724L21.6159 58.0644L20.4163 63.3294ZM16.0686 60.2376L10.7195 60.9774L10.724 61.01L10.7289 61.0426L16.0686 60.2376ZM19.0432 55.8382L16.3527 51.1562L16.3366 51.1655L16.3205 51.1749L19.0432 55.8382ZM28.1868 52.7191L27.1045 47.4286H27.1045L28.1868 52.7191ZM151.476 51.221L151.218 45.8272H151.218L151.476 51.221ZM158.334 51.1244L158.185 56.5223L158.218 56.5232L158.25 56.5237L158.334 51.1244ZM165.416 53.3236L161.935 57.4514L161.959 57.4718L161.983 57.4919L165.416 53.3236ZM168.187 59.4183L173.581 59.1607V59.1605L168.187 59.4183ZM167.405 64.7611L162.33 62.916L162.322 62.9366L162.315 62.9572L167.405 64.7611ZM164.72 68.9261L161.119 64.9023L161.05 64.964L160.983 65.0279L164.72 68.9261ZM160.824 70.6693L161.082 76.0631L161.082 76.0631L160.824 70.6693ZM155.662 68.8392L152.03 72.8353L152.03 72.8354L155.662 68.8392ZM153.338 63.6458L147.944 63.9034L147.944 63.9036L153.338 63.6458ZM153.39 62.3167L158.774 62.7301L159.348 55.2601L152.08 57.0781L153.39 62.3167ZM141.191 64.0521L141.448 69.4459L141.448 69.4459L141.191 64.0521ZM131.182 63.3773L132.436 58.125L132.401 58.1165L132.366 58.1086L131.182 63.3773ZM126.825 60.2982L121.479 61.0542L121.483 61.0866L121.488 61.119L126.825 60.2982ZM129.786 55.89L127.082 51.2162L127.066 51.2255L127.049 51.2349L129.786 55.89ZM138.92 52.7435L137.822 47.4564V47.4564L138.92 52.7435ZM250.906 57.4798V52.0798H250.905L250.906 57.4798ZM255.211 59.2064L251.226 62.8505L251.252 62.8783L251.277 62.9057L255.211 59.2064ZM256.789 63.474L262.189 63.4743V63.474H256.789ZM255.068 67.5492L258.78 71.4705L258.78 71.4703L255.068 67.5492ZM250.523 69.18L250.523 74.58H250.523V69.18ZM246.218 67.4535L250.203 63.8093L250.177 63.7814L250.151 63.7537L246.218 67.4535ZM244.639 63.1859L239.239 63.1859V63.1859H244.639ZM246.314 59.1576L250.081 63.0263L250.082 63.025L246.314 59.1576ZM84.3381 40.0384L83.4174 34.7175L83.4102 34.7187L83.403 34.72L84.3381 40.0384ZM94.636 39.5228L94.9401 34.1314V34.1314L94.636 39.5228ZM102.767 40.6165L103.864 35.3291L103.86 35.3284L102.767 40.6165ZM108.623 44.1771L104.273 47.3764L104.294 47.4042L104.314 47.4317L108.623 44.1771ZM110.221 51.6517L104.851 51.0854L104.85 51.0942L104.849 51.1031L110.221 51.6517ZM108.567 58.4818L103.582 56.4055L103.565 56.4468L103.548 56.4883L108.567 58.4818ZM105.531 63.2142L109.193 67.182L109.193 67.182L105.531 63.2142ZM101.634 64.7826L101.33 70.174L101.33 70.174L101.634 64.7826ZM98.2141 63.0326L94.1868 66.6298L94.187 66.6301L98.2141 63.0326ZM96.0793 58.931L90.8586 60.3109L90.873 60.3654L90.8886 60.4197L96.0793 58.931ZM95.5696 53.6527L90.1781 53.3486L90.1781 53.3486L95.5696 53.6527ZM95.7825 51.9339L101.117 52.773L102.397 44.6356L94.4242 46.7075L95.7825 51.9339ZM85.1164 52.8324L84.8124 58.2238L84.8124 58.2238L85.1164 52.8324ZM76.7913 51.0931L74.5948 56.0262L74.6087 56.0324L74.6227 56.0385L76.7913 51.0931ZM73.6633 47.2249L68.2719 46.9208L68.2719 46.9213L73.6633 47.2249ZM76.6868 42.722L73.8006 38.158L73.7782 38.1722L73.756 38.1865L76.6868 42.722ZM146.611 31.4437L146.353 26.0498L146.353 26.0498L146.611 31.4437ZM151.199 33.3578L154.997 29.5185L154.997 29.5184L151.199 33.3578ZM153.748 38.4261L159.113 37.8111L159.099 37.6869L159.079 37.5634L153.748 38.4261ZM153.847 39.2865L148.482 39.9015L149.074 45.067L154.258 44.6708L153.847 39.2865ZM159.423 38.9046L159.166 33.5108L159.166 33.5108L159.423 38.9046ZM169.302 39.2982L168.131 44.5698L168.187 44.5822L168.244 44.5935L169.302 39.2982ZM172.656 41.9056L178.05 41.648V41.648L172.656 41.9056ZM160.714 47.8392L159.851 42.5086L159.849 42.509L160.714 47.8392ZM137.364 50.3382L137.621 55.7321V55.7321L137.364 50.3382ZM125.292 49.9339L124.198 55.222L124.234 55.2293L124.27 55.2362L125.292 49.9339ZM121.114 46.9622L115.72 47.2198L115.72 47.2206L121.114 46.9622ZM125.722 43.224L124.149 38.058L124.149 38.0581L125.722 43.224ZM140.587 40.554L141.239 45.9145L146.215 45.3094L145.981 40.3026L140.587 40.554ZM140.576 40.3236L145.971 40.0722L145.946 39.5349L145.815 39.0132L140.576 40.3236ZM140.475 39.4056L135.081 39.6631V39.6632L140.475 39.4056ZM141.159 35.6253L136.192 33.5078L136.192 33.508L141.159 35.6253ZM143.383 32.6927L146.665 36.9809L146.72 36.939L146.773 36.8957L143.383 32.6927ZM35.9416 31.4427L35.7005 26.0481L35.7003 26.0481L35.9416 31.4427ZM40.5256 33.3714L44.3348 29.5438L44.3347 29.5437L40.5256 33.3714ZM43.0588 38.4476L48.4257 37.8506L48.4118 37.7255L48.3921 37.6012L43.0588 38.4476ZM43.1545 39.3079L37.7876 39.9049L38.3626 45.074L43.5496 44.6935L43.1545 39.3079ZM48.7317 38.9437L48.4906 33.5491H48.4906L48.7317 38.9437ZM58.6096 39.3665L57.4228 44.6345L57.4789 44.6471L57.5351 44.6586L58.6096 39.3665ZM61.9553 41.9847L67.3499 41.7438L67.3499 41.7436L61.9553 41.9847ZM49.9954 47.8812L49.1489 42.5479L49.1461 42.5484L49.9954 47.8812ZM26.6379 50.3089L26.8791 55.7035H26.8791L26.6379 50.3089ZM14.5676 49.8685L13.4577 55.1532L13.4932 55.1607L13.5289 55.1677L14.5676 49.8685ZM10.3977 46.8841L5.00309 47.1253L5.00313 47.1262L10.3977 46.8841ZM15.0168 43.1605L13.4599 37.9898L13.4598 37.9898L15.0168 43.1605ZM29.8909 40.5345L30.5265 45.897L35.5201 45.3051L35.285 40.282L29.8909 40.5345ZM29.8801 40.305L35.2742 40.0525L35.2495 39.5241L35.1227 39.0106L29.8801 40.305ZM29.7815 39.3871L24.3869 39.6282L24.3869 39.6283L29.7815 39.3871ZM30.4778 35.6078L25.5168 33.4751L25.5167 33.4751L30.4778 35.6078ZM32.7112 32.6829L35.9801 36.9811L36.0349 36.9394L36.0887 36.8963L32.7112 32.6829ZM190.916 13.5306L190.869 18.9304L190.899 18.9307L190.929 18.9306L190.916 13.5306ZM198.762 13.9925L199.513 8.64501L199.513 8.645L198.762 13.9925ZM206.96 18.9837L201.563 18.8009L201.562 18.8376L201.561 18.8743L206.96 18.9837ZM205.142 21.5785L208.038 26.1362L208.045 26.1318L208.052 26.1273L205.142 21.5785ZM200.185 23.3246L199.118 18.0309L199.103 18.034L199.087 18.0373L200.185 23.3246ZM192.774 23.9124L192.865 18.5132L179.258 18.2839L189.005 27.7804L192.774 23.9124ZM193.846 26.2152L188.547 27.2548L188.565 27.3447L188.585 27.4339L193.846 26.2152ZM193.976 29.4329L199.323 30.1841L199.323 30.184L193.976 29.4329ZM193.491 31.2259L188.601 28.9356L182.023 42.9819L195.902 36.058L193.491 31.2259ZM198.099 29.8958L197.447 24.5354L197.432 24.5372L197.416 24.5391L198.099 29.8958ZM203.328 29.932L204.079 24.5845L204.079 24.5845L203.328 29.932ZM209.346 32.638L205.184 36.0783L212.989 45.5221L214.693 33.3891L209.346 32.638ZM212.626 20.8841L217.584 23.0239L217.589 23.0117L212.626 20.8841ZM219.269 15.8265L220.02 10.479L220.02 10.479L219.269 15.8265ZM223.203 19.2874L218.057 20.9244L218.064 20.9448L218.071 20.9651L223.203 19.2874ZM224.067 25.9808L218.669 25.8157L218.53 30.3762L223.003 31.275L224.067 25.9808ZM228.52 28.2347L224.578 31.9258L224.607 31.9563L224.636 31.9863L228.52 28.2347ZM229.8 32.3704L235.148 33.1219L235.148 33.1215L229.8 32.3704ZM227.324 35.9193L229.699 40.7693L229.747 40.7456L229.795 40.721L227.324 35.9193ZM222.3 36.9007L222.409 31.5018L218.314 31.4195L217.13 35.3406L222.3 36.9007ZM218.725 44.1341L222.842 47.6278V47.6278L218.725 44.1341ZM213.941 46.3128L213.19 51.6604L213.19 51.6604L213.941 46.3128ZM210.268 43.4701L205.273 45.5233L205.285 45.5504L205.296 45.5773L210.268 43.4701ZM209.106 37.6654L214.502 37.4645L214.019 24.4757L205.156 33.9833L209.106 37.6654ZM202.898 40.8646L204.287 46.0828L204.287 46.0827L202.898 40.8646ZM193.86 42.2708L194.159 47.6625H194.159L193.86 42.2708ZM185.974 42.0941L185.223 47.4416H185.223L185.974 42.0941ZM180.281 39.5501L176.562 43.4651L176.584 43.4857L176.606 43.5061L180.281 39.5501ZM178.088 34.8792L183.488 34.7993L183.487 34.7701L183.486 34.7409L178.088 34.8792ZM178.205 32.8021L172.858 32.0511L172.858 32.0512L178.205 32.8021ZM180.684 26.7513L176.379 23.4906L176.369 23.505L176.358 23.5194L180.684 26.7513ZM186.214 22.9915L187.75 28.1685L186.798 17.6232L186.214 22.9915ZM180.565 21.3841L177.707 25.9657L177.73 25.9802L177.753 25.9944L180.565 21.3841ZM178.896 18.3578L173.548 17.6067L173.548 17.6074L178.896 18.3578ZM182.854 14.6087L184.396 19.7838L184.415 19.778L184.435 19.7722L182.854 14.6087ZM79.636 8.85092L80.0378 14.2359L80.0676 14.2337L80.0974 14.2312L79.636 8.85092ZM87.4924 8.65854L87.7965 3.26711L87.7965 3.26711L87.4924 8.65854ZM96.0774 12.9505L90.684 13.2172L90.6858 13.2541L90.6881 13.291L96.0774 12.9505ZM94.4807 15.6878L97.7454 19.9892L97.752 19.9842L97.7586 19.9792L94.4807 15.6878ZM89.6858 17.8402L88.1832 12.6534L88.1679 12.6579L88.1527 12.6624L89.6858 17.8402ZM82.3489 19.0423L81.991 13.6542L68.4116 14.5562L78.9151 23.21L82.3489 19.0423ZM83.6096 21.2474L78.4153 22.7236L78.4404 22.8118L78.4684 22.899L83.6096 21.2474ZM84.0061 24.4427L89.3975 24.7468L89.3975 24.7467L84.0061 24.4427ZM83.6721 26.2699L78.6084 24.3941L73.221 38.9375L86.4759 30.885L83.6721 26.2699ZM88.1536 24.5619L87.0583 19.2741L87.0433 19.2772L87.0284 19.2804L88.1536 24.5619ZM93.3674 24.1634L93.6715 18.772L93.6714 18.772L93.3674 24.1634ZM99.5901 26.3607L95.7277 30.1345L104.291 38.8993L104.982 26.6648L99.5901 26.3607ZM101.881 14.3744L107 16.0948L107.004 16.0821L101.881 14.3744ZM108.081 8.78158L108.385 3.39015L108.385 3.39015L108.081 8.78158ZM112.29 11.9037L107.298 13.9625L107.306 13.9823L107.315 14.0021L112.29 11.9037ZM113.706 18.5033L108.314 18.7872L108.554 23.3434L113.086 23.8675L113.706 18.5033ZM118.331 20.3792L114.71 24.3851L114.741 24.413L114.772 24.4403L118.331 20.3792ZM119.95 24.3939L125.342 24.6984L125.342 24.698L119.95 24.3939ZM117.778 28.1361L120.546 32.7722L120.593 32.7446L120.638 32.7161L117.778 28.1361ZM112.853 29.5316L112.512 24.1423L108.425 24.4005L107.571 28.4065L112.853 29.5316ZM109.892 37.0374L114.285 40.1769L114.286 40.1768L109.892 37.0374ZM105.304 39.6058L105 44.9972L105 44.9972L105.304 39.6058ZM101.408 37.0785L96.6019 39.5397L96.6153 39.5658L96.629 39.5917L101.408 37.0785ZM99.7678 31.39L105.129 30.7415L103.568 17.8375L95.5255 28.0489L99.7678 31.39ZM93.8469 35.0941L95.6652 40.1788L95.6652 40.1787L93.8469 35.0941ZM84.9573 37.2464L85.7037 42.5946L85.7038 42.5946L84.9573 37.2464ZM77.0842 37.7249L76.7801 43.1164L76.7802 43.1164L77.0842 37.7249ZM71.2004 35.6624L67.8193 39.8729L67.8426 39.8916L67.8662 39.9101L71.2004 35.6624ZM68.6252 31.1908L73.9993 30.6625L73.9965 30.6334L73.9933 30.6044L68.6252 31.1908ZM68.5696 29.1107L63.1781 28.8066L63.1781 28.8066L68.5696 29.1107ZM70.5373 22.8753L65.9769 19.9836L65.9672 19.9988L65.9577 20.0141L70.5373 22.8753ZM75.7356 18.6693L77.6965 23.7007L75.8711 13.271L75.7356 18.6693ZM69.9729 17.5365L67.5053 22.3397L67.5297 22.3522L67.5541 22.3645L69.9729 17.5365ZM68.0579 14.6585L62.6665 14.354L62.6664 14.3544L68.0579 14.6585ZM71.6907 10.5951L73.6579 15.624L73.6765 15.6167L73.6951 15.6093L71.6907 10.5951ZM145.912 11.9857L145.655 6.59182L145.655 6.59183L145.912 11.9857ZM155.688 15.0365L152.727 19.5523L152.739 19.5606L152.752 19.5688L155.688 15.0365ZM164.147 23.1097L159.741 26.2328L159.763 26.2626L159.784 26.2922L164.147 23.1097ZM167.775 31.471L173.169 31.2138L173.169 31.2135L167.775 31.471ZM166.724 34.8079L162.817 31.0798L162.809 31.0882L166.724 34.8079ZM163.447 36.2328L163.704 41.6266L163.704 41.6266L163.447 36.2328ZM157.781 34.7162L155.318 39.5222L155.318 39.5222L157.781 34.7162ZM151.632 30.3382L147.96 34.2975L147.96 34.2975L151.632 30.3382ZM146.862 24.6263L151.47 21.8112L145.992 12.8439L141.89 22.5184L146.862 24.6263ZM142.219 31.2494L146.119 34.9842L146.121 34.9825L142.219 31.2494ZM135.167 36.9486L137.971 41.5634L137.971 41.5634L135.167 36.9486ZM128.537 39.3988L128.795 44.7926H128.795L128.537 39.3988ZM125.973 38.8294L123.073 43.3845L123.133 43.4232L123.195 43.4603L125.973 38.8294ZM123.819 34.7806L118.425 35.0382V35.0382L123.819 34.7806ZM126.895 25.5228L131.504 28.3358L131.511 28.324L131.519 28.3122L126.895 25.5228ZM135.329 16.182L132.081 11.8684L132.07 11.8765L132.059 11.8846L135.329 16.182ZM35.303 11.9828L35.0619 6.58814L35.0618 6.58814L35.303 11.9828ZM45.0696 15.0638L42.0948 19.5706L42.1075 19.5789L42.1201 19.5872L45.0696 15.0638ZM53.5032 23.1624L49.0884 26.2721L49.1095 26.302L49.131 26.3317L53.5032 23.1624ZM57.1067 31.5345L62.5013 31.2934L62.5013 31.2933L57.1067 31.5345ZM56.0442 34.8685L52.1491 31.1283L52.1412 31.1367L56.0442 34.8685ZM52.7639 36.2835L53.005 41.6782L53.0053 41.6781L52.7639 36.2835ZM47.1028 34.7494L44.6261 39.5479L44.6262 39.5479L47.1028 34.7494ZM40.967 30.3538L37.2829 34.3019L37.2829 34.3019L40.967 30.3538ZM36.2141 24.6273L40.8308 21.8262L35.3802 12.8425L31.249 22.5043L36.2141 24.6273ZM31.551 31.2357L35.4397 34.9824L35.4414 34.9807L31.551 31.2357ZM24.4817 36.9134L27.2718 41.5368L27.2718 41.5367L24.4817 36.9134ZM17.845 39.3441L18.0861 44.7387L18.0863 44.7387L17.845 39.3441ZM15.2815 38.766L12.367 43.3119L12.4278 43.3509L12.4897 43.3883L15.2815 38.766ZM13.1399 34.7103L7.74526 34.9512L7.74528 34.9514L13.1399 34.7103ZM16.2444 25.4622L20.8452 28.2893L20.8525 28.2775L20.8596 28.2657L16.2444 25.4622ZM24.7073 16.1468L21.472 11.8233L21.4612 11.8314L21.4504 11.8395L24.7073 16.1468ZM193.011 45.0013L193.486 50.3803C196.244 50.1366 199.264 50.2281 202.565 50.6916L203.316 45.3441L204.067 39.9966C200.066 39.4348 196.217 39.2969 192.536 39.6223L193.011 45.0013ZM203.316 45.3441L202.565 50.6916C204.863 51.0144 207.273 51.5422 209.798 52.2877L211.327 47.1087L212.856 41.9297C209.871 41.0483 206.94 40.4001 204.067 39.9966L203.316 45.3441ZM211.327 47.1087L209.795 52.2868C211.197 52.7017 211.861 53.3093 212.267 53.9707L216.868 51.1439L221.469 48.3171C219.477 45.0743 216.446 42.9919 212.86 41.9307L211.327 47.1087ZM216.868 51.1439L212.304 54.0292C212.579 54.4641 212.962 55.4698 212.535 57.7152L217.839 58.7259L223.144 59.7366C223.896 55.7884 223.633 51.7387 221.433 48.2586L216.868 51.1439ZM217.839 58.7259L212.531 57.7328C212.147 59.7864 211.562 61.495 210.828 62.9115L215.623 65.3949L220.418 67.8782C221.707 65.3909 222.598 62.6529 223.147 59.719L217.839 58.7259ZM215.623 65.3949L210.788 62.9913C210.065 64.4457 209.383 65.2111 208.884 65.6003L212.204 69.8587L215.525 74.1172C217.638 72.4692 219.236 70.2584 220.459 67.7984L215.623 65.3949ZM212.204 69.8587L208.884 65.6002C208.655 65.7788 208.569 65.7911 208.628 65.7727C208.658 65.7636 208.708 65.7518 208.773 65.7465C208.839 65.7412 208.897 65.7441 208.942 65.7504L208.192 71.098L207.441 76.4456C210.54 76.8805 213.311 75.8437 215.525 74.1172L212.204 69.8587ZM208.192 71.098L208.943 65.7505C208.976 65.7552 209.028 65.7662 209.091 65.7889C209.155 65.8117 209.212 65.8401 209.257 65.8686C209.354 65.9287 209.338 65.9485 209.24 65.8185L204.928 69.0687L200.616 72.3189C202.244 74.4793 204.549 76.0394 207.441 76.4455L208.192 71.098ZM204.928 69.0687L209.24 65.8186C208.982 65.4756 208.657 64.8552 208.438 63.7528L203.142 64.805L197.845 65.8573C198.308 68.185 199.175 70.4068 200.616 72.3187L204.928 69.0687ZM203.142 64.805L208.459 63.8636C208.261 62.7468 208.238 61.5515 208.42 60.2532L203.073 59.5023L197.725 58.7513C197.395 61.1035 197.417 63.4436 197.825 65.7464L203.142 64.805ZM203.073 59.5023L208.42 60.2533C208.434 60.1504 208.499 59.7992 208.673 59.0864L203.427 57.807L198.181 56.5276C197.989 57.3144 197.817 58.0937 197.725 58.7513L203.073 59.5023ZM203.427 57.807L202.508 52.4858C199.943 52.9289 196.949 52.9563 193.474 52.4682L192.723 57.8158L191.972 63.1633C196.33 63.7754 200.473 63.7973 204.346 63.1282L203.427 57.807ZM192.723 57.8158L193.474 52.4683C190.578 52.0615 188.533 51.3952 187.144 50.6428L184.572 55.391L182 60.1391C184.863 61.69 188.251 62.6407 191.972 63.1633L192.723 57.8158ZM184.572 55.391L187.17 50.6575C186.57 50.3278 186.596 50.2075 186.773 50.4674C186.876 50.6189 187.001 50.8598 187.077 51.1789C187.154 51.5005 187.156 51.7966 187.123 52.0269L181.776 51.2767L176.428 50.5265C175.747 55.3776 179.027 58.5073 181.973 60.1245L184.572 55.391ZM181.776 51.2767L187.123 52.0277C187.118 52.0615 187.105 52.118 187.078 52.1811C187.065 52.2104 187.052 52.2344 187.041 52.2524C187.03 52.2702 187.024 52.2785 187.025 52.2774C187.028 52.2725 187.184 52.0826 187.706 51.8036L185.162 47.0404L182.618 42.2771C179.573 43.9037 176.981 46.5854 176.428 50.5257L181.776 51.2767ZM185.162 47.0404L187.659 51.8283C188.896 51.1833 190.771 50.6278 193.501 50.379L193.011 45.0013L192.521 39.6236C188.888 39.9547 185.529 40.7589 182.665 42.2524L185.162 47.0404ZM234.705 58.8294V64.2294C235.02 64.2294 235.111 64.2801 235.069 64.2628C235.051 64.2552 235.022 64.2404 234.993 64.219C234.963 64.1978 234.952 64.1841 234.958 64.1911L239.011 60.6224L243.064 57.0537C240.836 54.5235 237.831 53.4294 234.705 53.4294V58.8294ZM239.011 60.6224L235.009 64.2474C235.032 64.2729 235.189 64.3948 235.189 65.0541L240.589 65.054L245.989 65.054C245.989 62.1283 245.095 59.2956 243.013 56.9974L239.011 60.6224ZM240.589 65.054H235.189C235.189 65.1717 235.179 65.2475 235.172 65.2891C235.164 65.3296 235.157 65.3462 235.157 65.3472C235.156 65.3478 235.156 65.3494 235.151 65.3568C235.146 65.3647 235.127 65.3917 235.081 65.4359L238.867 69.2865L242.653 73.137C244.892 70.9358 245.989 68.1111 245.989 65.054H240.589ZM238.867 69.2865L235.082 65.4358C235.051 65.4657 235.034 65.4781 234.985 65.4963C234.92 65.5203 234.724 65.5798 234.323 65.5798L234.323 70.9798L234.324 76.3798C237.365 76.3797 240.326 75.4249 242.653 73.1371L238.867 69.2865ZM234.323 70.9798V65.5798C234.008 65.5798 233.918 65.5292 233.96 65.5465C233.978 65.554 234.006 65.5688 234.036 65.5903C234.065 65.6115 234.077 65.6252 234.071 65.6181L230.018 69.1869L225.965 72.7556C228.193 75.2858 231.198 76.3798 234.323 76.3798V70.9798ZM230.018 69.1869L234.02 65.5619C233.997 65.5363 233.84 65.4144 233.84 64.7552H228.44H223.04C223.04 67.6811 223.934 70.5137 226.015 72.8118L230.018 69.1869ZM228.44 64.7552L233.84 64.7553C233.84 64.6434 233.849 64.5709 233.856 64.5305C233.864 64.4911 233.87 64.4739 233.872 64.4709C233.873 64.4682 233.874 64.4642 233.881 64.4543C233.888 64.4439 233.908 64.4152 233.953 64.3696L230.114 60.5726L226.274 56.7756C224.108 58.966 223.04 61.7467 223.04 64.7551L228.44 64.7552ZM230.114 60.5726L233.955 64.368C233.983 64.3392 233.996 64.3301 234.039 64.3138C234.099 64.2912 234.296 64.2295 234.706 64.2294L234.705 58.8294L234.705 53.4294C231.615 53.4296 228.608 54.4135 226.272 56.7772L230.114 60.5726ZM267.106 58.8294L267.106 64.2294C267.42 64.2294 267.51 64.28 267.468 64.2626C267.45 64.2549 267.421 64.2401 267.392 64.2187C267.362 64.1975 267.351 64.1839 267.358 64.1913L271.41 60.6224L275.463 57.0535C273.236 54.5244 270.232 53.4294 267.106 53.4294V58.8294ZM271.41 60.6224L267.408 64.2475C267.433 64.2745 267.589 64.397 267.59 65.0541L272.99 65.054L278.389 65.054C278.389 62.1259 277.493 59.294 275.413 56.9973L271.41 60.6224ZM272.99 65.054H267.59C267.59 65.1712 267.58 65.2467 267.572 65.2881C267.565 65.3283 267.558 65.3448 267.557 65.3458C267.557 65.3465 267.557 65.3482 267.551 65.3558C267.546 65.364 267.526 65.3912 267.481 65.4358L271.267 69.2865L275.053 73.1371C277.29 70.9374 278.389 68.1134 278.389 65.054H272.99ZM271.267 69.2865L267.481 65.4357C267.45 65.4659 267.433 65.4782 267.384 65.4964C267.32 65.5203 267.123 65.5798 266.723 65.5798V70.9798V76.3798C269.765 76.3798 272.726 75.4247 275.053 73.1372L271.267 69.2865ZM266.723 70.9798L266.723 65.5798C266.408 65.5798 266.318 65.5292 266.36 65.5467C266.378 65.5543 266.407 65.5692 266.437 65.5907C266.466 65.6118 266.477 65.6255 266.471 65.6181L262.418 69.1869L258.366 72.7556C260.593 75.2851 263.596 76.3798 266.723 76.3798L266.723 70.9798ZM262.418 69.1869L266.421 65.5618C266.396 65.5347 266.239 65.4123 266.239 64.7552H260.839H255.439C255.439 67.6834 256.336 70.5152 258.416 72.8119L262.418 69.1869ZM260.839 64.7552L266.239 64.7553C266.239 64.644 266.248 64.5718 266.256 64.5317C266.263 64.4926 266.27 64.4754 266.271 64.4724C266.272 64.4697 266.274 64.4654 266.28 64.4553C266.288 64.4445 266.308 64.4155 266.354 64.3696L262.514 60.5726L258.674 56.7756C256.51 58.9643 255.439 61.7444 255.439 64.7551L260.839 64.7552ZM262.514 60.5726L266.355 64.3682C266.384 64.3391 266.397 64.33 266.44 64.3137C266.499 64.2912 266.696 64.2294 267.106 64.2294V58.8294V53.4294C264.015 53.4294 261.008 54.4137 258.673 56.777L262.514 60.5726ZM40.7473 51.2357L40.9884 56.6303C43.4159 56.5218 45.5629 56.4994 47.4392 56.557L47.6047 51.1595L47.7702 45.7621C45.5667 45.6945 43.1421 45.7233 40.5062 45.8411L40.7473 51.2357ZM47.6047 51.1595L47.5046 56.5586C49.769 56.6006 50.7641 57.1386 51.1868 57.4974L54.6809 53.3802L58.175 49.263C55.2416 46.7736 51.5188 45.8312 47.7048 45.7604L47.6047 51.1595ZM54.6809 53.3802L51.2353 57.5381C51.5572 57.8048 51.9739 58.2871 52.0382 59.725L57.4329 59.4837L62.8275 59.2425C62.655 55.3867 61.2373 51.8003 58.1265 49.2224L54.6809 53.3802ZM57.4329 59.4837L52.0382 59.7249C52.092 60.9274 51.922 61.9904 51.5647 62.9639L56.634 64.8246L61.7034 66.6852C62.5796 64.2978 62.9418 61.7995 62.8275 59.2426L57.4329 59.4837ZM56.634 64.8246L51.5498 63.005C51.1928 64.0025 50.7578 64.5813 50.3478 64.946L53.9368 68.9808L57.5257 73.0156C59.4816 71.2758 60.8451 69.0839 61.7183 66.6441L56.634 64.8246ZM53.9368 68.9808L50.2119 65.0711C50.04 65.2349 49.9384 65.2838 49.9134 65.2949C49.8946 65.3033 49.8681 65.3144 49.7948 65.3176L50.0364 70.7122L50.2779 76.1068C53.1496 75.9783 55.6594 74.798 57.6616 72.8905L53.9368 68.9808ZM50.0364 70.7122L49.7952 65.3176C49.1973 65.3444 48.8843 65.2116 48.5232 64.8815L44.8791 68.8665L41.2351 72.8516C43.7595 75.16 46.8858 76.2585 50.2775 76.1069L50.0364 70.7122ZM44.8791 68.8665L48.5234 64.8817C48.2487 64.6304 48.0053 64.2994 47.9661 63.4242L42.5715 63.6654L37.1769 63.9065C37.3298 67.3275 38.6245 70.4641 41.2349 72.8514L44.8791 68.8665ZM42.5715 63.6654L47.9661 63.4242C47.9686 63.4786 47.9678 63.501 47.968 63.4801C47.9682 63.462 47.9689 63.4224 47.9717 63.357C47.9772 63.2239 47.9889 63.0305 48.0101 62.7661L42.6272 62.3363L37.2443 61.9064C37.1938 62.5386 37.1486 63.2736 37.1769 63.9065L42.5715 63.6654ZM42.6272 62.3363L41.3328 57.0937C37.9105 57.9387 34.1978 58.4613 30.181 58.6409L30.4221 64.0355L30.6632 69.4301C35.3162 69.2221 39.7402 68.6113 43.9216 67.5788L42.6272 62.3363ZM30.4221 64.0355L30.181 58.6409C26.4942 58.8057 23.7067 58.5699 21.6864 58.0809L20.4163 63.3294L19.1461 68.5779C22.4881 69.3867 26.3712 69.6219 30.6632 69.4301L30.4221 64.0355ZM20.4163 63.3294L21.6159 58.0644C21.1563 57.9596 20.8377 57.8564 20.6319 57.7746C20.4224 57.6914 20.3846 57.652 20.449 57.6978C20.5191 57.7476 20.7283 57.9121 20.9448 58.2341C21.1735 58.5743 21.3415 58.9896 21.4083 59.4326L16.0686 60.2376L10.7289 61.0426C11.503 66.1768 16.3561 67.9427 19.2166 68.5945L20.4163 63.3294ZM16.0686 60.2376L21.4177 59.4979C21.4511 59.7395 21.444 60.0293 21.3706 60.3281C21.2985 60.621 21.187 60.8246 21.1153 60.9306C21.0494 61.028 21.0322 61.0218 21.1376 60.9311C21.2432 60.8402 21.4399 60.6919 21.7659 60.5016L19.0432 55.8382L16.3205 51.1749C13.3938 52.8836 10.0425 56.0817 10.7195 60.9774L16.0686 60.2376ZM19.0432 55.8382L21.7337 60.5203C23.2953 59.6229 25.7281 58.7339 29.269 58.0095L28.1868 52.7191L27.1045 47.4286C22.9513 48.2782 19.2882 49.4694 16.3527 51.1562L19.0432 55.8382ZM28.1868 52.7191L29.269 58.0095C32.8 57.2872 36.702 56.8219 40.9884 56.6303L40.7473 51.2357L40.5062 45.8411C35.7394 46.0541 31.2676 46.577 27.1045 47.4286L28.1868 52.7191ZM151.476 51.221L151.733 56.6149C154.16 56.499 156.308 56.4705 158.185 56.5223L158.334 51.1244L158.483 45.7264C156.28 45.6656 153.855 45.7013 151.218 45.8272L151.476 51.221ZM158.334 51.1244L158.25 56.5237C160.514 56.5588 161.511 57.0937 161.935 57.4514L165.416 53.3236L168.898 49.1957C165.957 46.7156 162.232 45.7842 158.418 45.725L158.334 51.1244ZM165.416 53.3236L161.983 57.4919C162.306 57.7577 162.724 58.2387 162.793 59.6761L168.187 59.4183L173.581 59.1605C173.396 55.3053 171.968 51.7235 168.849 49.1553L165.416 53.3236ZM168.187 59.4183L162.793 59.6759C162.85 60.8785 162.684 61.9419 162.33 62.916L167.405 64.7611L172.48 66.6061C173.349 64.2159 173.703 61.7167 173.581 59.1607L168.187 59.4183ZM167.405 64.7611L162.315 62.9572C161.961 63.9563 161.527 64.5367 161.119 64.9023L164.72 68.9261L168.321 72.9499C170.272 71.2038 171.629 69.007 172.494 66.565L167.405 64.7611ZM164.72 68.9261L160.983 65.0279C160.812 65.1919 160.711 65.241 160.686 65.2522C160.667 65.2606 160.64 65.2719 160.567 65.2754L160.824 70.6693L161.082 76.0631C163.953 75.9259 166.46 74.7388 168.457 72.8243L164.72 68.9261ZM160.824 70.6693L160.567 65.2754C159.97 65.3039 159.657 65.1726 159.294 64.843L155.662 68.8392L152.03 72.8354C154.561 75.1356 157.69 76.2251 161.082 76.0631L160.824 70.6693ZM155.662 68.8392L159.294 64.8431C159.018 64.5917 158.774 64.2613 158.732 63.388L153.338 63.6458L147.944 63.9036C148.108 67.3257 149.414 70.4571 152.03 72.8353L155.662 68.8392ZM153.338 63.6458L158.732 63.3883C158.735 63.4431 158.734 63.4658 158.734 63.445C158.734 63.4271 158.735 63.3874 158.737 63.322C158.743 63.1887 158.754 62.995 158.774 62.7301L153.39 62.3167L148.006 61.9033C147.957 62.5338 147.914 63.2699 147.944 63.9034L153.338 63.6458ZM153.39 62.3167L152.08 57.0781C148.661 57.9333 144.95 58.4664 140.933 58.6582L141.191 64.0521L141.448 69.4459C146.099 69.2238 150.521 68.6006 154.7 67.5553L153.39 62.3167ZM141.191 64.0521L140.933 58.6582C137.246 58.8343 134.457 58.6076 132.436 58.125L131.182 63.3773L129.928 68.6296C133.273 69.4284 137.158 69.6508 141.448 69.4459L141.191 64.0521ZM131.182 63.3773L132.366 58.1086C131.906 58.0053 131.587 57.9031 131.381 57.822C131.172 57.7394 131.134 57.7003 131.199 57.746C131.269 57.7958 131.479 57.9597 131.696 58.2811C131.926 58.6205 132.095 59.035 132.163 59.4774L126.825 60.2982L121.488 61.119C122.277 66.2501 127.134 68.0024 129.998 68.646L131.182 63.3773ZM126.825 60.2982L132.172 59.5422C132.206 59.7834 132.2 60.0732 132.128 60.3722C132.057 60.6654 131.946 60.8694 131.874 60.9758C131.809 61.0734 131.791 61.0674 131.896 60.9765C132.001 60.8852 132.198 60.7364 132.523 60.545L129.786 55.89L127.049 51.2349C124.128 52.9528 120.787 56.1608 121.479 61.0542L126.825 60.2982ZM129.786 55.89L132.491 60.5638C134.05 59.6618 136.479 58.7659 140.019 58.0306L138.92 52.7435L137.822 47.4564C133.672 48.3185 130.012 49.5202 127.082 51.2162L129.786 55.89ZM138.92 52.7435L140.019 58.0306C143.548 57.2974 147.448 56.8195 151.733 56.6149L151.476 51.221L151.218 45.8272C146.452 46.0548 141.982 46.5922 137.822 47.4564L138.92 52.7435ZM250.906 57.4798V62.8798C251.244 62.8798 251.358 62.9328 251.335 62.9236C251.326 62.9196 251.301 62.908 251.271 62.8875C251.258 62.878 251.246 62.869 251.238 62.8615C251.229 62.854 251.225 62.8498 251.226 62.8505L255.211 59.2064L259.196 55.5623C256.949 53.1049 253.964 52.0798 250.906 52.0798V57.4798ZM255.211 59.2064L251.277 62.9057C251.314 62.9449 251.321 62.961 251.33 62.9853C251.343 63.0203 251.389 63.1629 251.389 63.474H256.789H262.189C262.189 60.5578 261.258 57.7542 259.145 55.507L255.211 59.2064ZM256.789 63.474L251.389 63.4737C251.389 63.5636 251.381 63.612 251.379 63.6271C251.376 63.6409 251.376 63.6336 251.385 63.6138C251.393 63.5937 251.402 63.5792 251.405 63.5744C251.408 63.5704 251.396 63.5891 251.355 63.628L255.068 67.5492L258.78 71.4703C261.043 69.3282 262.189 66.535 262.189 63.4743L256.789 63.474ZM255.068 67.5492L251.355 63.6278C251.334 63.6482 251.314 63.6653 251.246 63.6895C251.163 63.7193 250.944 63.78 250.523 63.78V69.18V74.58C253.507 74.58 256.444 73.6826 258.78 71.4705L255.068 67.5492ZM250.523 69.18L250.523 63.78C250.184 63.78 250.07 63.7271 250.094 63.7364C250.104 63.7405 250.129 63.7521 250.158 63.7726C250.172 63.7821 250.183 63.7911 250.192 63.7986C250.2 63.806 250.204 63.8102 250.203 63.8093L246.218 67.4535L242.233 71.0976C244.48 73.5544 247.463 74.5799 250.523 74.58L250.523 69.18ZM246.218 67.4535L250.151 63.7537C250.114 63.7139 250.107 63.6973 250.098 63.6732C250.085 63.6384 250.039 63.4963 250.039 63.1859H244.639H239.239C239.239 66.1043 240.172 68.9071 242.285 71.1532L246.218 67.4535ZM244.639 63.1859L250.039 63.1859C250.039 63.1017 250.046 63.0565 250.049 63.0424C250.051 63.0294 250.051 63.0357 250.044 63.0532C250.041 63.061 250.037 63.0684 250.034 63.0749C250.032 63.0781 250.03 63.0806 250.029 63.0824C250.029 63.0833 250.028 63.084 250.028 63.0844C250.028 63.0849 250.027 63.0851 250.027 63.0851C250.027 63.0851 250.028 63.084 250.03 63.0818C250.032 63.0795 250.034 63.076 250.038 63.0713C250.046 63.0618 250.06 63.0467 250.081 63.0263L246.314 59.1576L242.546 55.2888C240.357 57.4208 239.239 60.172 239.239 63.1859L244.639 63.1859ZM246.314 59.1576L250.082 63.025C250.101 63.0072 250.114 62.9937 250.176 62.9713C250.254 62.9428 250.473 62.8798 250.906 62.8798L250.906 57.4798L250.905 52.0798C247.876 52.0799 244.893 53.0025 242.545 55.2901L246.314 59.1576ZM84.3381 40.0384L85.2588 45.3593C87.9879 44.8871 91.0054 44.7266 94.3319 44.9142L94.636 39.5228L94.9401 34.1314C90.9057 33.9038 87.058 34.0876 83.4174 34.7175L84.3381 40.0384ZM94.636 39.5228L94.3319 44.9142C96.6482 45.0449 99.0941 45.3713 101.673 45.9047L102.767 40.6165L103.86 35.3284C100.813 34.6983 97.8379 34.2948 94.9401 34.1314L94.636 39.5228ZM102.767 40.6165L101.67 45.904C103.102 46.201 103.813 46.751 104.273 47.3764L108.623 44.1771L112.973 40.9777C110.719 37.912 107.526 36.0887 103.864 35.3291L102.767 40.6165ZM108.623 44.1771L104.314 47.4317C104.625 47.8426 105.09 48.8128 104.851 51.0854L110.221 51.6517L115.591 52.218C116.013 48.2205 115.413 44.2073 112.932 40.9225L108.623 44.1771ZM110.221 51.6517L104.849 51.1031C104.637 53.1811 104.195 54.9325 103.582 56.4055L108.567 58.4818L113.552 60.5581C114.628 57.9726 115.29 55.1701 115.593 52.2003L110.221 51.6517ZM108.567 58.4818L103.548 56.4883C102.948 57.9978 102.333 58.817 101.868 59.2464L105.531 63.2142L109.193 67.182C111.163 65.3641 112.571 63.0284 113.585 60.4752L108.567 58.4818ZM105.531 63.2142L101.868 59.2464C101.654 59.4434 101.569 59.4627 101.627 59.4394C101.656 59.4279 101.705 59.412 101.77 59.4013C101.834 59.3905 101.893 59.3886 101.938 59.3911L101.634 64.7826L101.33 70.174C104.454 70.3502 107.13 69.087 109.193 67.182L105.531 63.2142ZM101.634 64.7826L101.938 59.3911C101.972 59.393 102.024 59.3996 102.089 59.417C102.154 59.4344 102.213 59.458 102.261 59.4827C102.363 59.5348 102.35 59.5563 102.241 59.435L98.2141 63.0326L94.187 66.6301C95.9899 68.6483 98.4161 70.0095 101.33 70.174L101.634 64.7826ZM98.2141 63.0326L102.241 59.4353C101.955 59.115 101.58 58.523 101.27 57.4423L96.0793 58.931L90.8886 60.4197C91.5429 62.701 92.5917 64.8441 94.1868 66.6298L98.2141 63.0326ZM96.0793 58.931L101.3 57.5511C101.01 56.4543 100.887 55.2652 100.961 53.9567L95.5696 53.6527L90.1781 53.3486C90.0444 55.7203 90.2611 58.0502 90.8586 60.3109L96.0793 58.931ZM95.5696 53.6527L100.961 53.9568C100.967 53.8551 101.002 53.5019 101.117 52.773L95.7825 51.9339L90.4481 51.0949C90.3229 51.8907 90.2157 52.6835 90.1781 53.3486L95.5696 53.6527ZM95.7825 51.9339L94.4242 46.7075C91.905 47.3622 88.9238 47.6385 85.4205 47.4409L85.1164 52.8324L84.8124 58.2238C89.2068 58.4716 93.3367 58.1489 97.1407 57.1603L95.7825 51.9339ZM85.1164 52.8324L85.4205 47.4409C82.5008 47.2762 80.4067 46.7821 78.9599 46.1477L76.7913 51.0931L74.6227 56.0385C77.6047 57.3462 81.0611 58.0122 84.8124 58.2238L85.1164 52.8324ZM76.7913 51.0931L78.9877 46.16C78.3622 45.8815 78.3785 45.7595 78.5762 46.004C78.6914 46.1464 78.836 46.3762 78.9383 46.6877C79.0415 47.0018 79.0678 47.2966 79.0548 47.5286L73.6633 47.2249L68.2719 46.9213C67.9965 51.8119 71.5239 54.6589 74.5948 56.0262L76.7913 51.0931ZM73.6633 47.2249L79.0548 47.529C79.0528 47.5632 79.0443 47.6207 79.0221 47.6861C79.0118 47.7163 79.001 47.7414 78.9916 47.7602C78.9823 47.7789 78.9763 47.7877 78.977 47.7866C78.9805 47.7814 79.1198 47.5791 79.6175 47.2575L76.6868 42.722L73.756 38.1865C70.8565 40.0601 68.496 42.9474 68.2719 46.9208L73.6633 47.2249ZM76.6868 42.722L79.5729 47.286C80.7517 46.5406 82.573 45.8316 85.2733 45.3568L84.3381 40.0384L83.403 34.72C79.8103 35.3517 76.5304 36.4318 73.8006 38.158L76.6868 42.722ZM146.611 31.4437L146.868 36.8375C146.89 36.8365 146.904 36.837 146.912 36.8374C146.92 36.8379 146.924 36.8385 146.925 36.8387C146.926 36.8389 146.927 36.8391 146.928 36.8396C146.93 36.8401 146.935 36.8417 146.945 36.8456C146.972 36.857 147.13 36.9281 147.402 37.1971L151.199 33.3578L154.997 29.5184C152.718 27.2649 149.771 25.8866 146.353 26.0498L146.611 31.4437ZM151.199 33.3578L147.402 37.197C147.909 37.6984 148.261 38.3229 148.418 39.2888L153.748 38.4261L159.079 37.5634C158.581 34.4855 157.234 31.731 154.997 29.5185L151.199 33.3578ZM153.748 38.4261L148.383 39.0412L148.482 39.9015L153.847 39.2865L159.212 38.6714L159.113 37.8111L153.748 38.4261ZM153.847 39.2865L154.258 44.6708C156.945 44.4655 158.732 44.3438 159.681 44.2985L159.423 38.9046L159.166 33.5108C158.043 33.5644 156.112 33.6976 153.435 33.9022L153.847 39.2865ZM159.423 38.9046L159.681 44.2985C164.037 44.0905 166.731 44.2588 168.131 44.5698L169.302 39.2982L170.473 34.0266C167.599 33.3885 163.707 33.2939 159.166 33.5108L159.423 38.9046ZM169.302 39.2982L168.244 44.5935C168.927 44.7301 168.83 44.829 168.457 44.5395C168.234 44.3659 167.923 44.0587 167.667 43.5872C167.405 43.1044 167.284 42.6033 167.263 42.1632L172.656 41.9056L178.05 41.648C177.937 39.2752 176.769 37.3209 175.085 36.012C173.594 34.8535 171.85 34.3007 170.36 34.0029L169.302 39.2982ZM172.656 41.9056L167.263 42.1632C167.165 40.1202 168.848 39.8001 167.363 40.5381C166.107 41.1619 163.73 41.8808 159.851 42.5086L160.714 47.8392L161.577 53.1698C165.786 52.4887 169.443 51.5641 172.168 50.21C174.664 48.9701 178.274 46.3376 178.05 41.648L172.656 41.9056ZM160.714 47.8392L159.849 42.509C151.984 43.786 144.404 44.5959 137.106 44.9444L137.364 50.3382L137.621 55.7321C145.359 55.3626 153.346 54.5064 161.58 53.1694L160.714 47.8392ZM137.364 50.3382L137.106 44.9444C131.885 45.1937 128.382 45.0304 126.315 44.6316L125.292 49.9339L124.27 55.2362C127.634 55.8852 132.179 55.992 137.621 55.7321L137.364 50.3382ZM125.292 49.9339L126.386 44.6459C125.915 44.5485 125.601 44.4524 125.41 44.3803C125.214 44.306 125.22 44.2842 125.339 44.3687C125.465 44.4588 125.759 44.699 126.03 45.1464C126.318 45.6211 126.482 46.1678 126.507 46.7039L121.114 46.9622L115.72 47.2206C115.849 49.9268 117.339 51.932 119.08 53.1701C120.65 54.2865 122.509 54.8725 124.198 55.222L125.292 49.9339ZM121.114 46.9622L126.507 46.7047C126.536 47.3063 126.394 47.8955 126.139 48.3801C125.906 48.824 125.655 49.0366 125.613 49.0705C125.574 49.1022 125.66 49.0254 125.965 48.882C126.262 48.7422 126.694 48.5727 127.295 48.3899L125.722 43.224L124.149 38.0581C122.293 38.6232 120.36 39.4245 118.809 40.6832C117.13 42.0452 115.578 44.2564 115.72 47.2198L121.114 46.9622ZM125.722 43.224L127.295 48.3899C129.965 47.5771 134.529 46.7307 141.239 45.9145L140.587 40.554L139.935 35.1935C133.116 36.0229 127.769 36.956 124.149 38.058L125.722 43.224ZM140.587 40.554L145.981 40.3026L145.971 40.0722L140.576 40.3236L135.182 40.575L135.193 40.8055L140.587 40.554ZM140.576 40.3236L145.815 39.0132C145.832 39.0807 145.844 39.1373 145.853 39.1806C145.862 39.2242 145.868 39.2595 145.872 39.2849C145.876 39.3104 145.879 39.3293 145.88 39.3406C145.881 39.3464 145.882 39.3507 145.882 39.3535C145.882 39.3549 145.882 39.3559 145.882 39.3566C145.883 39.3573 145.883 39.3576 145.883 39.3576C145.883 39.3576 145.883 39.3573 145.883 39.3567C145.882 39.356 145.882 39.3551 145.882 39.3538C145.882 39.3513 145.882 39.3476 145.881 39.3427C145.88 39.3328 145.879 39.3189 145.878 39.3006C145.875 39.2636 145.872 39.2132 145.869 39.148L140.475 39.4056L135.081 39.6632C135.103 40.1309 135.152 40.8915 135.338 41.634L140.576 40.3236ZM140.475 39.4056L145.869 39.1481C145.846 38.6694 145.923 38.2205 146.127 37.7427L141.159 35.6253L136.192 33.508C135.359 35.463 134.979 37.5339 135.081 39.6631L140.475 39.4056ZM141.159 35.6253L146.127 37.7428C146.315 37.3018 146.508 37.1014 146.665 36.9809L143.383 32.6927L140.101 28.4045C138.33 29.7601 137.041 31.5158 136.192 33.5078L141.159 35.6253ZM143.383 32.6927L146.773 36.8957C146.814 36.8628 146.841 36.846 146.853 36.8391C146.864 36.8323 146.866 36.8322 146.86 36.8346C146.854 36.8371 146.847 36.8389 146.843 36.8397C146.84 36.8404 146.847 36.8386 146.868 36.8375L146.611 31.4437L146.353 26.0498C143.976 26.1634 141.812 27.0223 139.993 28.4897L143.383 32.6927ZM35.9416 31.4427L36.1828 36.8373C36.2043 36.8364 36.2186 36.8368 36.2265 36.8373C36.2343 36.8378 36.2382 36.8385 36.2392 36.8387C36.2402 36.8388 36.2411 36.839 36.2429 36.8396C36.2447 36.8401 36.25 36.8418 36.2595 36.8457C36.2874 36.8575 36.4455 36.9293 36.7166 37.1991L40.5256 33.3714L44.3347 29.5437C42.0633 27.2835 39.1195 25.8953 35.7005 26.0481L35.9416 31.4427ZM40.5256 33.3714L36.7165 37.199C37.2216 37.7017 37.5722 38.3275 37.7256 39.294L43.0588 38.4476L48.3921 37.6012C47.9034 34.5221 46.5649 31.7632 44.3348 29.5438L40.5256 33.3714ZM43.0588 38.4476L37.6919 39.0446L37.7876 39.9049L43.1545 39.3079L48.5214 38.711L48.4257 37.8506L43.0588 38.4476ZM43.1545 39.3079L43.5496 44.6935C46.2348 44.4965 48.0235 44.3807 48.9728 44.3383L48.7317 38.9437L48.4906 33.5491C47.3684 33.5992 45.438 33.7259 42.7594 33.9224L43.1545 39.3079ZM48.7317 38.9437L48.9728 44.3383C53.3312 44.1435 56.024 44.3194 57.4228 44.6345L58.6096 39.3665L59.7964 34.0986C56.9241 33.4515 53.0316 33.3461 48.4906 33.5491L48.7317 38.9437ZM58.6096 39.3665L57.5351 44.6586C58.2176 44.7971 58.1192 44.8956 57.7472 44.6045C57.5241 44.4299 57.2145 44.1217 56.96 43.6496C56.6995 43.1663 56.5804 42.6654 56.5607 42.2258L61.9553 41.9847L67.3499 41.7436C67.2439 39.372 66.0833 37.4142 64.4032 36.0993C62.916 34.9355 61.1739 34.377 59.6841 34.0745L58.6096 39.3665ZM61.9553 41.9847L56.5607 42.2256C56.4695 40.1824 58.1534 39.8674 56.6661 40.6006C55.4087 41.2205 53.0297 41.932 49.1489 42.5479L49.9954 47.8812L50.8418 53.2144C55.0524 52.5462 58.7125 51.6329 61.4418 50.2873C63.9412 49.0551 67.5594 46.4339 67.3499 41.7438L61.9553 41.9847ZM49.9954 47.8812L49.1461 42.5484C41.2781 43.8014 33.6958 44.588 26.3968 44.9143L26.6379 50.3089L26.8791 55.7035C34.6175 55.3576 42.6068 54.5259 50.8446 53.214L49.9954 47.8812ZM26.6379 50.3089L26.3968 44.9143C21.1748 45.1477 17.6722 44.9743 15.6063 44.5693L14.5676 49.8685L13.5289 55.1677C16.892 55.8269 21.4368 55.9468 26.8791 55.7035L26.6379 50.3089ZM14.5676 49.8685L15.6776 44.5838C15.2071 44.485 14.8933 44.3879 14.7027 44.3153C14.5059 44.2403 14.5123 44.2185 14.6307 44.3033C14.7571 44.3937 15.0501 44.6347 15.32 45.0829C15.6064 45.5584 15.7682 46.1057 15.7923 46.642L10.3977 46.8841L5.00313 47.1262C5.12461 49.8331 6.60824 51.8427 8.34543 53.0859C9.91179 54.2069 11.7694 54.7986 13.4577 55.1532L14.5676 49.8685ZM10.3977 46.8841L15.7923 46.643C15.8192 47.2445 15.6756 47.8333 15.419 48.3172C15.184 48.7606 14.9322 48.9726 14.8901 49.0065C14.8508 49.0382 14.9374 48.9616 15.2424 48.8192C15.5397 48.6803 15.9728 48.5122 16.5739 48.3311L15.0168 43.1605L13.4598 37.9898C11.602 38.5493 9.66739 39.3445 8.11211 40.5983C6.42873 41.9553 4.87062 44.1617 5.00309 47.1253L10.3977 46.8841ZM15.0168 43.1605L16.5738 48.3312C19.2468 47.5263 23.8142 46.6926 30.5265 45.897L29.8909 40.5345L29.2552 35.1721C22.4321 35.9808 17.0829 36.8989 13.4599 37.9898L15.0168 43.1605ZM29.8909 40.5345L35.285 40.282L35.2742 40.0525L29.8801 40.305L24.486 40.5575L24.4968 40.787L29.8909 40.5345ZM29.8801 40.305L35.1227 39.0106C35.1394 39.0784 35.1516 39.1353 35.1602 39.1787C35.1689 39.2225 35.175 39.2579 35.1791 39.2834C35.1832 39.309 35.1858 39.328 35.1873 39.3393C35.1881 39.3451 35.1886 39.3494 35.1889 39.3521C35.1891 39.3535 35.1892 39.3546 35.1893 39.3552C35.1893 39.3556 35.1894 39.3558 35.1894 39.356C35.1894 39.3562 35.1894 39.3563 35.1894 39.3563C35.1894 39.3563 35.1894 39.3562 35.1894 39.356C35.1894 39.3559 35.1893 39.3556 35.1893 39.3553C35.1892 39.3546 35.1891 39.3537 35.189 39.3524C35.1888 39.3498 35.1884 39.3461 35.188 39.3412C35.1871 39.3313 35.186 39.3173 35.1847 39.2989C35.182 39.2617 35.179 39.2112 35.1761 39.1458L29.7815 39.3871L24.3869 39.6283C24.4077 40.0941 24.4539 40.8557 24.6376 41.5995L29.8801 40.305ZM29.7815 39.3871L35.1761 39.1459C35.1547 38.667 35.2337 38.2176 35.4388 37.7404L30.4778 35.6078L25.5167 33.4751C24.6773 35.4278 24.2917 37.4986 24.3869 39.6282L29.7815 39.3871ZM30.4778 35.6078L35.4388 37.7404C35.6266 37.3037 35.8194 37.1034 35.9801 36.9811L32.7112 32.6829L29.4423 28.3848C27.67 29.7327 26.3735 31.4821 25.5168 33.4751L30.4778 35.6078ZM32.7112 32.6829L36.0887 36.8963C36.1303 36.863 36.1575 36.8459 36.1699 36.8387C36.1819 36.8317 36.1842 36.8315 36.178 36.8339C36.1717 36.8363 36.1649 36.8382 36.1605 36.8391C36.1563 36.84 36.1627 36.8382 36.183 36.8373L35.9416 31.4427L35.7003 26.0481C33.319 26.1547 31.1538 27.0105 29.3337 28.4696L32.7112 32.6829ZM190.916 13.5306L190.929 18.9306C193.736 18.924 196.086 19.0696 198.011 19.34L198.762 13.9925L199.513 8.645C196.951 8.28523 194.07 8.12314 190.903 8.13062L190.916 13.5306ZM198.762 13.9925L198.011 19.34C199.209 19.5083 200.15 19.7104 200.869 19.9225C201.601 20.1383 201.996 20.3335 202.167 20.4377C202.334 20.5391 202.148 20.4676 201.924 20.1123C201.666 19.7014 201.549 19.2139 201.563 18.8009L206.96 18.9837L212.357 19.1666C212.484 15.4254 210.318 12.7564 207.784 11.213C205.483 9.81243 202.551 9.07175 199.513 8.64501L198.762 13.9925ZM206.96 18.9837L201.561 18.8743C201.575 18.1874 201.816 17.6189 202.069 17.2586C202.282 16.9536 202.425 16.9063 202.232 17.0296L205.142 21.5785L208.052 26.1273C210.011 24.8743 212.288 22.6022 212.359 19.0932L206.96 18.9837ZM205.142 21.5785L202.246 17.0207C201.895 17.2438 200.975 17.6569 199.118 18.0309L200.185 23.3246L201.251 28.6182C203.704 28.124 206.09 27.3739 208.038 26.1362L205.142 21.5785ZM200.185 23.3246L199.087 18.0373C197.459 18.3753 195.403 18.556 192.865 18.5132L192.774 23.9124L192.683 29.3117C195.792 29.3641 198.677 29.1527 201.282 28.6118L200.185 23.3246ZM192.774 23.9124L189.005 27.7804C188.714 27.4964 188.577 27.2429 188.53 27.1412C188.486 27.0463 188.509 27.0637 188.547 27.2548L193.846 26.2152L199.145 25.1756C198.826 23.5522 198.133 21.595 196.542 20.0445L192.774 23.9124ZM193.846 26.2152L188.585 27.4339C188.671 27.8041 188.695 28.2083 188.628 28.6819L193.976 29.4329L199.323 30.184C199.567 28.452 199.504 26.7104 199.107 24.9965L193.846 26.2152ZM193.976 29.4329L188.628 28.6818C188.603 28.8593 188.579 28.966 188.566 29.0147C188.552 29.0648 188.557 29.0298 188.601 28.9356L193.491 31.2259L198.382 33.5162C198.902 32.4051 199.174 31.2447 199.323 30.1841L193.976 29.4329ZM193.491 31.2259L195.902 36.058C196.608 35.706 197.542 35.4104 198.781 35.2525L198.099 29.8958L197.416 24.5391C195.181 24.8239 193.044 25.4146 191.081 26.3938L193.491 31.2259ZM198.099 29.8958L198.751 35.2563C200.077 35.095 201.348 35.1069 202.577 35.2795L203.328 29.932L204.079 24.5845C201.886 24.2764 199.671 24.2648 197.447 24.5354L198.099 29.8958ZM203.328 29.932L202.577 35.2795C204.835 35.5965 205.263 36.1743 205.184 36.0783L209.346 32.638L213.508 29.1977C211.109 26.2946 207.525 25.0684 204.079 24.5845L203.328 29.932ZM209.346 32.638L214.693 33.3891C215.204 29.7511 216.17 26.301 217.584 23.0239L212.626 20.8841L207.668 18.7443C205.864 22.9255 204.641 27.3113 203.998 31.887L209.346 32.638ZM212.626 20.8841L217.589 23.0117C218.191 21.608 218.673 21.1639 218.769 21.0909C218.791 21.0746 218.733 21.1201 218.614 21.1508C218.496 21.1809 218.447 21.164 218.518 21.1741L219.269 15.8265L220.02 10.479C217.219 10.0858 214.507 10.7617 212.227 12.4981C210.108 14.111 208.676 16.3933 207.663 18.7566L212.626 20.8841ZM219.269 15.8265L218.518 21.174C218.582 21.1831 218.556 21.1871 218.472 21.1504C218.383 21.1116 218.273 21.0465 218.169 20.9546C218.066 20.8641 218.012 20.786 217.994 20.7578C217.98 20.7345 218.011 20.7778 218.057 20.9244L223.203 19.2874L228.349 17.6505C227.794 15.9062 226.84 14.1984 225.302 12.8454C223.745 11.4759 221.899 10.743 220.02 10.479L219.269 15.8265ZM223.203 19.2874L218.071 20.9651C218.496 22.2665 218.729 23.8605 218.669 25.8157L224.067 25.9808L229.464 26.1459C229.555 23.1593 229.213 20.2912 228.336 17.6098L223.203 19.2874ZM224.067 25.9808L223.003 31.275C224.136 31.5026 224.494 31.8361 224.578 31.9258L228.52 28.2347L232.461 24.5436C230.455 22.4008 227.844 21.2319 225.13 20.6866L224.067 25.9808ZM228.52 28.2347L224.636 31.9863C224.644 31.9949 224.621 31.9723 224.587 31.9156C224.552 31.8576 224.518 31.7854 224.494 31.7066C224.47 31.6285 224.462 31.5703 224.461 31.5443C224.459 31.5205 224.463 31.5424 224.453 31.6194L229.8 32.3704L235.148 33.1215C235.592 29.9537 234.719 26.8804 232.404 24.4831L228.52 28.2347ZM229.8 32.3704L224.453 31.619C224.439 31.7179 224.441 31.5938 224.58 31.3944C224.644 31.3032 224.713 31.2294 224.776 31.1763C224.836 31.1248 224.87 31.1094 224.854 31.1176L227.324 35.9193L229.795 40.721C232.837 39.156 234.683 36.4249 235.148 33.1219L229.8 32.3704ZM227.324 35.9193L224.95 31.0692C224.462 31.3081 223.674 31.5273 222.409 31.5018L222.3 36.9007L222.192 42.2996C224.792 42.3519 227.355 41.9165 229.699 40.7693L227.324 35.9193ZM222.3 36.9007L217.13 35.3406C216.31 38.058 215.399 39.7077 214.607 40.6405L218.725 44.1341L222.842 47.6278C224.932 45.1651 226.404 41.9928 227.47 38.4608L222.3 36.9007ZM218.725 44.1341L214.607 40.6404C214.266 41.0422 214.116 41.0809 214.21 41.0379C214.261 41.0149 214.346 40.9854 214.455 40.9697C214.563 40.9542 214.648 40.9591 214.691 40.9653L213.941 46.3128L213.19 51.6604C217.259 52.2317 220.561 50.3161 222.842 47.6278L218.725 44.1341ZM213.941 46.3128L214.692 40.9653C214.643 40.9585 214.666 40.9565 214.738 40.9855C214.814 41.0158 214.913 41.0682 215.016 41.1475C215.118 41.2266 215.189 41.3057 215.23 41.3615C215.269 41.4142 215.266 41.4244 215.24 41.3628L210.268 43.4701L205.296 45.5773C206.722 48.9427 209.53 51.1463 213.19 51.6604L213.941 46.3128ZM210.268 43.4701L215.262 41.4168C214.853 40.4223 214.564 39.1334 214.502 37.4645L209.106 37.6654L203.709 37.8662C203.81 40.5627 204.295 43.1436 205.273 45.5233L210.268 43.4701ZM209.106 37.6654L205.156 33.9833C204.862 34.2983 203.907 35.0077 201.508 35.6464L202.898 40.8646L204.287 46.0827C207.609 45.1983 210.793 43.7752 213.056 41.3475L209.106 37.6654ZM202.898 40.8646L201.508 35.6464C199.029 36.3066 196.383 36.7223 193.56 36.8792L193.86 42.2708L194.159 47.6625C197.667 47.4677 201.047 46.9457 204.287 46.0828L202.898 40.8646ZM193.86 42.2708L193.56 36.8792C190.589 37.0442 188.342 36.9737 186.725 36.7466L185.974 42.0941L185.223 47.4416C187.789 47.8019 190.799 47.8492 194.159 47.6625L193.86 42.2708ZM185.974 42.0941L186.725 36.7466C185.314 36.5485 184.496 36.0945 183.957 35.5942L180.281 39.5501L176.606 43.5061C179.017 45.7467 181.994 46.9882 185.223 47.4416L185.974 42.0941ZM180.281 39.5501L184.001 35.6352C183.465 35.1262 183.489 34.8987 183.488 34.7993L178.088 34.8792L172.689 34.9592C172.739 38.3569 174.224 41.2439 176.562 43.4651L180.281 39.5501ZM178.088 34.8792L183.486 34.7409C183.476 34.3335 183.499 33.9386 183.553 33.5529L178.205 32.8021L172.858 32.0512C172.72 33.0343 172.664 34.0242 172.69 35.0176L178.088 34.8792ZM178.205 32.8021L183.553 33.5531C183.743 32.1959 184.225 31.0344 185.01 29.9832L180.684 26.7513L176.358 23.5194C174.469 26.0479 173.297 28.9211 172.858 32.0511L178.205 32.8021ZM180.684 26.7513L184.988 30.012C185.636 29.1572 186.486 28.5437 187.75 28.1685L186.214 22.9915L184.678 17.8146C181.33 18.8079 178.493 20.7007 176.379 23.4906L180.684 26.7513ZM186.214 22.9915L186.798 17.6232C184.728 17.3982 183.737 16.9936 183.376 16.7739L180.565 21.3841L177.753 25.9944C180.036 27.3866 182.812 28.0534 185.63 28.3599L186.214 22.9915ZM180.565 21.3841L183.423 16.8025C183.326 16.7421 183.629 16.9035 183.914 17.4194C184.238 18.008 184.309 18.6416 184.243 19.1081L178.896 18.3578L173.548 17.6074C173.312 19.2906 173.575 21.037 174.456 22.6345C175.297 24.1593 176.52 25.2255 177.707 25.9657L180.565 21.3841ZM178.896 18.3578L184.243 19.1088C184.226 19.2314 184.18 19.4071 184.081 19.5982C183.983 19.7888 183.869 19.923 183.787 20.0002C183.712 20.0715 183.694 20.0669 183.789 20.0164C183.887 19.9647 184.078 19.8786 184.396 19.7838L182.854 14.6087L181.311 9.4337C177.802 10.4797 174.205 12.9324 173.548 17.6067L178.896 18.3578ZM182.854 14.6087L184.435 19.7722C186.263 19.2124 188.392 18.9088 190.869 18.9304L190.916 13.5306L190.963 8.13081C187.553 8.10114 184.307 8.51639 181.273 9.4453L182.854 14.6087ZM79.636 8.85092L80.0974 14.2312C82.895 13.9913 85.2482 13.9405 87.1883 14.05L87.4924 8.65854L87.7965 3.26711C85.2129 3.12138 82.3284 3.20021 79.1746 3.47067L79.636 8.85092ZM87.4924 8.65854L87.1883 14.05C88.3963 14.1181 89.3511 14.2412 90.0855 14.3929C90.8326 14.5471 91.2426 14.7088 91.4219 14.7984C91.5964 14.8857 91.405 14.8299 91.1529 14.4943C90.8613 14.1063 90.7044 13.6301 90.684 13.2172L96.0774 12.9505L101.471 12.6838C101.286 8.94492 98.9057 6.46544 96.2515 5.13845C93.8428 3.93418 90.8596 3.43988 87.7965 3.26711L87.4924 8.65854ZM96.0774 12.9505L90.6881 13.291C90.6448 12.6048 90.8377 12.0181 91.0594 11.638C91.247 11.3163 91.3849 11.2575 91.2028 11.3965L94.4807 15.6878L97.7586 19.9792C99.6061 18.5679 101.688 16.1139 101.467 12.6101L96.0774 12.9505ZM94.4807 15.6878L91.216 11.3864C90.8841 11.6384 90.0015 12.1267 88.1832 12.6534L89.6858 17.8402L91.1884 23.0269C93.5929 22.3303 95.9075 21.3841 97.7454 19.9892L94.4807 15.6878ZM89.6858 17.8402L88.1527 12.6624C86.5575 13.1347 84.5237 13.486 81.991 13.6542L82.3489 19.0423L82.7068 24.4305C85.8104 24.2243 88.6681 23.7732 91.2189 23.018L89.6858 17.8402ZM82.3489 19.0423L78.9151 23.21C78.603 22.9528 78.4462 22.7131 78.3902 22.6151C78.3379 22.5236 78.3626 22.538 78.4153 22.7236L83.6096 21.2474L88.8039 19.7712C88.3501 18.1744 87.4947 16.2852 85.7826 14.8747L82.3489 19.0423ZM83.6096 21.2474L78.4684 22.899C78.5843 23.2599 78.6416 23.6603 78.6147 24.1387L84.0061 24.4427L89.3975 24.7467C89.4959 23.0016 89.2892 21.2716 88.7508 19.5958L83.6096 21.2474ZM84.0061 24.4427L78.6147 24.1386C78.6046 24.3168 78.5889 24.4249 78.5798 24.4745C78.5705 24.5254 78.5726 24.4907 78.6084 24.3941L83.6721 26.2699L88.7359 28.1456C89.1615 26.9965 89.3371 25.8181 89.3975 24.7468L84.0061 24.4427ZM83.6721 26.2699L86.4759 30.885C87.1491 30.476 88.0558 30.1039 89.2788 29.8433L88.1536 24.5619L87.0284 19.2804C84.8258 19.7496 82.744 20.5153 80.8684 21.6548L83.6721 26.2699ZM88.1536 24.5619L89.2488 29.8496C90.5567 29.5787 91.8242 29.485 93.0634 29.5549L93.3674 24.1634L93.6714 18.772C91.4606 18.6473 89.2524 18.8196 87.0583 19.2741L88.1536 24.5619ZM93.3674 24.1634L93.0633 29.5548C95.3396 29.6832 95.8149 30.2238 95.7277 30.1345L99.5901 26.3607L103.452 22.5869C100.82 19.8925 97.1461 18.968 93.6715 18.772L93.3674 24.1634ZM99.5901 26.3607L104.982 26.6648C105.188 22.9957 105.863 19.477 107 16.0948L101.881 14.3744L96.7625 12.6539C95.3112 16.9717 94.4588 21.4444 94.1987 26.0566L99.5901 26.3607ZM101.881 14.3744L107.004 16.0821C107.487 14.6334 107.931 14.1505 108.02 14.0696C108.04 14.0514 107.987 14.1014 107.871 14.1419C107.756 14.1816 107.706 14.169 107.777 14.173L108.081 8.78158L108.385 3.39015C105.562 3.2309 102.915 4.13019 100.786 6.05011C98.8094 7.83349 97.5715 10.227 96.7583 12.6666L101.881 14.3744ZM108.081 8.78158L107.777 14.173C107.842 14.1767 107.817 14.1828 107.73 14.1533C107.638 14.1221 107.524 14.0664 107.412 13.9836C107.302 13.902 107.241 13.8287 107.221 13.8021C107.205 13.78 107.24 13.8205 107.298 13.9625L112.29 11.9037L117.282 9.84477C116.584 8.15224 115.491 6.52967 113.846 5.30931C112.181 4.07409 110.28 3.49703 108.385 3.39015L108.081 8.78158ZM112.29 11.9037L107.315 14.0021C107.846 15.2627 108.211 16.8324 108.314 18.7872L113.706 18.5033L119.099 18.2194C118.942 15.2365 118.363 12.4056 117.266 9.80525L112.29 11.9037ZM113.706 18.5033L113.086 23.8675C114.234 24.0003 114.619 24.303 114.71 24.3851L118.331 20.3792L121.952 16.3734C119.775 14.4046 117.076 13.4569 114.327 13.139L113.706 18.5033ZM118.331 20.3792L114.772 24.4403C114.781 24.4482 114.756 24.4276 114.717 24.374C114.678 24.319 114.638 24.2499 114.607 24.1733C114.577 24.0975 114.565 24.04 114.561 24.0143C114.557 23.9906 114.563 24.0121 114.559 24.0898L119.95 24.3939L125.342 24.698C125.522 21.5045 124.397 18.5147 121.89 16.3181L118.331 20.3792ZM119.95 24.3939L114.559 24.0894C114.553 24.1886 114.545 24.0644 114.668 23.854C114.723 23.7578 114.787 23.6786 114.844 23.6206C114.9 23.5644 114.932 23.5464 114.917 23.5561L117.778 28.1361L120.638 32.7161C123.539 30.9045 125.154 28.0302 125.342 24.6984L119.95 24.3939ZM117.778 28.1361L115.009 23.5C114.542 23.7788 113.775 24.0626 112.512 24.1423L112.853 29.5316L113.193 34.9208C115.79 34.7568 118.307 34.1098 120.546 32.7722L117.778 28.1361ZM112.853 29.5316L107.571 28.4065C106.98 31.184 106.209 32.9035 105.498 33.8981L109.892 37.0374L114.286 40.1768C116.164 37.5483 117.366 34.2635 118.134 30.6567L112.853 29.5316ZM109.892 37.0374L105.498 33.898C105.193 34.3258 105.046 34.3768 105.136 34.3263C105.184 34.2992 105.267 34.2629 105.373 34.2384C105.48 34.2139 105.564 34.2119 105.608 34.2144L105.304 39.6058L105 44.9972C109.101 45.2286 112.234 43.0473 114.285 40.1769L109.892 37.0374ZM105.304 39.6058L105.608 34.2144C105.559 34.2116 105.582 34.2077 105.657 34.2306C105.735 34.2546 105.838 34.2986 105.947 34.3692C106.055 34.4396 106.132 34.5126 106.178 34.5648C106.222 34.6141 106.219 34.6245 106.188 34.5652L101.408 37.0785L96.629 39.5917C98.3299 42.8264 101.31 44.7889 105 44.9972L105.304 39.6058ZM101.408 37.0785L106.215 34.6173C105.725 33.66 105.329 32.3993 105.129 30.7415L99.7678 31.39L94.4069 32.0385C94.731 34.7175 95.4293 37.2495 96.6019 39.5397L101.408 37.0785ZM99.7678 31.39L95.5255 28.0489C95.2591 28.3872 94.3658 29.1736 92.0286 30.0094L93.8469 35.0941L95.6652 40.1787C98.9016 39.0214 101.957 37.3386 104.01 34.7311L99.7678 31.39ZM93.8469 35.0941L92.0287 30.0094C89.6127 30.8733 87.0107 31.5075 84.2108 31.8983L84.9573 37.2464L85.7038 42.5946C89.1833 42.1089 92.5077 41.3078 95.6652 40.1788L93.8469 35.0941ZM84.9573 37.2464L84.2108 31.8983C81.2653 32.3094 79.0193 32.4255 77.3882 32.3335L77.0842 37.7249L76.7802 43.1164C79.3663 43.2622 82.3696 43.0599 85.7037 42.5946L84.9573 37.2464ZM77.0842 37.7249L77.3883 32.3335C75.9669 32.2533 75.1133 31.869 74.5347 31.4148L71.2004 35.6624L67.8662 39.9101C70.4549 41.9422 73.5241 42.9327 76.7801 43.1164L77.0842 37.7249ZM71.2004 35.6624L74.5816 31.452C74.0024 30.9869 74.0087 30.7581 73.9993 30.6625L68.6252 31.1908L63.2511 31.719C63.5839 35.1042 65.3078 37.856 67.8193 39.8729L71.2004 35.6624ZM68.6252 31.1908L73.9933 30.6044C73.9491 30.1999 73.939 29.8043 73.961 29.4148L68.5696 29.1107L63.1781 28.8066C63.1223 29.7972 63.1492 30.7885 63.2572 31.7771L68.6252 31.1908ZM68.5696 29.1107L73.961 29.4148C74.0381 28.0476 74.4211 26.8504 75.117 25.7366L70.5373 22.8753L65.9577 20.0141C64.286 22.6897 63.3562 25.6498 63.1781 28.8066L68.5696 29.1107ZM70.5373 22.8753L75.0978 25.7671C75.6721 24.8614 76.4676 24.1796 77.6965 23.7007L75.7356 18.6693L73.7747 13.6379C70.5209 14.906 67.851 17.0279 65.9769 19.9836L70.5373 22.8753ZM75.7356 18.6693L75.8711 13.271C73.7913 13.2188 72.7696 12.8978 72.3917 12.7085L69.9729 17.5365L67.5541 22.3645C69.944 23.5618 72.7642 23.9964 75.6 24.0676L75.7356 18.6693ZM69.9729 17.5365L72.4405 12.7332C72.339 12.6811 72.6543 12.8166 72.9805 13.3069C73.3527 13.8662 73.4759 14.4917 73.4493 14.9626L68.0579 14.6585L62.6664 14.3544C62.5707 16.0523 62.9786 17.7711 63.9892 19.2898C64.9538 20.7395 66.2612 21.7005 67.5053 22.3397L69.9729 17.5365ZM68.0579 14.6585L73.4493 14.9631C73.4423 15.0869 73.4108 15.2662 73.328 15.4652C73.2454 15.6637 73.143 15.8069 73.0681 15.8907C72.9989 15.9681 72.9803 15.9649 73.0714 15.9065C73.1647 15.8468 73.3485 15.745 73.6579 15.624L71.6907 10.5951L69.7234 5.56614C66.3156 6.89924 62.9327 9.64011 62.6665 14.354L68.0579 14.6585ZM71.6907 10.5951L73.6951 15.6093C75.4702 14.8997 77.5673 14.4203 80.0378 14.2359L79.636 8.85092L79.2341 3.46589C75.8339 3.71962 72.633 4.40293 69.6863 5.58084L71.6907 10.5951ZM145.912 11.9857L146.17 17.3795C147.956 17.2943 150.105 17.8331 152.727 19.5523L155.688 15.0365L158.649 10.5207C154.604 7.86833 150.235 6.37322 145.655 6.59182L145.912 11.9857ZM155.688 15.0365L152.752 19.5688C155.564 21.39 157.88 23.6076 159.741 26.2328L164.147 23.1097L168.552 19.9866C165.879 16.216 162.556 13.051 158.623 10.5041L155.688 15.0365ZM164.147 23.1097L159.784 26.2922C161.813 29.0737 162.338 30.833 162.381 31.7286L167.775 31.471L173.169 31.2135C172.98 27.2764 171.087 23.4609 168.509 19.9272L164.147 23.1097ZM167.775 31.471L162.381 31.7283C162.391 31.937 162.359 31.9157 162.412 31.7482C162.439 31.6623 162.485 31.5503 162.557 31.4256C162.631 31.3001 162.719 31.1827 162.817 31.0798L166.724 34.8079L170.63 38.5361C172.685 36.3837 173.286 33.6752 173.169 31.2138L167.775 31.471ZM166.724 34.8079L162.809 31.0882C162.836 31.0597 162.879 31.0201 162.939 30.9785C162.998 30.9366 163.061 30.902 163.12 30.8761C163.246 30.8216 163.29 30.8341 163.189 30.8389L163.447 36.2328L163.704 41.6266C166.283 41.5035 168.738 40.5277 170.638 38.5277L166.724 34.8079ZM163.447 36.2328L163.189 30.8389C162.811 30.8569 161.882 30.7502 160.243 29.9101L157.781 34.7162L155.318 39.5222C157.934 40.8622 160.784 41.7659 163.704 41.6266L163.447 36.2328ZM157.781 34.7162L160.243 29.9101C158.606 29.0718 156.957 27.9123 155.304 26.3789L151.632 30.3382L147.96 34.2975C150.249 36.4202 152.699 38.1802 155.318 39.5222L157.781 34.7162ZM151.632 30.3382L155.304 26.379C153.64 24.8358 152.384 23.3079 151.47 21.8112L146.862 24.6263L142.253 27.4414C143.758 29.904 145.682 32.1847 147.96 34.2975L151.632 30.3382ZM146.862 24.6263L141.89 22.5184C141.324 23.8542 140.221 25.526 138.317 27.5162L142.219 31.2494L146.121 34.9825C148.61 32.3804 150.603 29.636 151.833 26.7342L146.862 24.6263ZM142.219 31.2494L138.319 27.5145C136.468 29.4474 134.482 31.0461 132.363 32.3338L135.167 36.9486L137.971 41.5634C140.933 39.7636 143.649 37.5633 146.119 34.9842L142.219 31.2494ZM135.167 36.9486L132.363 32.3338C130.19 33.6543 128.883 33.9761 128.28 34.0049L128.537 39.3988L128.795 44.7926C131.951 44.6419 135.064 43.3303 137.971 41.5634L135.167 36.9486ZM128.537 39.3988L128.28 34.0049C128.195 34.009 128.217 33.998 128.318 34.0205C128.427 34.0445 128.582 34.0977 128.751 34.1986L125.973 38.8294L123.195 43.4603C124.993 44.5388 126.952 44.8806 128.795 44.7926L128.537 39.3988ZM125.973 38.8294L128.873 34.2744C128.897 34.2894 128.954 34.3304 129.023 34.4037C129.092 34.4781 129.149 34.5599 129.19 34.6368C129.275 34.7957 129.226 34.8078 129.212 34.523L123.819 34.7806L118.425 35.0382C118.582 38.3237 120.002 41.4296 123.073 43.3845L125.973 38.8294ZM123.819 34.7806L129.212 34.523C129.162 33.4641 129.583 31.4842 131.504 28.3358L126.895 25.5228L122.285 22.7098C119.857 26.6889 118.226 30.8807 118.425 35.0382L123.819 34.7806ZM126.895 25.5228L131.519 28.3122C133.329 25.3116 135.675 22.7047 138.599 20.4793L135.329 16.182L132.059 11.8846C128.084 14.9096 124.807 18.5297 122.271 22.7334L126.895 25.5228ZM135.329 16.182L138.578 20.4956C141.396 18.3736 143.907 17.4876 146.17 17.3795L145.912 11.9857L145.655 6.59183C140.784 6.82443 136.24 8.73644 132.081 11.8684L135.329 16.182ZM35.303 11.9828L35.544 17.3774C37.3306 17.2976 39.4777 17.8431 42.0948 19.5706L45.0696 15.0638L48.0443 10.5571C44.0076 7.89256 39.6432 6.38345 35.0619 6.58814L35.303 11.9828ZM45.0696 15.0638L42.1201 19.5872C44.9261 21.4168 47.2352 23.6411 49.0884 26.2721L53.5032 23.1624L57.9179 20.0528C55.2565 16.2744 51.9435 13.0994 48.019 10.5404L45.0696 15.0638ZM53.5032 23.1624L49.131 26.3317C51.1526 29.1206 51.6721 30.8808 51.7121 31.7757L57.1067 31.5345L62.5013 31.2933C62.3252 27.3547 60.4417 23.5336 57.8753 19.9932L53.5032 23.1624ZM57.1067 31.5345L51.7121 31.7756C51.7213 31.9824 51.6901 31.96 51.7436 31.7924C51.7709 31.7066 51.8168 31.595 51.8896 31.4712C51.9629 31.3466 52.0513 31.2302 52.1492 31.1283L56.0442 34.8685L59.9392 38.6086C61.9972 36.4655 62.6116 33.7611 62.5013 31.2934L57.1067 31.5345ZM56.0442 34.8685L52.1412 31.1367C52.1678 31.1088 52.2106 31.0697 52.2698 31.0283C52.3293 30.9867 52.3919 30.9523 52.4518 30.9264C52.578 30.872 52.6233 30.8844 52.5226 30.8889L52.7639 36.2835L53.0053 41.6781C55.5863 41.5627 58.0424 40.5925 59.9472 38.6003L56.0442 34.8685ZM52.7639 36.2835L52.5228 30.8889C52.1453 30.9058 51.2178 30.7964 49.5794 29.9508L47.1028 34.7494L44.6262 39.5479C47.2368 40.8953 50.0835 41.8087 53.005 41.6782L52.7639 36.2835ZM47.1028 34.7494L49.5795 29.9508C47.9442 29.1068 46.2983 27.9428 44.6511 26.4058L40.967 30.3538L37.2829 34.3019C39.5665 36.4328 42.0121 38.1988 44.6261 39.5479L47.1028 34.7494ZM40.967 30.3538L44.6512 26.4058C42.9923 24.8578 41.7408 23.326 40.8308 21.8262L36.2141 24.6273L31.5974 27.4284C33.0941 29.8953 35.011 32.1819 37.2829 34.3019L40.967 30.3538ZM36.2141 24.6273L31.249 22.5043C30.6788 23.8378 29.5715 25.5056 27.6607 27.4907L31.551 31.2357L35.4414 34.9807C37.9383 32.3869 39.9398 29.649 41.1793 26.7503L36.2141 24.6273ZM31.551 31.2357L27.6623 27.4889C25.8055 29.4162 23.8146 31.0088 21.6915 32.2901L24.4817 36.9134L27.2718 41.5367C30.239 39.746 32.9619 37.5541 35.4397 34.9824L31.551 31.2357ZM24.4817 36.9134L21.6916 32.2901C19.5133 33.6046 18.2055 33.9226 17.6036 33.9495L17.845 39.3441L18.0863 44.7387C21.2437 44.5974 24.3601 43.2939 27.2718 41.5368L24.4817 36.9134ZM17.845 39.3441L17.6038 33.9495C17.5204 33.9532 17.5436 33.9425 17.6445 33.9652C17.7521 33.9895 17.9064 34.0428 18.0732 34.1436L15.2815 38.766L12.4897 43.3883C14.2818 44.4707 16.2389 44.8213 18.0861 44.7387L17.845 39.3441ZM15.2815 38.766L18.196 34.22C18.2198 34.2353 18.277 34.2765 18.3454 34.3501C18.4148 34.4247 18.4716 34.5066 18.5122 34.5835C18.5961 34.7424 18.5472 34.754 18.5345 34.4692L13.1399 34.7103L7.74528 34.9514C7.89211 38.2364 9.3026 41.3473 12.367 43.3119L15.2815 38.766ZM13.1399 34.7103L18.5345 34.4694C18.4872 33.4104 18.9143 31.4318 20.8452 28.2893L16.2444 25.4622L11.6435 22.6352C9.20322 26.6066 7.55962 30.7932 7.74526 34.9512L13.1399 34.7103ZM16.2444 25.4622L20.8596 28.2657C22.6791 25.2704 25.0331 22.6703 27.9641 20.4541L24.7073 16.1468L21.4504 11.8395C17.4657 14.8525 14.1777 18.4631 11.6291 22.6588L16.2444 25.4622ZM24.7073 16.1468L27.9426 20.4703C30.7667 18.357 33.2806 17.4785 35.5441 17.3774L35.303 11.9828L35.0618 6.58814C30.1903 6.80589 25.6401 8.70424 21.472 11.8233L24.7073 16.1468Z" fill="white" mask="url(#path-1-outside-1_39_7640)"/>
</g>
<path fill-rule="evenodd" clip-rule="evenodd" d="M193.011 45.0013C196.23 44.7168 199.665 44.8314 203.316 45.3441C205.901 45.7072 208.572 46.2953 211.327 47.1087C213.822 47.8468 215.669 49.1918 216.868 51.1439C218.106 53.1014 218.429 55.6291 217.839 58.7259C217.373 61.2196 216.634 63.4429 215.623 65.3949C214.65 67.3521 213.511 68.8402 212.204 69.8587C210.898 70.8772 209.56 71.2901 208.192 71.098C206.899 70.9164 205.811 70.2396 204.928 69.0687C204.078 67.9412 203.483 66.5201 203.142 64.805C202.839 63.0952 202.816 61.3275 203.073 59.5023C203.126 59.122 203.244 58.5568 203.427 57.807C200.208 58.3631 196.64 58.3658 192.723 57.8158C189.415 57.3511 186.698 56.5426 184.572 55.391C182.484 54.2448 181.552 52.8735 181.776 51.2767C182.021 49.5275 183.15 48.1149 185.162 47.0404C187.213 45.9711 189.829 45.2912 193.011 45.0013ZM234.705 58.8294C236.523 58.8294 237.959 59.4273 239.011 60.6224C240.063 61.7843 240.589 63.2615 240.589 65.054C240.589 66.747 240.015 68.1578 238.867 69.2865C237.719 70.4151 236.205 70.9797 234.323 70.9798C232.506 70.9798 231.07 70.3819 230.018 69.1869C228.966 68.025 228.44 66.5477 228.44 64.7552C228.44 63.0955 228.997 61.7012 230.114 60.5726C231.261 59.4108 232.792 58.8295 234.705 58.8294ZM267.106 58.8294C268.923 58.8294 270.358 59.4274 271.41 60.6224C272.463 61.7843 272.989 63.2615 272.99 65.054C272.99 66.7471 272.415 68.1578 271.267 69.2865C270.119 70.4151 268.604 70.9798 266.723 70.9798C264.905 70.9798 263.471 70.3819 262.418 69.1869C261.366 68.025 260.839 66.5478 260.839 64.7552C260.839 63.0954 261.398 61.7013 262.514 60.5726C263.662 59.4108 265.192 58.8294 267.106 58.8294ZM40.7473 51.2357C43.279 51.1225 45.5648 51.097 47.6047 51.1595C50.6439 51.2159 53.0028 51.9561 54.6809 53.3802C56.3972 54.8025 57.3145 56.8369 57.4329 59.4837C57.5169 61.3635 57.2508 63.1441 56.634 64.8246C56.019 66.5432 55.1197 67.9286 53.9368 68.9808C52.794 70.0696 51.4939 70.647 50.0364 70.7122C48.0416 70.8014 46.3219 70.1858 44.8791 68.8665C43.4366 67.5473 42.6675 65.8135 42.5715 63.6654C42.5595 63.3968 42.5779 62.9535 42.6272 62.3363C38.8253 63.275 34.757 63.8417 30.4221 64.0355C26.4327 64.2138 23.0974 63.9783 20.4163 63.3294C17.7369 62.7189 16.2873 61.6884 16.0686 60.2376C15.8414 58.595 16.8331 57.1286 19.0432 55.8382C21.2918 54.5461 24.3397 53.5061 28.1868 52.7191C32.0338 51.9321 36.2207 51.438 40.7473 51.2357ZM151.476 51.221C154.007 51.1001 156.294 51.068 158.334 51.1244C161.373 51.1715 163.734 51.9047 165.416 53.3236C167.137 54.7406 168.06 56.772 168.187 59.4183C168.277 61.2976 168.016 63.0789 167.405 64.7611C166.795 66.4817 165.9 67.8702 164.72 68.9261C163.58 70.0184 162.282 70.5996 160.824 70.6693C158.83 70.7645 157.109 70.1541 155.662 68.8392C154.216 67.5244 153.441 65.7935 153.338 63.6458C153.325 63.3774 153.342 62.934 153.39 62.3167C149.591 63.267 145.525 63.8451 141.191 64.0521C137.202 64.2426 133.865 64.018 131.182 63.3773C128.5 62.7749 127.048 61.7484 126.825 60.2982C126.593 58.6562 127.58 57.1871 129.786 55.89C132.031 54.591 135.076 53.5422 138.92 52.7435C142.765 51.9448 146.95 51.4372 151.476 51.221ZM250.906 57.4798C252.723 57.4798 254.159 58.0556 255.211 59.2064C256.263 60.3252 256.789 61.7479 256.789 63.474C256.789 65.104 256.215 66.4624 255.068 67.5492C253.92 68.636 252.404 69.18 250.523 69.18C248.705 69.18 247.27 68.6042 246.218 67.4535C245.166 66.3346 244.639 64.9121 244.639 63.1859C244.639 61.5875 245.198 60.2444 246.314 59.1576C247.462 58.0389 248.992 57.4799 250.906 57.4798ZM84.3381 40.0384C87.5229 39.4873 90.9555 39.3152 94.636 39.5228C97.243 39.6698 99.9535 40.0348 102.767 40.6165C105.314 41.1448 107.266 42.3315 108.623 44.1771C110.019 46.025 110.552 48.5167 110.221 51.6517C109.963 54.1756 109.412 56.4526 108.567 58.4818C107.76 60.5131 106.748 62.0906 105.531 63.2142C104.313 64.3378 103.014 64.8604 101.634 64.7826C100.331 64.709 99.1908 64.1258 98.2141 63.0326C97.2735 61.9795 96.5614 60.612 96.0793 58.931C95.6357 57.2523 95.4658 55.4928 95.5696 53.6527C95.5912 53.2693 95.6626 52.6963 95.7825 51.9339C92.6208 52.7556 89.0653 53.0551 85.1164 52.8324C81.781 52.6442 79.0057 52.0642 76.7913 51.0931C74.6154 50.1243 73.5727 48.835 73.6633 47.2249C73.7628 45.4613 74.7708 43.9601 76.6868 42.722C78.641 41.4862 81.1917 40.5917 84.3381 40.0384ZM146.611 31.4437C148.298 31.3631 149.828 32.001 151.199 33.3578C152.571 34.7147 153.421 36.4042 153.748 38.4261L153.847 39.2865C156.528 39.0815 158.387 38.9541 159.423 38.9046C163.872 38.6922 167.165 38.8236 169.302 39.2982C171.476 39.7326 172.594 40.6015 172.656 41.9056C172.783 44.5522 168.802 46.5303 160.714 47.8392C152.665 49.1462 144.881 49.9792 137.364 50.3382C132.032 50.5928 128.008 50.4578 125.292 49.9339C122.575 49.3718 121.181 48.3812 121.114 46.9622C121.04 45.428 122.577 44.1815 125.722 43.224C128.867 42.2665 133.822 41.3768 140.587 40.554L140.576 40.3236C140.529 40.1336 140.495 39.8275 140.475 39.4056C140.413 38.1016 140.641 36.8417 141.159 35.6253C141.678 34.4088 142.419 33.4308 143.383 32.6927C144.346 31.9163 145.422 31.5005 146.611 31.4437ZM35.9416 31.4427C37.6296 31.3673 39.1579 32.0103 40.5256 33.3714C41.8933 34.7325 42.7378 36.4248 43.0588 38.4476L43.1545 39.3079C45.8364 39.1112 47.6959 38.99 48.7317 38.9437C53.1814 38.7448 56.4741 38.8854 58.6096 39.3665C60.7818 39.8076 61.897 40.6804 61.9553 41.9847C62.0735 44.6316 58.0868 46.597 49.9954 47.8812C41.9424 49.1636 34.1566 49.9728 26.6379 50.3089C21.3058 50.5473 17.2821 50.4006 14.5676 49.8685C11.8517 49.2981 10.4614 48.3033 10.3977 46.8841C10.3291 45.3497 11.869 44.1084 15.0168 43.1605C18.1649 42.2126 23.1231 41.3367 29.8909 40.5345L29.8801 40.305C29.8332 40.115 29.8004 39.8088 29.7815 39.3871C29.7232 38.0828 29.9555 36.8227 30.4778 35.6078C31 34.3929 31.7447 33.418 32.7112 32.6829C33.6759 31.9096 34.7526 31.4959 35.9416 31.4427ZM190.916 13.5306C193.903 13.5235 196.518 13.6774 198.762 13.9925C204.314 14.7723 207.046 16.4366 206.96 18.9837C206.941 19.9502 206.335 20.8155 205.142 21.5785C203.992 22.3089 202.34 22.8904 200.185 23.3246C198.068 23.764 195.598 23.96 192.774 23.9124C193.285 24.4108 193.643 25.1786 193.846 26.2152C194.087 27.2573 194.131 28.3302 193.976 29.4329C193.874 30.1553 193.713 30.753 193.491 31.2259C194.826 30.5603 196.362 30.1172 198.099 29.8958C199.874 29.6799 201.617 29.6917 203.328 29.932C206.18 30.3325 208.186 31.2345 209.346 32.638C209.923 28.5312 211.017 24.6133 212.626 20.8841C214.241 17.1171 216.455 15.4314 219.269 15.8265C221.246 16.1042 222.558 17.2579 223.203 19.2874C223.854 21.2788 224.142 23.5099 224.067 25.9808C225.99 26.3673 227.474 27.1185 228.52 28.2347C229.603 29.3563 230.03 30.7353 229.8 32.3704C229.57 34.0052 228.745 35.1883 227.324 35.9193C225.909 36.6123 224.233 36.9396 222.3 36.9007C221.357 40.0254 220.165 42.4364 218.725 44.1341C217.284 45.8318 215.69 46.5584 213.941 46.3128C212.191 46.0672 210.967 45.1193 210.268 43.4701C209.574 41.783 209.187 39.848 209.106 37.6654C207.827 39.0368 205.758 40.103 202.898 40.8646C200.038 41.6262 197.025 42.095 193.86 42.2708C190.694 42.4467 188.065 42.3878 185.974 42.0941C183.654 41.7683 181.756 40.9206 180.281 39.5501C178.845 38.1851 178.114 36.6278 178.088 34.8792C178.07 34.1789 178.109 33.4864 178.205 32.8021C178.52 30.5585 179.347 28.5411 180.684 26.7513C182.064 24.929 183.908 23.6758 186.214 22.9915C183.77 22.7258 181.886 22.1901 180.565 21.3841C179.281 20.5835 178.725 19.5744 178.896 18.3578C179.147 16.5705 180.466 15.3204 182.854 14.6087C185.285 13.8644 187.973 13.505 190.916 13.5306ZM79.636 8.85092C82.6117 8.59573 85.2305 8.53096 87.4924 8.65854C93.0897 8.97425 95.9515 10.4052 96.0774 12.9505C96.1383 13.9155 95.606 14.8283 94.4807 15.6878C93.3958 16.5112 91.7972 17.2285 89.6858 17.8402C87.6128 18.454 85.167 18.8551 82.3489 19.0423C82.9001 19.4965 83.3208 20.2312 83.6096 21.2474C83.9368 22.2658 84.0688 23.331 84.0061 24.4427C83.965 25.171 83.8535 25.7802 83.6721 26.2699C84.9465 25.4956 86.4408 24.9268 88.1536 24.5619C89.9045 24.1992 91.6424 24.0662 93.3674 24.1634C96.2429 24.3256 98.3174 25.0581 99.5901 26.3607C99.8236 22.2201 100.587 18.2244 101.881 14.3744C103.177 10.486 105.244 8.62159 108.081 8.78158C110.075 8.89403 111.478 9.9348 112.29 11.9037C113.104 13.8342 113.576 16.0344 113.706 18.5033C115.655 18.7286 117.197 19.3538 118.331 20.3792C119.504 21.4069 120.043 22.7455 119.95 24.3939C119.857 26.0422 119.133 27.2895 117.778 28.1361C116.424 28.9443 114.783 29.4097 112.853 29.5316C112.173 32.7238 111.186 35.2259 109.892 37.0374C108.597 38.849 107.068 39.7053 105.304 39.6058C103.541 39.5062 102.242 38.6637 101.408 37.0785C100.577 35.4548 100.03 33.5584 99.7678 31.39C98.6078 32.8629 96.6337 34.0975 93.8469 35.0941C91.0602 36.0906 88.097 36.8082 84.9573 37.2464C81.8174 37.6847 79.1928 37.8438 77.0842 37.7249C74.7455 37.593 72.7841 36.9056 71.2004 35.6624C69.6551 34.4215 68.7963 32.9311 68.6252 31.1908C68.5491 30.4942 68.5307 29.8008 68.5696 29.1107C68.6972 26.8487 69.3536 24.7701 70.5373 22.8753C71.7616 20.9446 73.4943 19.5428 75.7356 18.6693C73.2778 18.6076 71.3568 18.2298 69.9729 17.5365C68.6273 16.8452 67.9887 15.8854 68.0579 14.6585C68.1596 12.8569 69.3708 11.5026 71.6907 10.5951C74.0516 9.65131 76.7006 9.06996 79.636 8.85092ZM145.912 11.9857C149.096 11.8337 152.354 12.8507 155.688 15.0365C159.06 17.2205 161.88 19.9118 164.147 23.1097C166.45 26.2673 167.659 29.0547 167.775 31.471C167.842 32.89 167.493 34.0024 166.724 34.8079C165.882 35.6939 164.789 36.1686 163.447 36.2328C161.797 36.3114 159.908 35.8062 157.781 34.7162C155.653 33.626 153.603 32.1662 151.632 30.3382C149.661 28.5102 148.071 26.606 146.862 24.6263C145.963 26.7451 144.416 28.9532 142.219 31.2494C140.059 33.5053 137.708 35.4049 135.167 36.9486C132.627 38.4923 130.417 39.309 128.537 39.3988C127.54 39.4464 126.685 39.2567 125.973 38.8294C124.625 37.9712 123.907 36.6216 123.819 34.7806C123.694 32.1724 124.72 29.0866 126.895 25.5228C129.068 21.9206 131.879 18.8071 135.329 16.182C138.818 13.555 142.345 12.156 145.912 11.9857ZM35.303 11.9828C38.4869 11.8405 41.7427 12.8678 45.0696 15.0638C48.4348 17.2581 51.2459 19.9577 53.5032 23.1624C55.7971 26.3271 56.9986 29.1178 57.1067 31.5345C57.1701 32.9539 56.8155 34.0653 56.0442 34.8685C55.1997 35.7518 54.1064 36.2235 52.7639 36.2835C51.1144 36.3573 49.2273 35.8458 47.1028 34.7494C44.9782 33.6528 42.9324 32.1878 40.967 30.3538C39.0017 28.5199 37.4175 26.6106 36.2141 24.6273C35.3093 26.7434 33.7549 28.9462 31.551 31.2357C29.3837 33.4851 27.0268 35.3774 24.4817 36.9134C21.9367 38.4493 19.7246 39.26 17.845 39.3441C16.8476 39.3887 15.9926 39.1954 15.2815 38.766C13.9364 37.9036 13.2222 36.5514 13.1399 34.7103C13.0234 32.1018 14.0588 29.0192 16.2444 25.4622C18.4284 21.8668 21.2494 18.7614 24.7073 16.1468C28.2034 13.5306 31.7354 12.1422 35.303 11.9828Z" fill="#202025"/>
<defs>
<filter id="filter0_d_39_7640" x="0.000116348" y="6.55651e-06" width="283.385" height="83.3396" filterUnits="userSpaceOnUse" color-interpolation-filters="sRGB">
<feFlood flood-opacity="0" result="BackgroundImageFix"/>
<feColorMatrix in="SourceAlpha" type="matrix" values="0 0 0 0 0 0 0 0 0 0 0 0 0 0 0 0 0 0 127 0" result="hardAlpha"/>
<feOffset dy="1.8"/>
<feGaussianBlur stdDeviation="2.4975"/>
<feComposite in2="hardAlpha" operator="out"/>
<feColorMatrix type="matrix" values="0 0 0 0 0.305345 0 0 0 0 0.305345 0 0 0 0 0.305345 0 0 0 0.25 0"/>
<feBlend mode="normal" in2="BackgroundImageFix" result="effect1_dropShadow_39_7640"/>
<feBlend mode="normal" in="SourceGraphic" in2="effect1_dropShadow_39_7640" result="shape"/>
</filter>
</defs>
</svg>
