<svg width="374" height="147" viewBox="0 0 374 147" fill="none" xmlns="http://www.w3.org/2000/svg">
<rect x="0.199573" y="0.199573" width="373.601" height="140.499" rx="9.39017" fill="white" stroke="#E1E1E1" stroke-width="0.399146"/>
<rect x="58.6748" y="25.5453" width="46.3778" height="25.9787" rx="4.78975" fill="#F4E0E0"/>
<path d="M66.159 41.0078C66.7035 41.7279 67.5465 42.1142 68.2138 42.1318C69.1271 42.1318 69.7945 41.6752 69.812 40.9727C69.8296 39.6731 64.9648 40.0243 65.035 37.0211C65.0702 35.3878 66.4927 34.299 68.5124 34.3341C69.5837 34.3692 70.8482 34.9136 71.5507 35.8269L70.1457 37.0036C69.7067 36.4065 69.0042 36.0728 68.4597 36.0728C67.687 36.0552 67.1425 36.4416 67.1425 37.0211C67.125 38.391 71.9898 37.9695 71.9195 41.0078C71.8844 42.7289 70.3389 43.9056 68.1612 43.8529C66.9669 43.8354 65.5619 43.2031 64.7365 42.1669L66.159 41.0078ZM78.7077 43.3085C78.2686 43.5017 77.8822 43.73 76.8636 43.73C75.2303 43.73 74.0888 42.5182 74.0888 40.7795V36.3362H72.4555V34.5273H74.0888V31.9105H76.1962V34.5273H78.5321V36.3362H76.1962V40.7795C76.1962 41.4117 76.5475 41.8684 77.0568 41.9035C77.5134 41.9386 78.0052 41.6401 78.0403 41.6401L78.7077 43.3085ZM83.9134 42.044C85.3711 42.044 86.3195 40.8849 86.3195 39.0935C86.3195 37.3197 85.3711 36.1255 83.9134 36.1255C82.4557 36.1255 81.5074 37.3197 81.5074 39.0935C81.5074 40.8849 82.4557 42.044 83.9134 42.044ZM79.3999 39.0935C79.3999 36.3362 81.2615 34.4043 83.9134 34.4043C86.5654 34.4043 88.427 36.3362 88.427 39.0935C88.427 41.8508 86.5654 43.7827 83.9134 43.7827C81.2615 43.7827 79.3999 41.8508 79.3999 39.0935ZM94.4682 42.0616C95.961 42.0616 96.9445 40.8849 96.9445 39.0759C96.9445 37.2846 95.961 36.1079 94.4682 36.1079C93.0281 36.1079 91.8514 37.4251 91.8514 39.0759C91.8514 40.7268 93.0281 42.0616 94.4682 42.0616ZM89.7439 47.5937V34.4043H91.8514V35.8445C92.6066 34.738 94.0116 34.3868 94.6262 34.3868C97.2255 34.3868 99.052 36.3362 99.052 39.0759C99.052 41.8332 97.2255 43.7827 94.6262 43.7827C93.994 43.7827 92.6066 43.4666 91.8514 42.3074V47.5937H89.7439Z" fill="#BE4741"/>
<path d="M113.457 38.5789H117.825V37.5954H114.709V33.6614H122.551V34.9131H116.267V36.3309H122.615V37.5954H119.409V38.5789H123.79V39.8306H113.457V38.5789ZM114.619 42.5256C114.619 41.1845 116.114 40.4181 118.579 40.4181C121.057 40.4181 122.551 41.1845 122.551 42.5256C122.551 43.8668 121.057 44.6203 118.579 44.6203C116.114 44.6203 114.619 43.8668 114.619 42.5256ZM116.216 42.5256C116.216 43.1387 117.033 43.4197 118.579 43.4197C120.15 43.4197 120.955 43.1387 120.955 42.5256C120.955 41.9125 120.15 41.6188 118.579 41.6188C117.033 41.6188 116.216 41.9125 116.216 42.5256ZM124.353 42.0275H126.996V40.2393H125.553V36.4203H131.965V35.1558H125.528V33.9041H133.536V37.6592H127.111V38.9748H133.792V40.2393H132.169V42.0275H134.711V43.3175H124.353V42.0275ZM128.555 42.0275H130.624V40.2393H128.555V42.0275ZM138.926 33.9168C140.715 33.9168 142.056 35.0919 142.056 36.7268C142.056 38.3745 140.715 39.5368 138.926 39.5368C137.126 39.5368 135.772 38.3745 135.772 36.7268C135.772 35.0919 137.126 33.9168 138.926 33.9168ZM135.286 40.9929C137.304 40.9929 140.127 40.9801 142.541 40.6225L142.656 41.772C140.165 42.2574 137.458 42.2829 135.478 42.2829L135.286 40.9929ZM137.317 36.7268C137.317 37.6337 138.007 38.1829 138.926 38.1829C139.821 38.1829 140.51 37.6337 140.51 36.7268C140.51 35.8072 139.821 35.2707 138.926 35.2707C138.007 35.2707 137.317 35.8072 137.317 36.7268ZM143.18 44.6203V33.1377H144.764V44.6203H143.18ZM200.338 33.3293C202.944 33.3293 204.477 34.0062 204.477 35.2835C204.477 36.548 202.944 37.2377 200.338 37.2377C197.745 37.2377 196.2 36.548 196.2 35.2835C196.2 34.0062 197.745 33.3293 200.338 33.3293ZM195.165 39.0515V37.787H205.511V39.0515H195.165ZM196.353 40.8907V39.7156H204.247V42.6278H197.924V43.3303H204.553V44.5182H196.379V41.5166H202.688V40.8907H196.353ZM197.848 35.2835C197.848 35.8327 198.665 36.0754 200.338 36.0754C202.011 36.0754 202.829 35.8327 202.829 35.2835C202.829 34.7471 202.011 34.4788 200.338 34.4788C198.665 34.4788 197.848 34.7471 197.848 35.2835ZM209.03 33.8402H215.212V35.1047H212.938C212.951 36.4586 213.769 37.8253 215.595 38.4256L214.778 39.6518C213.526 39.243 212.67 38.4128 212.172 37.391C211.661 38.515 210.754 39.4091 209.426 39.8561L208.596 38.6172C210.486 38.0169 211.329 36.5352 211.342 35.1047H209.03V33.8402ZM210.141 41.8231V40.5714H217.754V44.6076H216.17V41.8231H210.141ZM216.17 40.0477V33.1633H217.754V35.9477H219.299V37.2505H217.754V40.0477H216.17ZM222.339 33.7636H223.949V34.7215C223.949 36.2542 224.728 37.672 226.529 38.2468L225.699 39.4857C224.498 39.0642 223.668 38.2723 223.182 37.2633C222.671 38.4384 221.752 39.3708 220.398 39.8306L219.568 38.5533C221.496 37.9275 222.339 36.3947 222.339 34.7982V33.7636ZM221.432 42.3724C221.432 40.9929 222.94 40.1627 225.354 40.1627C227.768 40.1627 229.262 40.9929 229.262 42.3724C229.262 43.7901 227.768 44.6076 225.354 44.6076C222.94 44.6076 221.432 43.7901 221.432 42.3724ZM223.029 42.3724C223.029 43.0493 223.834 43.3942 225.354 43.3942C226.861 43.3942 227.691 43.0493 227.691 42.3724C227.691 41.7209 226.861 41.3889 225.354 41.3889C223.834 41.3889 223.029 41.7209 223.029 42.3724ZM225.494 36.5608V35.2707H227.627V33.1633H229.224V39.8689H227.627V36.5608H225.494ZM230.565 34.9003H232.545V33.457H234.103V34.9003H236.057V36.1521H230.565V34.9003ZM230.821 39.4091C230.821 37.8253 231.881 36.7013 233.324 36.7013C234.78 36.7013 235.828 37.8253 235.828 39.4091C235.828 41.0057 234.78 42.1169 233.324 42.1169C231.881 42.1169 230.821 41.0057 230.821 39.4091ZM232.226 39.4091C232.226 40.3032 232.685 40.8013 233.324 40.8013C233.976 40.8013 234.435 40.3032 234.435 39.4091C234.435 38.5278 233.976 38.0041 233.324 38.0041C232.685 38.0041 232.226 38.5278 232.226 39.4091ZM236.479 44.1094V33.3804H237.961V37.8253H238.88V33.1505H240.387V44.5948H238.88V39.1025H237.961V44.1094H236.479ZM241.499 41.9636H243.798V39.1409C242.929 38.6044 242.393 37.787 242.393 36.7779C242.393 34.9259 244.207 33.7253 246.659 33.7253C249.124 33.7253 250.925 34.9259 250.925 36.7779C250.925 37.7742 250.401 38.5916 249.546 39.1281V41.9636H251.858V43.2537H241.499V41.9636ZM243.964 36.7779C243.964 37.9275 245.05 38.6044 246.659 38.6044C248.281 38.6044 249.367 37.9275 249.367 36.7779C249.367 35.6284 248.281 34.9514 246.659 34.9514C245.05 34.9514 243.964 35.6284 243.964 36.7779ZM245.382 41.9636H247.962V39.7156C247.553 39.805 247.119 39.8434 246.659 39.8434C246.212 39.8434 245.778 39.805 245.382 39.7284V41.9636ZM253.493 42.1808C253.991 42.1808 254.349 42.5384 254.349 43.0365C254.349 43.5347 253.991 43.9051 253.493 43.9051C252.982 43.9051 252.624 43.5347 252.624 43.0365C252.624 42.5384 252.982 42.1808 253.493 42.1808Z" fill="#3B3B3B"/>
<path d="M151.91 33.9552C153.647 33.9552 154.899 35.5262 154.899 38.0296C154.899 40.5459 153.647 42.1169 151.91 42.1169C150.173 42.1169 148.921 40.5459 148.921 38.0296C148.921 35.5262 150.173 33.9552 151.91 33.9552ZM150.441 38.0296C150.441 39.7412 151.028 40.6864 151.91 40.6864C152.791 40.6864 153.391 39.7412 153.391 38.0296C153.391 36.3181 152.791 35.3857 151.91 35.3857C151.028 35.3857 150.441 36.3181 150.441 38.0296ZM156.214 44.6076V33.1633H157.798V37.506H159.484V38.8088H157.798V44.6076H156.214ZM162.652 33.6358H164.3V34.2362C164.3 35.4368 165.117 36.5352 166.982 36.9567L166.292 38.1701C164.938 37.8636 164.006 37.1739 163.495 36.2542C162.984 37.2633 162.039 38.0424 160.634 38.4128L159.906 37.1739C161.809 36.7141 162.652 35.5007 162.652 34.2362V33.6358ZM159.778 39.1409C161.809 39.1409 164.632 39.1153 167.058 38.7705L167.161 39.9072C166.228 40.086 165.258 40.201 164.3 40.2776V44.2499H162.716V40.367C161.72 40.4054 160.787 40.4181 159.957 40.4181L159.778 39.1409ZM167.723 44.6076V33.1505H169.306V44.6076H167.723ZM170.673 38.7449H181.032V39.9966H176.728V42.0019H175.131V39.9966H170.673V38.7449ZM171.734 35.7433C171.734 34.3 173.381 33.3676 175.834 33.3676C178.299 33.3676 179.946 34.3 179.946 35.7433C179.946 37.1866 178.299 38.1063 175.834 38.1063C173.381 38.1063 171.734 37.1866 171.734 35.7433ZM171.887 44.3904V40.9801H173.483V43.1259H179.895V44.3904H171.887ZM173.432 35.7433C173.432 36.4586 174.365 36.8546 175.834 36.8546C177.315 36.8546 178.248 36.4586 178.248 35.7433C178.248 35.0153 177.315 34.6321 175.834 34.6321C174.365 34.6321 173.432 35.0153 173.432 35.7433ZM190.426 35.82H192.214V33.1633H193.811V39.7795H192.214V37.0972H190.426V35.82ZM184.193 38.5406C186.032 37.9402 186.888 36.4714 186.914 35.0153H184.627V33.7508H190.784V35.0153H188.523C188.549 36.3564 189.366 37.7359 191.142 38.3234L190.35 39.5624C189.098 39.1409 188.242 38.2979 187.744 37.2633C187.246 38.4128 186.339 39.3452 184.998 39.7923L184.193 38.5406ZM186.199 44.4798V40.2521H193.811V44.4798H186.199ZM187.757 43.2281H192.266V41.491H187.757V43.2281Z" fill="#BE4741"/>
<rect x="55.4814" y="57.4771" width="50.3778" height="25.9787" rx="4.78975" fill="#DCF0D8"/>
<path d="M63.4 72.9395C63.9444 73.6596 64.7874 74.046 65.4548 74.0635C66.3681 74.0635 67.0354 73.6069 67.053 72.9044C67.0706 71.6048 62.2058 71.956 62.276 68.9529C62.3111 67.3196 63.7337 66.2307 65.7534 66.2658C66.8247 66.3009 68.0892 66.8454 68.7917 67.7586L67.3867 68.9353C66.9476 68.3382 66.2451 68.0045 65.7007 68.0045C64.9279 67.9869 64.3835 68.3733 64.3835 68.9529C64.3659 70.3227 69.2307 69.9012 69.1605 72.9395C69.1254 74.6607 67.5799 75.8373 65.4021 75.7847C64.2079 75.7671 62.8029 75.1349 61.9775 74.0987L63.4 72.9395ZM75.9486 75.2402C75.5096 75.4334 75.1232 75.6617 74.1046 75.6617C72.4713 75.6617 71.3297 74.4499 71.3297 72.7112V68.2679H69.6964V66.459H71.3297V63.8422H73.4372V66.459H75.773V68.2679H73.4372V72.7112C73.4372 73.3435 73.7885 73.8001 74.2978 73.8352C74.7544 73.8704 75.2461 73.5718 75.2813 73.5718L75.9486 75.2402ZM81.2246 74.0109C82.6121 74.0109 83.7888 72.7464 83.8063 71.0428C83.7888 69.3568 82.6121 68.0923 81.2246 68.0923C79.7494 68.0923 78.7483 69.269 78.7483 71.0428C78.7483 72.8342 79.7494 74.0109 81.2246 74.0109ZM76.6409 71.0428C76.6409 68.3031 78.4673 66.3712 81.049 66.3712C82.0501 66.3712 83.0687 66.8454 83.8063 67.8289V66.3361H85.9138V75.6617H83.8063V74.2743C83.0687 75.2753 82.0501 75.732 81.049 75.732C78.4673 75.732 76.6409 73.8001 76.6409 71.0428ZM89.6191 68.0221C90.1284 67.021 91.2875 66.3185 92.4291 66.3185V68.1977C90.7255 68.1977 89.6191 69.7607 89.6191 71.0955V75.6617H87.5291V66.3361H89.6191V68.0221ZM99.3863 75.2402C98.9472 75.4334 98.5608 75.6617 97.5422 75.6617C95.9089 75.6617 94.7673 74.4499 94.7673 72.7112V68.2679H93.134V66.459H94.7673V63.8422H96.8748V66.459H99.2106V68.2679H96.8748V72.7112C96.8748 73.3435 97.2261 73.8001 97.7354 73.8352C98.192 73.8704 98.6838 73.5718 98.7189 73.5718L99.3863 75.2402Z" fill="#548164"/>
<path d="M114.264 70.5106H118.632V69.5271H115.516V65.5931H123.358V66.8448H117.074V68.2626H123.422V69.5271H120.216V70.5106H124.597V71.7623H114.264V70.5106ZM115.426 74.4573C115.426 73.1162 116.921 72.3498 119.386 72.3498C121.864 72.3498 123.358 73.1162 123.358 74.4573C123.358 75.7985 121.864 76.552 119.386 76.552C116.921 76.552 115.426 75.7985 115.426 74.4573ZM117.023 74.4573C117.023 75.0704 117.84 75.3514 119.386 75.3514C120.957 75.3514 121.761 75.0704 121.761 74.4573C121.761 73.8442 120.957 73.5505 119.386 73.5505C117.84 73.5505 117.023 73.8442 117.023 74.4573ZM125.159 73.9592H127.803V72.171H126.36V68.352H132.772V67.0875H126.334V65.8358H134.343V69.5909H127.918V70.9065H134.598V72.171H132.976V73.9592H135.518V75.2492H125.159V73.9592ZM129.361 73.9592H131.431V72.171H129.361V73.9592ZM139.733 65.8485C141.521 65.8485 142.862 67.0236 142.862 68.6585C142.862 70.3062 141.521 71.4685 139.733 71.4685C137.932 71.4685 136.578 70.3062 136.578 68.6585C136.578 67.0236 137.932 65.8485 139.733 65.8485ZM136.093 72.9246C138.111 72.9246 140.934 72.9118 143.348 72.5542L143.463 73.7037C140.972 74.1891 138.264 74.2146 136.284 74.2146L136.093 72.9246ZM138.124 68.6585C138.124 69.5654 138.813 70.1146 139.733 70.1146C140.627 70.1146 141.317 69.5654 141.317 68.6585C141.317 67.7389 140.627 67.2024 139.733 67.2024C138.813 67.2024 138.124 67.7389 138.124 68.6585ZM143.986 76.552V65.0694H145.57V76.552H143.986ZM152.32 65.6953H153.93V66.6532C153.93 68.1859 154.709 69.6037 156.51 70.1785L155.68 71.4174C154.479 70.9959 153.649 70.204 153.163 69.195C152.653 70.3701 151.733 71.3025 150.379 71.7623L149.549 70.485C151.477 69.8592 152.32 68.3264 152.32 66.7299V65.6953ZM151.414 74.3041C151.414 72.9246 152.921 72.0944 155.335 72.0944C157.749 72.0944 159.243 72.9246 159.243 74.3041C159.243 75.7218 157.749 76.5393 155.335 76.5393C152.921 76.5393 151.414 75.7218 151.414 74.3041ZM153.01 74.3041C153.01 74.981 153.815 75.3259 155.335 75.3259C156.842 75.3259 157.672 74.981 157.672 74.3041C157.672 73.6526 156.842 73.3206 155.335 73.3206C153.815 73.3206 153.01 73.6526 153.01 74.3041ZM155.475 68.4925V67.2024H157.608V65.095H159.205V71.8006H157.608V68.4925H155.475ZM160.827 65.8485H167.009V67.1258H164.736C164.749 68.4669 165.553 69.757 167.367 70.319L166.613 71.5452C165.349 71.162 164.48 70.3828 163.982 69.3993C163.484 70.5617 162.564 71.4941 161.198 71.9411L160.406 70.7022C162.283 70.0635 163.126 68.5819 163.139 67.1258H160.827V65.8485ZM161.964 74.3168C161.964 72.9246 163.459 72.1072 165.834 72.1072C168.197 72.1072 169.692 72.9246 169.692 74.3168C169.692 75.7091 168.197 76.5393 165.834 76.5393C163.459 76.5393 161.964 75.7091 161.964 74.3168ZM163.535 74.3168C163.535 74.981 164.353 75.3259 165.834 75.3259C167.303 75.3259 168.121 74.981 168.121 74.3168C168.121 73.6526 167.303 73.3333 165.834 73.3333C164.353 73.3333 163.535 73.6526 163.535 74.3168ZM167.967 71.89V65.095H169.551V67.7517H171.097V69.0417H169.551V71.89H167.967ZM176.64 65.261C179.246 65.261 180.779 65.938 180.779 67.2152C180.779 68.4797 179.246 69.1694 176.64 69.1694C174.047 69.1694 172.502 68.4797 172.502 67.2152C172.502 65.938 174.047 65.261 176.64 65.261ZM171.467 70.9832V69.7187H181.813V70.9832H171.467ZM172.655 72.8224V71.6473H180.549V74.5595H174.226V75.262H180.855V76.4499H172.681V73.4483H178.99V72.8224H172.655ZM174.15 67.2152C174.15 67.7644 174.967 68.0071 176.64 68.0071C178.313 68.0071 179.131 67.7644 179.131 67.2152C179.131 66.6788 178.313 66.4105 176.64 66.4105C174.967 66.4105 174.15 66.6788 174.15 67.2152ZM188.768 65.5548C190.505 65.5548 191.757 66.551 191.757 67.9944C191.757 69.4121 190.505 70.4212 188.768 70.4212C187.043 70.4212 185.779 69.4121 185.779 67.9944C185.779 66.551 187.043 65.5548 188.768 65.5548ZM185.089 71.1237C187.095 71.1237 189.93 71.1109 192.37 70.7277L192.472 71.89C191.527 72.0688 190.569 72.1966 189.611 72.2732V76.1816H188.027V72.3626C187.031 72.4009 186.086 72.4137 185.268 72.4137L185.089 71.1237ZM187.299 67.9944C187.299 68.7096 187.912 69.1311 188.768 69.1311C189.624 69.1311 190.249 68.7096 190.249 67.9944C190.249 67.2535 189.624 66.832 188.768 66.832C187.912 66.832 187.299 67.2535 187.299 67.9944ZM193.034 76.5393V65.0822H194.618V76.5393H193.034ZM195.959 66.832H197.939V65.3887H199.497V66.832H201.451V68.0838H195.959V66.832ZM196.215 71.3408C196.215 69.757 197.275 68.633 198.718 68.633C200.174 68.633 201.221 69.757 201.221 71.3408C201.221 72.9374 200.174 74.0486 198.718 74.0486C197.275 74.0486 196.215 72.9374 196.215 71.3408ZM197.62 71.3408C197.62 72.2349 198.079 72.733 198.718 72.733C199.369 72.733 199.829 72.2349 199.829 71.3408C199.829 70.4595 199.369 69.9358 198.718 69.9358C198.079 69.9358 197.62 70.4595 197.62 71.3408ZM201.873 76.0411V65.3121H203.355V69.757H204.274V65.0822H205.781V76.5265H204.274V71.0343H203.355V76.0411H201.873ZM296.475 65.261C299.081 65.261 300.613 65.938 300.613 67.2152C300.613 68.4797 299.081 69.1694 296.475 69.1694C293.882 69.1694 292.337 68.4797 292.337 67.2152C292.337 65.938 293.882 65.261 296.475 65.261ZM291.302 70.9832V69.7187H301.648V70.9832H291.302ZM292.49 72.8224V71.6473H300.383V74.5595H294.061V75.262H300.69V76.4499H292.515V73.4483H298.825V72.8224H292.49ZM293.984 67.2152C293.984 67.7644 294.802 68.0071 296.475 68.0071C298.148 68.0071 298.966 67.7644 298.966 67.2152C298.966 66.6788 298.148 66.4105 296.475 66.4105C294.802 66.4105 293.984 66.6788 293.984 67.2152ZM305.167 65.7719H311.349V67.0364H309.075C309.088 68.3903 309.905 69.757 311.732 70.3573L310.914 71.5835C309.663 71.1747 308.807 70.3445 308.309 69.3227C307.798 70.4467 306.891 71.3408 305.563 71.7878L304.732 70.5489C306.623 69.9486 307.466 68.4669 307.478 67.0364H305.167V65.7719ZM306.278 73.7548V72.5031H313.89V76.5393H312.307V73.7548H306.278ZM312.307 71.9794V65.095H313.89V67.8794H315.436V69.1822H313.89V71.9794H312.307ZM318.476 65.6953H320.085V66.6532C320.085 68.1859 320.865 69.6037 322.665 70.1785L321.835 71.4174C320.635 70.9959 319.804 70.204 319.319 69.195C318.808 70.3701 317.888 71.3025 316.535 71.7623L315.704 70.485C317.633 69.8592 318.476 68.3264 318.476 66.7299V65.6953ZM317.569 74.3041C317.569 72.9246 319.076 72.0944 321.49 72.0944C323.904 72.0944 325.399 72.9246 325.399 74.3041C325.399 75.7218 323.904 76.5393 321.49 76.5393C319.076 76.5393 317.569 75.7218 317.569 74.3041ZM319.166 74.3041C319.166 74.981 319.97 75.3259 321.49 75.3259C322.998 75.3259 323.828 74.981 323.828 74.3041C323.828 73.6526 322.998 73.3206 321.49 73.3206C319.97 73.3206 319.166 73.6526 319.166 74.3041ZM321.631 68.4925V67.2024H323.764V65.095H325.361V71.8006H323.764V68.4925H321.631ZM326.702 66.832H328.682V65.3887H330.24V66.832H332.194V68.0838H326.702V66.832ZM326.957 71.3408C326.957 69.757 328.018 68.633 329.461 68.633C330.917 68.633 331.964 69.757 331.964 71.3408C331.964 72.9374 330.917 74.0486 329.461 74.0486C328.018 74.0486 326.957 72.9374 326.957 71.3408ZM328.362 71.3408C328.362 72.2349 328.822 72.733 329.461 72.733C330.112 72.733 330.572 72.2349 330.572 71.3408C330.572 70.4595 330.112 69.9358 329.461 69.9358C328.822 69.9358 328.362 70.4595 328.362 71.3408ZM332.616 76.0411V65.3121H334.097V69.757H335.017V65.0822H336.524V76.5265H335.017V71.0343H334.097V76.0411H332.616ZM337.636 73.8953H339.935V71.0726C339.066 70.5361 338.53 69.7187 338.53 68.7096C338.53 66.8576 340.343 65.657 342.796 65.657C345.261 65.657 347.062 66.8576 347.062 68.7096C347.062 69.7059 346.538 70.5233 345.682 71.0598V73.8953H347.994V75.1854H337.636V73.8953ZM340.101 68.7096C340.101 69.8592 341.186 70.5361 342.796 70.5361C344.418 70.5361 345.504 69.8592 345.504 68.7096C345.504 67.5601 344.418 66.8831 342.796 66.8831C341.186 66.8831 340.101 67.5601 340.101 68.7096ZM341.519 73.8953H344.099V71.6473C343.69 71.7367 343.256 71.7751 342.796 71.7751C342.349 71.7751 341.915 71.7367 341.519 71.6601V73.8953ZM349.629 74.1125C350.128 74.1125 350.485 74.4701 350.485 74.9682C350.485 75.4664 350.128 75.8368 349.629 75.8368C349.119 75.8368 348.761 75.4664 348.761 74.9682C348.761 74.4701 349.119 74.1125 349.629 74.1125Z" fill="#3B3B3B"/>
<path d="M217.871 65.0822H219.365V76.5265H217.871V65.0822ZM209.338 73.2184C210.999 72.171 211.625 70.1146 211.625 68.1476V67.5345H209.747V66.2573H214.869V67.5345H213.157V68.1476C213.157 70.0635 213.745 72.005 215.393 72.9629L214.473 74.0997C213.464 73.4994 212.787 72.4776 212.404 71.2514C212.008 72.5925 211.331 73.7293 210.284 74.3807L209.338 73.2184ZM214.052 70.3062V69.0162H215.559V65.2865H217.028V76.0028H215.559V70.3062H214.052ZM227.885 65.0822H229.468V68.3775H231.014V69.6803H229.468V73.4227H227.885V65.0822ZM220.579 68.7352C220.579 67.0364 221.92 65.823 223.67 65.823C225.419 65.823 226.761 67.0364 226.761 68.7352C226.761 70.4084 225.419 71.6346 223.67 71.6346C221.92 71.6346 220.579 70.4084 220.579 68.7352ZM222.111 68.7352C222.111 69.6676 222.801 70.2551 223.67 70.2551C224.551 70.2551 225.228 69.6676 225.228 68.7352C225.228 67.7772 224.551 67.2024 223.67 67.2024C222.801 67.2024 222.111 67.7772 222.111 68.7352ZM222.124 76.3221V72.5542H223.708V75.0576H229.903V76.3221H222.124ZM238.767 65.095H240.351V69.5782H242.024V70.8938H240.351V76.5393H238.767V65.095ZM231.334 68.0582V66.7937H233.888V65.2738H235.485V66.7937H238.014V68.0582H231.334ZM231.806 71.4557C231.806 69.8592 233.032 68.7352 234.693 68.7352C236.353 68.7352 237.592 69.8592 237.592 71.4557C237.592 73.0396 236.353 74.1636 234.693 74.1636C233.032 74.1636 231.806 73.0396 231.806 71.4557ZM233.326 71.4557C233.326 72.3371 233.888 72.8735 234.693 72.8735C235.497 72.8735 236.072 72.3371 236.072 71.4557C236.072 70.5617 235.497 70.0124 234.693 70.0124C233.888 70.0124 233.326 70.5617 233.326 71.4557ZM243.353 66.0657H251.63V67.1769C251.63 68.5947 251.63 70.204 251.195 72.6308L249.599 72.4648C250.033 70.2807 250.046 68.6713 250.046 67.3429H243.353V66.0657ZM242.306 75.1343V73.8315H245.997V69.8975H247.581V73.8315H252.651V75.1343H242.306ZM263.783 65.095H265.379V71.4302H263.783V65.095ZM255.838 70.038C257.728 69.4504 258.597 68.0071 258.597 66.5766V65.4909H260.206V66.5766C260.206 67.9688 261.049 69.2972 262.889 69.8336L262.135 71.0853C260.832 70.6894 259.925 69.8975 259.414 68.8629C258.904 69.9741 257.971 70.8554 256.604 71.2769L255.838 70.038ZM257.55 76.4115V75.1598H259.031V73.2184H257.665V71.9667H265.43V73.2184H264.077V75.1598H265.545V76.4115H257.55ZM260.59 75.1598H262.518V73.2184H260.59V75.1598ZM266.797 70.9448H277.143V72.1966H266.797V70.9448ZM267.832 67.7772C267.832 66.3339 269.48 65.427 271.97 65.427C274.461 65.427 276.109 66.3339 276.109 67.7772C276.109 69.2461 274.461 70.1402 271.97 70.1402C269.48 70.1402 267.832 69.2461 267.832 67.7772ZM268.062 76.3349V73.0012H269.633V75.0704H275.981V76.3349H268.062ZM269.467 67.7772C269.467 68.5053 270.399 68.8757 271.97 68.8757C273.541 68.8757 274.474 68.5053 274.474 67.7772C274.474 67.0619 273.541 66.6915 271.97 66.6915C270.399 66.6915 269.467 67.0619 269.467 67.7772ZM286.563 67.7517H288.351V65.095H289.948V71.7112H288.351V69.0289H286.563V67.7517ZM280.33 70.4723C282.169 69.8719 283.025 68.4031 283.051 66.947H280.764V65.6825H286.921V66.947H284.66C284.685 68.2881 285.503 69.6676 287.278 70.2551L286.486 71.4941C285.235 71.0726 284.379 70.2296 283.881 69.195C283.383 70.3445 282.476 71.2769 281.135 71.724L280.33 70.4723ZM282.335 76.4115V72.1838H289.948V76.4115H282.335ZM283.894 75.1598H288.402V73.4227H283.894V75.1598Z" fill="#548164"/>
<rect x="24.7466" y="89.4088" width="80.3778" height="25.9787" rx="4.78975" fill="#DCEBF2"/>
<path d="M35.0865 105.679C35.7539 105.679 36.5442 105.31 37.0887 104.766L38.4937 106.224C37.6682 107.067 36.2984 107.646 35.1568 107.646C32.3819 107.646 30.4325 105.697 30.4325 102.957C30.4325 100.2 32.3819 98.2678 35.1568 98.2678C36.3862 98.2678 37.6507 98.8298 38.4937 99.6903L37.0887 101.13C36.5442 100.586 35.7539 100.235 35.0865 100.235C33.5586 100.235 32.54 101.324 32.54 102.957C32.54 104.59 33.5586 105.679 35.0865 105.679ZM43.4533 105.907C44.9109 105.907 45.8593 104.748 45.8593 102.957C45.8593 101.183 44.9109 99.9889 43.4533 99.9889C41.9956 99.9889 41.0472 101.183 41.0472 102.957C41.0472 104.748 41.9956 105.907 43.4533 105.907ZM38.9397 102.957C38.9397 100.2 40.8013 98.2678 43.4533 98.2678C46.1052 98.2678 47.9668 100.2 47.9668 102.957C47.9668 105.714 46.1052 107.646 43.4533 107.646C40.8013 107.646 38.9397 105.714 38.9397 102.957ZM55.694 102.571C55.694 100.99 54.9213 100.042 53.5338 100.042C52.2693 100.042 51.2507 101.06 51.2858 102.571V107.593H49.1783V98.2678H51.2858V99.8308C51.8127 98.9527 52.7962 98.3205 53.7973 98.3205C55.6238 98.3205 57.8015 99.304 57.8015 102.518V107.593H55.694V102.571ZM64.858 107.172C64.419 107.365 64.0326 107.593 63.014 107.593C61.3807 107.593 60.2391 106.382 60.2391 104.643V100.2H58.6058V98.3907H60.2391V95.7739H62.3466V98.3907H64.6824V100.2H62.3466V104.643C62.3466 105.275 62.6978 105.732 63.2072 105.767C63.6638 105.802 64.1555 105.503 64.1907 105.503L64.858 107.172ZM66.0763 98.3556H68.1838V107.593H66.0763V98.3556ZM65.9885 95.4051C65.9885 94.7377 66.4627 94.2635 67.13 94.2635C67.7974 94.2635 68.2891 94.7377 68.2891 95.4051C68.2891 96.09 67.7974 96.5642 67.13 96.5642C66.4627 96.5642 65.9885 96.09 65.9885 95.4051ZM76.6619 102.571C76.6619 100.99 75.8892 100.042 74.5017 100.042C73.2372 100.042 72.2186 101.06 72.2537 102.571V107.593H70.1462V98.2678H72.2537V99.8308C72.7806 98.9527 73.7641 98.3205 74.7652 98.3205C76.5917 98.3205 78.7694 99.304 78.7694 102.518V107.593H76.6619V102.571ZM82.2791 103.431C82.2791 104.924 83.1748 105.855 84.4393 105.855C85.7916 105.837 86.7224 104.801 86.6873 103.326V98.2678H88.7948V107.593H86.6873V106.065C86.178 106.944 85.1243 107.576 84.1759 107.576C81.8225 107.576 80.1716 105.96 80.1716 103.484V98.2678H82.2791V103.431ZM97.0202 102.167C96.8621 101.13 96.1772 99.9889 94.6844 99.9889C93.3672 99.9889 92.3661 100.972 92.1554 102.167H97.0202ZM90.1884 102.957C90.1884 100.2 92.0325 98.2678 94.6668 98.2678C97.5822 98.2678 98.4954 100.656 98.5481 100.779C99.1101 102.044 98.9345 103.484 98.9345 103.712H92.1554C92.3661 105.012 93.5077 105.89 94.6844 105.89C96.3353 105.89 96.8446 104.924 96.8973 104.854L98.6008 105.574C98.6008 105.574 97.7403 107.629 94.6668 107.629C92.0325 107.629 90.1884 105.714 90.1884 102.957Z" fill="#4C82A8"/>
<path d="M113.529 102.442H117.897V101.459H114.781V97.5248H122.623V98.7765H116.339V100.194H122.687V101.459H119.481V102.442H123.862V103.694H113.529V102.442ZM114.691 106.389C114.691 105.048 116.186 104.282 118.651 104.282C121.129 104.282 122.623 105.048 122.623 106.389C122.623 107.73 121.129 108.484 118.651 108.484C116.186 108.484 114.691 107.73 114.691 106.389ZM116.288 106.389C116.288 107.002 117.105 107.283 118.651 107.283C120.222 107.283 121.026 107.002 121.026 106.389C121.026 105.776 120.222 105.482 118.651 105.482C117.105 105.482 116.288 105.776 116.288 106.389ZM124.424 105.891H127.068V104.103H125.625V100.284H132.037V99.0192H125.599V97.7675H133.608V101.523H127.183V102.838H133.863V104.103H132.241V105.891H134.783V107.181H124.424V105.891ZM128.627 105.891H130.696V104.103H128.627V105.891ZM142.677 97.0011H144.273V101.42H145.883V102.723H144.273V108.458H142.677V97.0011ZM135.23 105.265C137.913 103.886 139.343 102.034 139.637 99.4663H135.856V98.189H141.233C141.233 101.612 139.905 104.55 136.112 106.466L135.23 105.265ZM228.057 97.0139H229.551V108.458H228.057V97.0139ZM219.831 101.982C219.831 99.4024 220.802 97.8314 222.309 97.8314C223.676 97.8314 224.608 99.1086 224.774 101.254H225.719V97.2055H227.201V107.935H225.719V102.532H224.787C224.659 104.78 223.714 106.121 222.309 106.121C220.802 106.121 219.831 104.563 219.831 101.982ZM221.274 101.982C221.274 103.745 221.658 104.626 222.309 104.626C222.973 104.626 223.356 103.745 223.356 101.982C223.356 100.207 222.973 99.3258 222.309 99.3258C221.658 99.3258 221.274 100.207 221.274 101.982ZM241.64 97.0139H243.147V108.458H241.64V102.723H240.555V107.909H239.086V97.231H240.555V101.433H241.64V97.0139ZM233.67 105.865V98.355H237.885V99.6323H235.228V104.563C236.34 104.537 237.323 104.473 238.422 104.269L238.549 105.546C237.157 105.814 235.956 105.865 234.462 105.865H233.67ZM244.233 98.7638H246.213V97.3205H247.771V98.7638H249.726V100.015H244.233V98.7638ZM244.489 103.273C244.489 101.689 245.549 100.565 246.992 100.565C248.448 100.565 249.496 101.689 249.496 103.273C249.496 104.869 248.448 105.98 246.992 105.98C245.549 105.98 244.489 104.869 244.489 103.273ZM245.894 103.273C245.894 104.167 246.354 104.665 246.992 104.665C247.644 104.665 248.104 104.167 248.104 103.273C248.104 102.391 247.644 101.868 246.992 101.868C246.354 101.868 245.894 102.391 245.894 103.273ZM250.147 107.973V97.2438H251.629V101.689H252.548V97.0139H254.056V108.458H252.548V102.966H251.629V107.973H250.147ZM258.111 97.7036H264.293V98.9681H262.019C262.032 100.322 262.849 101.689 264.676 102.289L263.859 103.515C262.607 103.106 261.751 102.276 261.253 101.254C260.742 102.378 259.835 103.273 258.507 103.72L257.677 102.481C259.567 101.88 260.41 100.399 260.423 98.9681H258.111V97.7036ZM259.222 105.687V104.435H266.835V108.471H265.251V105.687H259.222ZM265.251 103.911V97.0267H266.835V99.8111H268.38V101.114H266.835V103.911H265.251ZM271.42 97.627H273.03V98.585C273.03 100.118 273.809 101.535 275.61 102.11L274.779 103.349C273.579 102.928 272.749 102.136 272.263 101.127C271.752 102.302 270.833 103.234 269.479 103.694L268.649 102.417C270.577 101.791 271.42 100.258 271.42 98.6616V97.627ZM270.513 106.236C270.513 104.856 272.021 104.026 274.435 104.026C276.849 104.026 278.343 104.856 278.343 106.236C278.343 107.654 276.849 108.471 274.435 108.471C272.021 108.471 270.513 107.654 270.513 106.236ZM272.11 106.236C272.11 106.913 272.915 107.258 274.435 107.258C275.942 107.258 276.772 106.913 276.772 106.236C276.772 105.584 275.942 105.252 274.435 105.252C272.915 105.252 272.11 105.584 272.11 106.236ZM274.575 100.424V99.1342H276.708V97.0267H278.305V103.732H276.708V100.424H274.575ZM279.646 98.7638H281.626V97.3205H283.184V98.7638H285.138V100.015H279.646V98.7638ZM279.902 103.273C279.902 101.689 280.962 100.565 282.405 100.565C283.861 100.565 284.909 101.689 284.909 103.273C284.909 104.869 283.861 105.98 282.405 105.98C280.962 105.98 279.902 104.869 279.902 103.273ZM281.307 103.273C281.307 104.167 281.766 104.665 282.405 104.665C283.056 104.665 283.516 104.167 283.516 103.273C283.516 102.391 283.056 101.868 282.405 101.868C281.766 101.868 281.307 102.391 281.307 103.273ZM285.56 107.973V97.2438H287.042V101.689H287.961V97.0139H289.468V108.458H287.961V102.966H287.042V107.973H285.56ZM290.58 105.827H292.879V103.004C292.01 102.468 291.474 101.65 291.474 100.641C291.474 98.7893 293.288 97.5887 295.74 97.5887C298.205 97.5887 300.006 98.7893 300.006 100.641C300.006 101.638 299.482 102.455 298.627 102.992V105.827H300.939V107.117H290.58V105.827ZM293.045 100.641C293.045 101.791 294.131 102.468 295.74 102.468C297.362 102.468 298.448 101.791 298.448 100.641C298.448 99.4918 297.362 98.8149 295.74 98.8149C294.131 98.8149 293.045 99.4918 293.045 100.641ZM294.463 105.827H297.043V103.579C296.634 103.668 296.2 103.707 295.74 103.707C295.293 103.707 294.859 103.668 294.463 103.592V105.827ZM302.574 106.044C303.072 106.044 303.429 106.402 303.429 106.9C303.429 107.398 303.072 107.769 302.574 107.769C302.063 107.769 301.705 107.398 301.705 106.9C301.705 106.402 302.063 106.044 302.574 106.044Z" fill="#3B3B3B"/>
<path d="M149.159 97.5376H155.341V98.8021H153.08C153.169 99.9516 154.012 101.063 155.737 101.548L155.009 102.774C153.719 102.417 152.812 101.663 152.301 100.705C151.79 101.791 150.858 102.634 149.478 103.03L148.712 101.804C150.5 101.28 151.368 100.067 151.458 98.8021H149.159V97.5376ZM150.385 104.524V103.336H157.908V106.364H151.969V107.155H158.253V108.356H150.398V105.24H156.35V104.524H150.385ZM156.324 102.877V97.0267H157.908V99.2875H159.441V100.565H157.908V102.877H156.324ZM167.207 97.0267H168.791V101.51H170.464V102.825H168.791V108.471H167.207V97.0267ZM159.773 99.9899V98.7255H162.328V97.2055H163.924V98.7255H166.453V99.9899H159.773ZM160.246 103.387C160.246 101.791 161.472 100.667 163.132 100.667C164.793 100.667 166.032 101.791 166.032 103.387C166.032 104.971 164.793 106.095 163.132 106.095C161.472 106.095 160.246 104.971 160.246 103.387ZM161.766 103.387C161.766 104.269 162.328 104.805 163.132 104.805C163.937 104.805 164.512 104.269 164.512 103.387C164.512 102.493 163.937 101.944 163.132 101.944C162.328 101.944 161.766 102.493 161.766 103.387ZM171.793 97.9974H180.069V99.1086C180.069 100.526 180.069 102.136 179.635 104.563L178.038 104.397C178.473 102.212 178.485 100.603 178.485 99.2747H171.793V97.9974ZM170.745 107.066V105.763H174.437V101.829H176.02V105.763H181.091V107.066H170.745ZM186.934 103.988H188.467V104.384C188.467 105.303 188.85 106.261 189.77 106.9C190.715 106.223 191.111 105.227 191.111 104.384V103.988H192.669V104.384C192.669 105.572 193.321 106.683 194.815 107.143L194.049 108.305C192.963 107.935 192.261 107.232 191.865 106.351C191.494 107.232 190.83 107.998 189.796 108.42C188.748 108.024 188.084 107.283 187.714 106.389C187.305 107.245 186.602 107.935 185.568 108.305L184.789 107.143C186.283 106.632 186.934 105.495 186.934 104.384V103.988ZM184.508 100.36C184.508 98.751 185.836 97.6142 187.611 97.6142C189.387 97.6142 190.715 98.751 190.715 100.36C190.715 101.944 189.387 103.081 187.611 103.081C185.836 103.081 184.508 101.944 184.508 100.36ZM186.053 100.36C186.053 101.242 186.717 101.778 187.611 101.778C188.506 101.778 189.17 101.242 189.17 100.36C189.17 99.4663 188.506 98.9298 187.611 98.9298C186.717 98.9298 186.053 99.4663 186.053 100.36ZM192.235 103.502V97.0267H193.845V103.502H192.235ZM196.527 97.4226H198.111V100.143H204.446V101.395H196.527V97.4226ZM195.25 103.886V102.621H205.608V103.886H195.25ZM196.425 108.228V104.818H198.009V106.951H204.51V108.228H196.425ZM215.003 99.6834H216.791V97.0267H218.387V103.643H216.791V100.961H215.003V99.6834ZM208.77 102.404C210.609 101.804 211.465 100.335 211.49 98.8787H209.204V97.6142H215.36V98.8787H213.1C213.125 100.22 213.943 101.599 215.718 102.187L214.926 103.426C213.674 103.004 212.819 102.161 212.32 101.127C211.822 102.276 210.915 103.209 209.574 103.656L208.77 102.404ZM210.775 108.343V104.116H218.387V108.343H210.775ZM212.333 107.092H216.842V105.354H212.333V107.092Z" fill="#4C82A8"/>
</svg>
