<svg width="430" height="276" viewBox="0 0 430 276" fill="none" xmlns="http://www.w3.org/2000/svg">
<g clip-path="url(#clip0_171_3033)">
<rect width="88.0208" height="56.0344" rx="2.80172" transform="matrix(0.961262 0.275637 -0.309017 0.951057 83.3154 110.389)" fill="#FFCAA9"/>
<path d="M66.8663 161.015C66.3881 162.487 67.2063 164.025 68.6937 164.452L147.918 187.169C149.406 187.596 150.999 186.749 151.477 185.277L154.688 175.396L122.381 137.428C121.676 136.598 120.525 136.269 119.446 136.586L70.0769 151.134L66.8663 161.015Z" fill="#FFE0CD"/>
<path d="M82.4496 113.053C82.9278 111.582 84.5212 110.734 86.0086 111.161L165.233 133.878C166.721 134.305 167.539 135.843 167.061 137.315L164.572 144.976L114.605 161.633C113.466 162.013 112.227 161.658 111.508 160.745L79.9605 120.714L82.4496 113.053Z" fill="#FF9B5E"/>
<rect width="88.0208" height="56.0344" rx="2.80172" transform="matrix(0.971384 -0.237515 0.304697 0.952449 258.748 175.831)" fill="#FFCAA9"/>
<path d="M274.968 226.533C275.439 228.006 277.04 228.903 278.543 228.536L358.602 208.96C360.105 208.593 360.941 207.1 360.47 205.626L357.304 195.731L307.624 179.525C306.538 179.171 305.376 179.455 304.658 180.251L271.802 216.637L274.968 226.533Z" fill="#FFE0CD"/>
<path d="M259.601 178.5C259.13 177.026 259.966 175.533 261.469 175.166L341.528 155.59C343.031 155.223 344.632 156.12 345.103 157.593L347.557 165.265L315.453 203.722C314.721 204.599 313.468 204.905 312.322 204.487L262.056 186.172L259.601 178.5Z" fill="#FF9B5E"/>
<rect width="61.4381" height="39.1118" rx="1.95559" transform="matrix(-0.981529 0.191312 0.0179647 0.999839 129.469 167.387)" fill="#FFCAA9"/>
<path d="M130.136 204.536C130.156 205.616 129.312 206.659 128.252 206.865L71.7875 217.871C70.7274 218.078 69.8523 217.37 69.8329 216.29L69.7027 209.039L98.4622 184.098C99.0907 183.553 99.9105 183.394 100.554 183.691L130.006 197.285L130.136 204.536Z" fill="#FFE0CD"/>
<path d="M129.504 169.342C129.484 168.262 128.609 167.554 127.549 167.761L71.0849 178.766C70.0248 178.973 69.1812 180.016 69.2006 181.096L69.3016 186.717L98.7231 201.855C99.3939 202.2 100.277 202.028 100.931 201.424L129.605 174.963L129.504 169.342Z" fill="#FF9B5E"/>
<rect width="61.4381" height="39.1118" rx="1.95559" transform="matrix(0.996195 -0.0871557 0.258819 0.965926 321.272 149.97)" fill="#FFCAA9"/>
<path d="M330.889 185.86C331.168 186.903 332.267 187.673 333.343 187.579L390.651 182.565C391.727 182.471 392.373 181.549 392.093 180.505L390.216 173.501L355.688 157.471C354.933 157.121 354.101 157.193 353.565 157.657L329.012 178.855L330.889 185.86Z" fill="#FFE0CD"/>
<path d="M321.779 151.859C321.499 150.815 322.145 149.893 323.221 149.799L380.529 144.785C381.605 144.691 382.703 145.461 382.983 146.504L384.438 151.935L360.34 174.608C359.791 175.125 358.895 175.203 358.1 174.804L323.234 157.289L321.779 151.859Z" fill="#FF9B5E"/>
<rect width="61.4381" height="39.1118" rx="1.95559" transform="matrix(-0.999967 -0.00808389 0.301319 0.953524 336.29 119.015)" fill="#FFCAA9"/>
<path d="M347.486 154.444C347.811 155.474 347.2 156.302 346.12 156.293L288.595 155.828C287.515 155.819 286.375 154.977 286.05 153.947L283.865 147.032L307.71 128.897C308.232 128.501 309.067 128.507 309.842 128.914L345.301 147.529L347.486 154.444Z" fill="#FFE0CD"/>
<path d="M336.879 120.879C336.554 119.85 335.415 119.008 334.335 118.999L276.809 118.534C275.729 118.525 275.118 119.353 275.443 120.383L277.137 125.744L312.999 145.819C313.817 146.276 314.716 146.284 315.248 145.837L338.573 126.24L336.879 120.879Z" fill="#FF9B5E"/>
<mask id="path-17-outside-1_171_3033" maskUnits="userSpaceOnUse" x="138.975" y="83.001" width="151" height="197" fill="black">
<rect fill="white" x="138.975" y="83.001" width="151" height="197"/>
<path fill-rule="evenodd" clip-rule="evenodd" d="M188.479 86.001C189.684 86.0429 190.723 86.7326 191.589 87.7012C192.515 88.737 193.338 90.1905 194.074 91.8701C195.549 95.2371 196.76 99.7172 197.718 104.157C197.869 104.859 198.013 105.562 198.152 106.26C200.321 105.933 202.539 105.762 204.799 105.762H216.903C219.599 105.762 222.236 106.004 224.802 106.466C224.953 105.7 225.111 104.928 225.277 104.157C226.235 99.7172 227.446 95.2371 228.921 91.8701C229.657 90.1905 230.48 88.737 231.406 87.7012C232.272 86.7327 233.311 86.043 234.516 86.001H234.94C236.145 86.0428 237.184 86.7327 238.05 87.7012C238.976 88.737 239.799 90.1905 240.535 91.8701C242.01 95.2371 243.221 99.7172 244.179 104.157C245.139 108.607 245.855 113.062 246.33 116.4C246.337 116.446 246.342 116.492 246.349 116.538C250.73 120.09 254.562 124.363 257.711 129.109C258.307 129.346 259 129.624 259.769 129.942C262.433 131.043 266.019 132.611 269.7 134.477C273.376 136.34 277.172 138.512 280.243 140.824C283.279 143.11 285.751 145.637 286.563 148.248C286.955 149.506 286.792 150.883 286.054 152.001C284.988 153.62 282.6 155.73 277.241 157.327C274.674 158.092 271.413 158.742 267.266 159.165C267.271 159.433 267.274 159.701 267.274 159.97V169.244C267.274 182.909 261.442 193.804 252.051 201.266C250.978 202.118 249.857 202.922 248.695 203.684C248.692 203.693 248.689 203.703 248.685 203.713L273.224 221.766C278.343 225.531 279.678 232.394 276.79 237.707L277.832 237.449C277.931 236.294 278.898 235.388 280.078 235.388C281.324 235.388 282.334 236.398 282.334 237.644C282.334 238.889 281.324 239.899 280.078 239.899C279.343 239.899 278.692 239.548 278.28 239.004L275.433 239.711C275.286 239.888 275.133 240.062 274.975 240.233C270.692 244.857 263.767 245.461 258.792 242.024L258.602 242.063L258.604 242.074C258.681 242.482 258.436 242.882 258.038 242.999L254.705 243.98L264.87 254.873L265.002 255.021C266.318 256.577 266.273 258.857 264.87 260.364L264.871 260.365L252.253 273.934H252.252C250.765 275.531 248.273 275.704 246.57 274.342L246.569 274.341L227.693 259.192C227.626 259.138 227.57 259.075 227.524 259.007L199.146 276.089L199.145 276.088C197.414 277.152 195.148 276.82 193.808 275.295L193.808 275.294L180.405 259.999V259.998C179.198 258.623 179.049 256.601 180.103 255.083C183.195 250.635 187.795 246.545 191.586 243.585C193.487 242.1 195.198 240.889 196.434 240.049C197.052 239.629 197.553 239.301 197.899 239.078C198.072 238.967 198.208 238.881 198.3 238.823C198.346 238.794 198.381 238.772 198.405 238.757C198.417 238.749 198.426 238.743 198.433 238.739C198.435 238.737 198.439 238.736 198.44 238.735L198.442 238.733H198.443C198.536 238.677 198.635 238.64 198.735 238.623L197.881 235.156H195.698C193.701 235.156 192.076 233.531 192.076 231.534C192.076 230.063 192.961 228.793 194.226 228.227V228.631C194.226 228.801 194.235 228.962 194.251 229.128C193.755 229.426 193.36 229.872 193.123 230.402C193.361 229.874 193.756 229.43 194.248 229.133C194.276 229.436 194.328 229.732 194.401 230.019C193.969 230.386 193.69 230.928 193.69 231.538C193.69 232.642 194.587 233.544 195.695 233.544H197.082L197.078 233.548C197.228 233.635 197.384 233.713 197.543 233.786L197.541 233.778C197.384 233.706 197.231 233.629 197.082 233.543H195.703C194.599 233.543 193.697 232.645 193.697 231.537C193.697 230.927 193.977 230.385 194.409 230.018C194.452 229.98 194.496 229.945 194.542 229.912C194.495 229.946 194.449 229.981 194.405 230.019C194.332 229.732 194.28 229.436 194.252 229.133C194.494 228.983 194.761 228.874 195.044 228.806L195.123 228.788C195.097 228.794 195.07 228.799 195.044 228.805L195.043 228.802C194.76 228.871 194.494 228.984 194.252 229.129C194.24 228.963 194.227 228.798 194.227 228.632V224.867C194.227 224.609 194.24 224.354 194.261 224.101L164.422 229.061C158.148 230.53 151.924 226.496 150.683 220.206L150.627 219.904C149.487 213.214 154.423 207.029 161.195 206.65L161.866 206.612C155.976 201.739 154.027 195.096 153.846 187.813V187.772C153.927 184.491 154.368 181.339 155.366 178.42C154.75 175.52 154.428 172.459 154.428 169.244V159.97C154.428 159.341 154.439 158.712 154.463 158.083C153.386 157.848 152.402 157.595 151.503 157.327C146.145 155.73 143.756 153.621 142.69 152.002L142.691 152.001C141.953 150.883 141.79 149.506 142.182 148.248C142.994 145.637 145.466 143.11 148.502 140.824C151.573 138.512 155.369 136.34 159.045 134.477C159.858 134.064 160.668 133.667 161.463 133.286C165.293 126.313 170.533 120.128 176.81 115.397C177.282 112.197 177.949 108.175 178.816 104.157C179.774 99.7172 180.985 95.2371 182.46 91.8701C183.196 90.1904 184.019 88.737 184.945 87.7012C185.811 86.7326 186.85 86.0429 188.055 86.001H188.479ZM250.16 241.318C248.657 243.328 246.65 245.33 244.614 247.126C242.317 249.153 239.95 250.949 238.161 252.235C237.266 252.879 236.512 253.397 235.982 253.755C235.718 253.934 235.509 254.073 235.365 254.167C235.294 254.214 235.238 254.25 235.2 254.274C235.181 254.287 235.167 254.296 235.157 254.303C235.152 254.306 235.148 254.308 235.145 254.31C235.144 254.31 235.143 254.311 235.142 254.312L235.141 254.312L235.13 254.32L228.962 258.137L229.364 258.46L263.255 255.514L250.357 241.692C250.256 241.583 250.19 241.454 250.16 241.318ZM252.669 235.957C252.495 237.418 251.792 238.916 250.85 240.341C251.098 240.31 251.356 240.392 251.54 240.589L253.518 242.709C253.598 242.645 253.692 242.594 253.797 242.563L256.879 241.653L256.584 240.085L252.669 235.957ZM195.137 229.621L195.138 229.622C195.139 229.622 195.14 229.621 195.141 229.621C195.166 229.614 195.192 229.606 195.218 229.6C195.191 229.607 195.163 229.613 195.137 229.621ZM195.535 228.729C195.589 228.725 195.644 228.725 195.699 228.725H196.296V228.724H195.699C195.644 228.724 195.589 228.725 195.535 228.729ZM195.036 227.977C194.895 228.003 194.756 228.037 194.621 228.079L194.826 228.022C194.895 228.005 194.965 227.99 195.036 227.977ZM195.53 227.919V227.92V227.919ZM195.845 227.915H196.097L196.096 227.912H195.845V227.915Z"/>
</mask>
<path fill-rule="evenodd" clip-rule="evenodd" d="M188.479 86.001C189.684 86.0429 190.723 86.7326 191.589 87.7012C192.515 88.737 193.338 90.1905 194.074 91.8701C195.549 95.2371 196.76 99.7172 197.718 104.157C197.869 104.859 198.013 105.562 198.152 106.26C200.321 105.933 202.539 105.762 204.799 105.762H216.903C219.599 105.762 222.236 106.004 224.802 106.466C224.953 105.7 225.111 104.928 225.277 104.157C226.235 99.7172 227.446 95.2371 228.921 91.8701C229.657 90.1905 230.48 88.737 231.406 87.7012C232.272 86.7327 233.311 86.043 234.516 86.001H234.94C236.145 86.0428 237.184 86.7327 238.05 87.7012C238.976 88.737 239.799 90.1905 240.535 91.8701C242.01 95.2371 243.221 99.7172 244.179 104.157C245.139 108.607 245.855 113.062 246.33 116.4C246.337 116.446 246.342 116.492 246.349 116.538C250.73 120.09 254.562 124.363 257.711 129.109C258.307 129.346 259 129.624 259.769 129.942C262.433 131.043 266.019 132.611 269.7 134.477C273.376 136.34 277.172 138.512 280.243 140.824C283.279 143.11 285.751 145.637 286.563 148.248C286.955 149.506 286.792 150.883 286.054 152.001C284.988 153.62 282.6 155.73 277.241 157.327C274.674 158.092 271.413 158.742 267.266 159.165C267.271 159.433 267.274 159.701 267.274 159.97V169.244C267.274 182.909 261.442 193.804 252.051 201.266C250.978 202.118 249.857 202.922 248.695 203.684C248.692 203.693 248.689 203.703 248.685 203.713L273.224 221.766C278.343 225.531 279.678 232.394 276.79 237.707L277.832 237.449C277.931 236.294 278.898 235.388 280.078 235.388C281.324 235.388 282.334 236.398 282.334 237.644C282.334 238.889 281.324 239.899 280.078 239.899C279.343 239.899 278.692 239.548 278.28 239.004L275.433 239.711C275.286 239.888 275.133 240.062 274.975 240.233C270.692 244.857 263.767 245.461 258.792 242.024L258.602 242.063L258.604 242.074C258.681 242.482 258.436 242.882 258.038 242.999L254.705 243.98L264.87 254.873L265.002 255.021C266.318 256.577 266.273 258.857 264.87 260.364L264.871 260.365L252.253 273.934H252.252C250.765 275.531 248.273 275.704 246.57 274.342L246.569 274.341L227.693 259.192C227.626 259.138 227.57 259.075 227.524 259.007L199.146 276.089L199.145 276.088C197.414 277.152 195.148 276.82 193.808 275.295L193.808 275.294L180.405 259.999V259.998C179.198 258.623 179.049 256.601 180.103 255.083C183.195 250.635 187.795 246.545 191.586 243.585C193.487 242.1 195.198 240.889 196.434 240.049C197.052 239.629 197.553 239.301 197.899 239.078C198.072 238.967 198.208 238.881 198.3 238.823C198.346 238.794 198.381 238.772 198.405 238.757C198.417 238.749 198.426 238.743 198.433 238.739C198.435 238.737 198.439 238.736 198.44 238.735L198.442 238.733H198.443C198.536 238.677 198.635 238.64 198.735 238.623L197.881 235.156H195.698C193.701 235.156 192.076 233.531 192.076 231.534C192.076 230.063 192.961 228.793 194.226 228.227V228.631C194.226 228.801 194.235 228.962 194.251 229.128C193.755 229.426 193.36 229.872 193.123 230.402C193.361 229.874 193.756 229.43 194.248 229.133C194.276 229.436 194.328 229.732 194.401 230.019C193.969 230.386 193.69 230.928 193.69 231.538C193.69 232.642 194.587 233.544 195.695 233.544H197.082L197.078 233.548C197.228 233.635 197.384 233.713 197.543 233.786L197.541 233.778C197.384 233.706 197.231 233.629 197.082 233.543H195.703C194.599 233.543 193.697 232.645 193.697 231.537C193.697 230.927 193.977 230.385 194.409 230.018C194.452 229.98 194.496 229.945 194.542 229.912C194.495 229.946 194.449 229.981 194.405 230.019C194.332 229.732 194.28 229.436 194.252 229.133C194.494 228.983 194.761 228.874 195.044 228.806L195.123 228.788C195.097 228.794 195.07 228.799 195.044 228.805L195.043 228.802C194.76 228.871 194.494 228.984 194.252 229.129C194.24 228.963 194.227 228.798 194.227 228.632V224.867C194.227 224.609 194.24 224.354 194.261 224.101L164.422 229.061C158.148 230.53 151.924 226.496 150.683 220.206L150.627 219.904C149.487 213.214 154.423 207.029 161.195 206.65L161.866 206.612C155.976 201.739 154.027 195.096 153.846 187.813V187.772C153.927 184.491 154.368 181.339 155.366 178.42C154.75 175.52 154.428 172.459 154.428 169.244V159.97C154.428 159.341 154.439 158.712 154.463 158.083C153.386 157.848 152.402 157.595 151.503 157.327C146.145 155.73 143.756 153.621 142.69 152.002L142.691 152.001C141.953 150.883 141.79 149.506 142.182 148.248C142.994 145.637 145.466 143.11 148.502 140.824C151.573 138.512 155.369 136.34 159.045 134.477C159.858 134.064 160.668 133.667 161.463 133.286C165.293 126.313 170.533 120.128 176.81 115.397C177.282 112.197 177.949 108.175 178.816 104.157C179.774 99.7172 180.985 95.2371 182.46 91.8701C183.196 90.1904 184.019 88.737 184.945 87.7012C185.811 86.7326 186.85 86.0429 188.055 86.001H188.479ZM250.16 241.318C248.657 243.328 246.65 245.33 244.614 247.126C242.317 249.153 239.95 250.949 238.161 252.235C237.266 252.879 236.512 253.397 235.982 253.755C235.718 253.934 235.509 254.073 235.365 254.167C235.294 254.214 235.238 254.25 235.2 254.274C235.181 254.287 235.167 254.296 235.157 254.303C235.152 254.306 235.148 254.308 235.145 254.31C235.144 254.31 235.143 254.311 235.142 254.312L235.141 254.312L235.13 254.32L228.962 258.137L229.364 258.46L263.255 255.514L250.357 241.692C250.256 241.583 250.19 241.454 250.16 241.318ZM252.669 235.957C252.495 237.418 251.792 238.916 250.85 240.341C251.098 240.31 251.356 240.392 251.54 240.589L253.518 242.709C253.598 242.645 253.692 242.594 253.797 242.563L256.879 241.653L256.584 240.085L252.669 235.957ZM195.137 229.621L195.138 229.622C195.139 229.622 195.14 229.621 195.141 229.621C195.166 229.614 195.192 229.606 195.218 229.6C195.191 229.607 195.163 229.613 195.137 229.621ZM195.535 228.729C195.589 228.725 195.644 228.725 195.699 228.725H196.296V228.724H195.699C195.644 228.724 195.589 228.725 195.535 228.729ZM195.036 227.977C194.895 228.003 194.756 228.037 194.621 228.079L194.826 228.022C194.895 228.005 194.965 227.99 195.036 227.977ZM195.53 227.919V227.92V227.919ZM195.845 227.915H196.097L196.096 227.912H195.845V227.915Z" fill="black"/>
<path d="M188.479 86.001L188.582 83.0465C188.548 83.0453 188.514 83.0447 188.479 83.0447V86.001ZM191.589 87.7012L193.792 85.7306L193.792 85.7305L191.589 87.7012ZM194.074 91.8701L196.782 90.6837L196.782 90.6837L194.074 91.8701ZM197.718 104.157L200.607 103.534V103.534L197.718 104.157ZM198.152 106.26L195.253 106.839C195.562 108.386 197.033 109.418 198.593 109.183L198.152 106.26ZM204.799 105.762V102.805V102.805V105.762ZM216.903 105.762L216.903 102.805H216.903V105.762ZM224.802 106.466L224.277 109.375C225.865 109.661 227.388 108.622 227.702 107.04L224.802 106.466ZM225.277 104.157L222.387 103.534V103.534L225.277 104.157ZM228.921 91.8701L226.213 90.6837L226.213 90.6837L228.921 91.8701ZM231.406 87.7012L229.203 85.7305L229.202 85.7306L231.406 87.7012ZM234.516 86.001V83.0447C234.481 83.0447 234.447 83.0453 234.412 83.0465L234.516 86.001ZM234.94 86.001L235.043 83.0465C235.009 83.0453 234.975 83.0447 234.94 83.0447V86.001ZM238.05 87.7012L240.253 85.7305L240.253 85.7304L238.05 87.7012ZM240.535 91.8701L243.243 90.6837L243.243 90.6836L240.535 91.8701ZM244.179 104.157L247.068 103.534V103.534L244.179 104.157ZM246.33 116.4L243.403 116.817V116.817L246.33 116.4ZM246.349 116.538L243.422 116.953C243.526 117.692 243.907 118.364 244.487 118.835L246.349 116.538ZM257.711 129.109L255.247 130.744C255.581 131.247 256.061 131.635 256.622 131.858L257.711 129.109ZM259.769 129.942L260.899 127.21L260.899 127.21L259.769 129.942ZM269.7 134.477L271.036 131.84V131.84L269.7 134.477ZM280.243 140.824L282.021 138.463L282.021 138.462L280.243 140.824ZM286.563 148.248L283.741 149.127L283.741 149.127L286.563 148.248ZM286.054 152.001L283.586 150.372L283.584 150.376L286.054 152.001ZM277.241 157.327L278.085 160.16L278.085 160.16L277.241 157.327ZM267.266 159.165L266.966 156.224C265.44 156.38 264.286 157.678 264.311 159.212L267.266 159.165ZM267.274 169.244H270.231V169.244H267.274ZM252.051 201.266L253.89 203.58L253.89 203.58L252.051 201.266ZM248.695 203.684L247.075 201.211C246.505 201.585 246.082 202.143 245.876 202.793L248.695 203.684ZM248.685 203.713L245.87 202.812C245.483 204.021 245.911 205.342 246.934 206.094L248.685 203.713ZM273.224 221.766L271.472 224.147L271.472 224.147L273.224 221.766ZM276.79 237.707L274.193 236.295C273.633 237.325 273.734 238.587 274.45 239.514C275.167 240.441 276.363 240.858 277.5 240.577L276.79 237.707ZM277.832 237.449L278.542 240.319C279.771 240.015 280.67 238.962 280.777 237.701L277.832 237.449ZM280.078 235.388V232.431V232.431V235.388ZM282.334 237.644H285.29V237.643L282.334 237.644ZM280.078 239.899V242.856V242.856V239.899ZM278.28 239.004L280.636 237.218C279.922 236.276 278.715 235.85 277.568 236.135L278.28 239.004ZM275.433 239.711L274.72 236.842C274.108 236.994 273.561 237.338 273.158 237.823L275.433 239.711ZM274.975 240.233L272.806 238.224L272.806 238.225L274.975 240.233ZM258.792 242.024L260.472 239.592C259.808 239.133 258.985 238.966 258.195 239.129L258.792 242.024ZM258.602 242.063L258.005 239.168C256.433 239.492 255.407 241.013 255.694 242.592L258.602 242.063ZM258.604 242.074L255.696 242.603C255.697 242.608 255.698 242.613 255.699 242.619L258.604 242.074ZM258.038 242.999L258.873 245.835L258.874 245.834L258.038 242.999ZM254.705 243.98L253.87 241.145C252.887 241.434 252.124 242.212 251.853 243.201C251.583 244.19 251.844 245.248 252.544 245.997L254.705 243.98ZM264.87 254.873L267.08 252.91C267.064 252.892 267.048 252.874 267.031 252.856L264.87 254.873ZM265.002 255.021L267.258 253.112C267.243 253.094 267.228 253.076 267.212 253.058L265.002 255.021ZM264.87 260.364L262.706 258.35C261.622 259.515 261.654 261.329 262.78 262.455L264.87 260.364ZM264.871 260.365L267.036 262.378C268.119 261.213 268.086 259.4 266.961 258.275L264.871 260.365ZM252.253 273.934V276.89C253.074 276.89 253.858 276.548 254.418 275.947L252.253 273.934ZM252.252 273.934V270.977C251.431 270.977 250.647 271.319 250.088 271.919L252.252 273.934ZM246.57 274.342L244.48 276.432C244.557 276.509 244.638 276.582 244.723 276.65L246.57 274.342ZM246.569 274.341L248.66 272.25C248.584 272.174 248.503 272.103 248.42 272.035L246.569 274.341ZM227.693 259.192L225.842 261.497L225.843 261.498L227.693 259.192ZM227.524 259.007L229.992 257.38C229.12 256.056 227.358 255.656 226 256.474L227.524 259.007ZM199.146 276.089L197.056 278.179C198.016 279.14 199.507 279.322 200.671 278.622L199.146 276.089ZM199.145 276.088L201.236 273.998C200.268 273.03 198.763 272.853 197.597 273.57L199.145 276.088ZM193.808 275.295L196.03 273.344C195.988 273.296 195.944 273.25 195.899 273.205L193.808 275.295ZM193.808 275.294L191.584 277.242C191.627 277.291 191.671 277.338 191.717 277.384L193.808 275.294ZM180.405 259.999H177.449C177.449 260.716 177.709 261.408 178.182 261.947L180.405 259.999ZM180.405 259.998H183.361C183.361 259.28 183.1 258.587 182.627 258.048L180.405 259.998ZM180.103 255.083L177.676 253.396L177.675 253.397L180.103 255.083ZM191.586 243.585L189.766 241.255L189.766 241.255L191.586 243.585ZM196.434 240.049L194.773 237.604H194.773L196.434 240.049ZM197.899 239.078L196.298 236.593L196.298 236.593L197.899 239.078ZM198.3 238.823L196.725 236.321L196.725 236.322L198.3 238.823ZM198.405 238.757L196.843 236.247L196.842 236.247L198.405 238.757ZM198.433 238.739L196.876 236.226L196.871 236.229L198.433 238.739ZM198.44 238.735L199.902 241.305C200.132 241.174 200.344 241.013 200.531 240.826L198.44 238.735ZM198.442 238.733V235.777C197.658 235.777 196.906 236.089 196.352 236.643L198.442 238.733ZM198.443 238.733V241.69C198.991 241.69 199.528 241.538 199.994 241.25L198.443 238.733ZM198.735 238.623L199.217 241.54C200.03 241.405 200.75 240.938 201.204 240.25C201.657 239.562 201.803 238.716 201.606 237.916L198.735 238.623ZM197.881 235.156L200.751 234.449C200.426 233.128 199.241 232.2 197.881 232.2V235.156ZM195.698 235.156L195.698 238.113H195.698V235.156ZM192.076 231.534H189.12V231.535L192.076 231.534ZM194.226 228.227H197.183C197.183 227.225 196.675 226.291 195.834 225.746C194.993 225.201 193.934 225.119 193.019 225.528L194.226 228.227ZM194.226 228.631H191.27V228.631H194.226ZM194.251 229.128L195.774 231.662C196.751 231.074 197.304 229.976 197.193 228.841L194.251 229.128ZM193.123 230.402L190.423 229.198C189.759 230.688 190.426 232.434 191.915 233.1C193.403 233.767 195.15 233.102 195.819 231.615L193.123 230.402ZM194.248 229.133L197.191 228.858C197.097 227.845 196.488 226.952 195.579 226.493C194.671 226.035 193.591 226.076 192.72 226.602L194.248 229.133ZM194.401 230.019L196.317 232.27C197.175 231.54 197.544 230.385 197.267 229.292L194.401 230.019ZM193.69 231.538L190.734 231.538V231.538H193.69ZM197.082 233.544L199.172 235.634C200.018 234.789 200.271 233.517 199.813 232.413C199.356 231.308 198.278 230.588 197.082 230.588V233.544ZM197.078 233.548L194.988 231.457C194.338 232.107 194.027 233.023 194.147 233.934C194.267 234.845 194.804 235.649 195.6 236.108L197.078 233.548ZM197.543 233.786L196.309 236.473C197.342 236.947 198.556 236.787 199.431 236.061C200.305 235.335 200.687 234.172 200.411 233.069L197.543 233.786ZM197.541 233.778L200.409 233.061C200.192 232.192 199.592 231.468 198.778 231.093L197.541 233.778ZM197.082 233.543L198.56 230.983C198.111 230.723 197.601 230.587 197.082 230.587V233.543ZM193.697 231.537L190.741 231.537V231.537H193.697ZM194.409 230.018L196.324 232.27C196.331 232.264 196.337 232.259 196.344 232.253L194.409 230.018ZM194.542 229.912L196.271 232.31C197.593 231.357 197.894 229.513 196.944 228.188C195.993 226.864 194.15 226.559 192.823 227.507L194.542 229.912ZM194.405 230.019L191.54 230.745C191.792 231.739 192.54 232.531 193.519 232.839C194.497 233.146 195.564 232.925 196.34 232.254L194.405 230.019ZM194.252 229.133L192.7 226.616C191.743 227.206 191.204 228.288 191.308 229.408L194.252 229.133ZM195.044 228.806L194.403 225.92C194.384 225.924 194.365 225.928 194.346 225.933L195.044 228.806ZM195.123 228.788L195.764 231.674C197.351 231.321 198.355 229.754 198.013 228.166C197.671 226.577 196.111 225.562 194.52 225.894L195.123 228.788ZM195.044 228.805L192.239 229.74C192.721 231.185 194.223 232.028 195.709 231.685L195.044 228.805ZM195.043 228.802L197.847 227.867C197.361 226.408 195.838 225.566 194.344 225.929L195.043 228.802ZM194.252 229.129L191.303 229.345C191.378 230.368 191.979 231.28 192.89 231.753C193.801 232.226 194.892 232.192 195.773 231.664L194.252 229.129ZM194.227 228.632H191.271V228.632L194.227 228.632ZM194.227 224.867L191.271 224.867V224.867H194.227ZM194.261 224.101L197.207 224.339C197.281 223.432 196.932 222.541 196.262 221.924C195.591 221.308 194.674 221.035 193.776 221.184L194.261 224.101ZM164.422 229.061L163.937 226.144C163.874 226.155 163.81 226.167 163.748 226.182L164.422 229.061ZM150.683 220.206L147.775 220.742C147.778 220.754 147.78 220.767 147.782 220.779L150.683 220.206ZM150.627 219.904L147.713 220.401C147.715 220.414 147.717 220.427 147.72 220.441L150.627 219.904ZM161.195 206.65L161.36 209.602L161.363 209.602L161.195 206.65ZM161.866 206.612L162.034 209.564C163.248 209.495 164.296 208.69 164.675 207.534C165.054 206.379 164.687 205.109 163.75 204.334L161.866 206.612ZM153.846 187.813H150.889C150.889 187.838 150.89 187.863 150.89 187.887L153.846 187.813ZM153.846 187.772L150.89 187.699C150.89 187.723 150.889 187.748 150.889 187.772H153.846ZM155.366 178.42L158.163 179.376C158.336 178.871 158.369 178.328 158.258 177.806L155.366 178.42ZM154.428 169.244H151.471V169.244H154.428ZM154.463 158.083L157.417 158.192C157.47 156.762 156.491 155.5 155.093 155.195L154.463 158.083ZM151.503 157.327L150.659 160.16L150.659 160.16L151.503 157.327ZM142.69 152.002L140.6 149.912C139.608 150.903 139.45 152.456 140.221 153.627L142.69 152.002ZM142.691 152.001L144.782 154.091C145.775 153.098 145.932 151.544 145.158 150.372L142.691 152.001ZM142.182 148.248L139.359 147.369L139.359 147.369L142.182 148.248ZM148.502 140.824L146.724 138.462L146.724 138.463L148.502 140.824ZM159.045 134.477L157.708 131.84L157.708 131.84L159.045 134.477ZM161.463 133.286L162.741 135.952C163.298 135.685 163.757 135.25 164.054 134.709L161.463 133.286ZM176.81 115.397L178.59 117.758C179.21 117.291 179.622 116.597 179.735 115.828L176.81 115.397ZM178.816 104.157L175.927 103.534V103.534L178.816 104.157ZM182.46 91.8701L179.752 90.6837L179.752 90.6837L182.46 91.8701ZM184.945 87.7012L182.742 85.7305L182.742 85.7305L184.945 87.7012ZM188.055 86.001V83.0447C188.02 83.0447 187.986 83.0453 187.952 83.0465L188.055 86.001ZM250.16 241.318L253.045 240.674C252.794 239.547 251.909 238.67 250.78 238.428C249.651 238.186 248.485 238.623 247.793 239.547L250.16 241.318ZM244.614 247.126L246.57 249.343L246.57 249.343L244.614 247.126ZM238.161 252.235L239.887 254.635L239.887 254.635L238.161 252.235ZM235.982 253.755L237.636 256.205L237.636 256.205L235.982 253.755ZM235.365 254.167L236.989 256.637L236.99 256.637L235.365 254.167ZM235.2 254.274L233.589 251.796L233.589 251.796L235.2 254.274ZM235.157 254.303L236.752 256.792L236.762 256.786L235.157 254.303ZM235.145 254.31L233.545 251.824C233.54 251.827 233.535 251.831 233.53 251.834L235.145 254.31ZM235.142 254.312L233.538 251.828C233.363 251.942 233.2 252.073 233.052 252.221L235.142 254.312ZM235.141 254.312L236.781 256.772C236.943 256.664 237.094 256.541 237.232 256.403L235.141 254.312ZM235.13 254.32L236.685 256.834C236.714 256.817 236.742 256.799 236.77 256.78L235.13 254.32ZM228.962 258.137L227.406 255.623C226.59 256.128 226.07 256.998 226.011 257.955C225.952 258.913 226.362 259.84 227.11 260.441L228.962 258.137ZM229.364 258.46L227.513 260.765C228.106 261.242 228.861 261.471 229.62 261.405L229.364 258.46ZM263.255 255.514L263.511 258.459C264.637 258.361 265.609 257.629 266.015 256.573C266.42 255.518 266.188 254.323 265.416 253.497L263.255 255.514ZM250.357 241.692L248.195 243.708L248.196 243.709L250.357 241.692ZM252.669 235.957L254.814 233.923C254.025 233.091 252.826 232.79 251.738 233.151C250.65 233.512 249.868 234.47 249.733 235.609L252.669 235.957ZM250.85 240.341L248.383 238.711C247.747 239.673 247.729 240.918 248.337 241.898C248.945 242.879 250.068 243.416 251.213 243.275L250.85 240.341ZM251.54 240.589L253.701 238.572L253.7 238.571L251.54 240.589ZM253.518 242.709L251.357 244.726C252.414 245.859 254.166 245.983 255.373 245.011L253.518 242.709ZM253.797 242.563L254.633 245.399L254.634 245.399L253.797 242.563ZM256.879 241.653L257.716 244.489C259.171 244.059 260.064 242.598 259.784 241.107L256.879 241.653ZM256.584 240.085L259.489 239.539C259.384 238.98 259.12 238.463 258.729 238.051L256.584 240.085ZM195.137 229.621L194.299 226.786C193.299 227.081 192.529 227.882 192.272 228.892C192.015 229.903 192.309 230.974 193.046 231.711L195.137 229.621ZM195.138 229.622L193.047 231.712C193.813 232.479 194.937 232.764 195.976 232.457L195.138 229.622ZM195.141 229.621L195.975 232.457L195.978 232.456L195.141 229.621ZM195.218 229.6L195.971 232.458C197.549 232.042 198.492 230.426 198.077 228.848C197.662 227.27 196.047 226.326 194.469 226.74L195.218 229.6ZM195.535 228.729L195.339 225.779C193.713 225.887 192.481 227.29 192.585 228.916C192.688 230.542 194.088 231.778 195.714 231.679L195.535 228.729ZM196.296 228.725V231.681C197.928 231.681 199.252 230.357 199.252 228.725H196.296ZM196.296 228.724H199.252C199.252 227.091 197.928 225.767 196.296 225.767V228.724ZM195.576 230.883C197.181 230.585 198.241 229.042 197.943 227.437C197.644 225.832 196.101 224.772 194.496 225.07L195.036 227.977L195.576 230.883ZM194.621 228.079L193.743 225.256C192.202 225.735 191.33 227.363 191.784 228.912C192.239 230.46 193.852 231.358 195.408 230.929L194.621 228.079ZM194.826 228.022L194.116 225.153C194.09 225.159 194.065 225.166 194.039 225.173L194.826 228.022ZM198.486 227.919C198.486 226.286 197.163 224.963 195.53 224.963C193.897 224.963 192.574 226.286 192.574 227.919H195.53H198.486ZM192.574 227.92C192.574 229.553 193.897 230.876 195.53 230.876C197.163 230.876 198.486 229.553 198.486 227.92H195.53H192.574ZM195.845 227.915H192.888C192.888 229.548 194.212 230.871 195.845 230.871V227.915ZM196.097 227.915V230.871C197.047 230.871 197.939 230.414 198.495 229.644C199.05 228.873 199.202 227.882 198.901 226.98L196.097 227.915ZM196.096 227.912L198.9 226.977C198.498 225.77 197.368 224.956 196.096 224.956V227.912ZM195.845 227.912V224.956C194.212 224.956 192.888 226.279 192.888 227.912H195.845ZM188.479 86.001L188.377 88.9554C188.45 88.958 188.79 89.0065 189.385 89.6718L191.589 87.7012L193.792 85.7305C192.655 84.4587 190.918 83.1277 188.582 83.0465L188.479 86.001ZM191.589 87.7012L189.385 89.6718C190.011 90.3717 190.685 91.5014 191.366 93.0566L194.074 91.8701L196.782 90.6837C195.991 88.8795 195.019 87.1023 193.792 85.7306L191.589 87.7012ZM194.074 91.8701L191.366 93.0565C192.721 96.1475 193.882 100.396 194.828 104.781L197.718 104.157L200.607 103.534C199.638 99.0387 198.378 94.3268 196.782 90.6837L194.074 91.8701ZM197.718 104.157L194.828 104.781C194.975 105.463 195.116 106.149 195.253 106.839L198.152 106.26L201.051 105.681C200.91 104.974 200.763 104.256 200.607 103.534L197.718 104.157ZM198.152 106.26L198.593 109.183C200.618 108.878 202.689 108.718 204.799 108.718V105.762V102.805C202.39 102.805 200.025 102.988 197.711 103.337L198.152 106.26ZM204.799 105.762V108.718H216.903V105.762V102.805H204.799V105.762ZM216.903 105.762V108.718C219.422 108.718 221.884 108.944 224.277 109.375L224.802 106.466L225.326 103.556C222.589 103.063 219.777 102.805 216.903 102.805L216.903 105.762ZM224.802 106.466L227.702 107.04C227.851 106.285 228.005 105.531 228.167 104.781L225.277 104.157L222.387 103.534C222.217 104.326 222.056 105.115 221.902 105.891L224.802 106.466ZM225.277 104.157L228.167 104.781C229.113 100.396 230.274 96.1474 231.629 93.0565L228.921 91.8701L226.213 90.6837C224.617 94.3267 223.357 99.0387 222.387 103.534L225.277 104.157ZM228.921 91.8701L231.629 93.0566C232.31 91.5015 232.984 90.3717 233.61 89.6717L231.406 87.7012L229.202 85.7306C227.976 87.1023 227.004 88.8795 226.213 90.6837L228.921 91.8701ZM231.406 87.7012L233.61 89.6718C234.204 89.0068 234.545 88.958 234.619 88.9554L234.516 86.001L234.412 83.0465C232.077 83.128 230.34 84.4585 229.203 85.7305L231.406 87.7012ZM234.516 86.001V88.9572H234.94V86.001V83.0447H234.516V86.001ZM234.94 86.001L234.838 88.9554C234.91 88.958 235.251 89.0065 235.846 89.6719L238.05 87.7012L240.253 85.7304C239.116 84.4589 237.379 83.1277 235.043 83.0465L234.94 86.001ZM238.05 87.7012L235.846 89.6718C236.472 90.3717 237.146 91.5014 237.827 93.0566L240.535 91.8701L243.243 90.6836C242.452 88.8796 241.48 87.1023 240.253 85.7305L238.05 87.7012ZM240.535 91.8701L237.827 93.0565C239.182 96.1474 240.343 100.396 241.289 104.781L244.179 104.157L247.068 103.534C246.099 99.0387 244.839 94.3267 243.243 90.6837L240.535 91.8701ZM244.179 104.157L241.289 104.781C242.229 109.138 242.933 113.518 243.403 116.817L246.33 116.4L249.257 115.984C248.776 112.605 248.048 108.076 247.068 103.534L244.179 104.157ZM246.33 116.4L243.403 116.817C243.404 116.821 243.405 116.829 243.408 116.854C243.411 116.873 243.416 116.912 243.422 116.953L246.349 116.538L249.276 116.123C249.275 116.118 249.274 116.111 249.27 116.085C249.268 116.064 249.263 116.025 249.257 115.984L246.33 116.4ZM246.349 116.538L244.487 118.835C248.624 122.188 252.256 126.235 255.247 130.744L257.711 129.109L260.174 127.475C256.868 122.491 252.836 117.991 248.21 114.242L246.349 116.538ZM257.711 129.109L256.622 131.858C257.207 132.09 257.887 132.363 258.64 132.674L259.769 129.942L260.899 127.21C260.114 126.886 259.407 126.602 258.8 126.361L257.711 129.109ZM259.769 129.942L258.64 132.674C261.259 133.757 264.771 135.293 268.364 137.114L269.7 134.477L271.036 131.84C267.267 129.929 263.607 128.33 260.899 127.21L259.769 129.942ZM269.7 134.477L268.364 137.114C271.968 138.94 275.591 141.022 278.465 143.186L280.243 140.824L282.021 138.462C278.753 136.002 274.785 133.739 271.036 131.84L269.7 134.477ZM280.243 140.824L278.465 143.186C281.431 145.419 283.224 147.467 283.741 149.127L286.563 148.248L289.386 147.369C288.277 143.806 285.126 140.8 282.021 138.463L280.243 140.824ZM286.563 148.248L283.741 149.127C283.882 149.582 283.811 150.032 283.586 150.372L286.054 152.001L288.521 153.63C289.772 151.734 290.028 149.43 289.386 147.369L286.563 148.248ZM286.054 152.001L283.584 150.376C283.015 151.241 281.318 153.028 276.397 154.494L277.241 157.327L278.085 160.16C283.883 158.433 286.961 155.999 288.523 153.626L286.054 152.001ZM277.241 157.327L276.397 154.494C274.043 155.195 270.97 155.815 266.966 156.224L267.266 159.165L267.567 162.106C271.857 161.668 275.306 160.989 278.085 160.16L277.241 157.327ZM267.266 159.165L264.311 159.212C264.315 159.477 264.318 159.726 264.318 159.97H267.274H270.231C270.231 159.677 270.227 159.39 270.222 159.118L267.266 159.165ZM267.274 159.97H264.318V169.244H267.274H270.231V159.97H267.274ZM267.274 169.244H264.318C264.318 181.979 258.92 192.033 250.212 198.951L252.051 201.266L253.89 203.58C263.965 195.576 270.231 183.838 270.231 169.244H267.274ZM252.051 201.266L250.212 198.951C249.215 199.743 248.167 200.495 247.075 201.211L248.695 203.684L250.316 206.156C251.546 205.35 252.741 204.493 253.89 203.58L252.051 201.266ZM248.695 203.684L245.876 202.793C245.882 202.775 245.887 202.761 245.889 202.753C245.89 202.75 245.891 202.747 245.892 202.745C245.892 202.744 245.893 202.743 245.892 202.744C245.892 202.744 245.891 202.747 245.89 202.75C245.889 202.753 245.888 202.758 245.886 202.764C245.882 202.774 245.876 202.791 245.87 202.812L248.685 203.713L251.501 204.614C251.496 204.629 251.492 204.641 251.49 204.647C251.488 204.653 251.487 204.657 251.488 204.652C251.489 204.65 251.493 204.64 251.497 204.628C251.501 204.616 251.507 204.597 251.514 204.574L248.695 203.684ZM248.685 203.713L246.934 206.094L271.472 224.147L273.224 221.766L274.975 219.384L250.437 201.332L248.685 203.713ZM273.224 221.766L271.472 224.147C275.369 227.013 276.394 232.244 274.193 236.295L276.79 237.707L279.387 239.119C282.961 232.543 281.318 224.048 274.975 219.384L273.224 221.766ZM276.79 237.707L277.5 240.577L278.542 240.319L277.832 237.449L277.122 234.579L276.08 234.837L276.79 237.707ZM277.832 237.449L280.777 237.701C280.747 238.06 280.449 238.344 280.078 238.344V235.388V232.431C277.346 232.431 275.114 234.529 274.886 237.198L277.832 237.449ZM280.078 235.388V238.344C279.691 238.344 279.378 238.03 279.378 237.644L282.334 237.644L285.29 237.643C285.29 234.765 282.957 232.431 280.078 232.431V235.388ZM282.334 237.644H279.378C279.378 237.257 279.691 236.943 280.078 236.943V239.899V242.856C282.957 242.856 285.29 240.522 285.29 237.644H282.334ZM280.078 239.899V236.943C280.312 236.943 280.516 237.06 280.636 237.218L278.28 239.004L275.924 240.789C276.868 242.035 278.375 242.856 280.078 242.856V239.899ZM278.28 239.004L277.568 236.135L274.72 236.842L275.433 239.711L276.145 242.58L278.993 241.873L278.28 239.004ZM275.433 239.711L273.158 237.823C273.044 237.96 272.927 238.094 272.806 238.224L274.975 240.233L277.143 242.243C277.339 242.031 277.527 241.816 277.707 241.599L275.433 239.711ZM274.975 240.233L272.806 238.225C269.545 241.745 264.265 242.212 260.472 239.592L258.792 242.024L257.112 244.457C263.27 248.71 271.84 247.969 277.143 242.242L274.975 240.233ZM258.792 242.024L258.195 239.129L258.005 239.168L258.602 242.063L259.199 244.959L259.389 244.92L258.792 242.024ZM258.602 242.063L255.694 242.592L255.696 242.603L258.604 242.074L261.513 241.545L261.511 241.535L258.602 242.063ZM258.604 242.074L255.699 242.619C255.496 241.535 256.146 240.475 257.202 240.164L258.038 242.999L258.874 245.834C260.726 245.288 261.866 243.429 261.51 241.53L258.604 242.074ZM258.038 242.999L257.203 240.163L253.87 241.145L254.705 243.98L255.54 246.816L258.873 245.835L258.038 242.999ZM254.705 243.98L252.544 245.997L262.709 256.89L264.87 254.873L267.031 252.856L256.866 241.964L254.705 243.98ZM264.87 254.873L262.66 256.836L262.792 256.985L265.002 255.021L267.212 253.058L267.08 252.91L264.87 254.873ZM265.002 255.021L262.745 256.931C263.096 257.346 263.087 257.941 262.706 258.35L264.87 260.364L267.034 262.379C269.459 259.774 269.54 255.808 267.258 253.112L265.002 255.021ZM264.87 260.364L262.78 262.455L262.781 262.456L264.871 260.365L266.961 258.275L266.96 258.274L264.87 260.364ZM264.871 260.365L262.706 258.352L250.088 271.92L252.253 273.934L254.418 275.947L267.036 262.378L264.871 260.365ZM252.253 273.934V270.977H252.252V273.934V276.89H252.253V273.934ZM252.252 273.934L250.088 271.919C249.663 272.376 248.921 272.437 248.417 272.033L246.57 274.342L244.723 276.65C247.624 278.971 251.866 278.687 254.416 275.948L252.252 273.934ZM246.57 274.342L248.661 272.251L248.66 272.25L246.569 274.341L244.479 276.431L244.48 276.432L246.57 274.342ZM246.569 274.341L248.42 272.035L229.544 256.887L227.693 259.192L225.843 261.498L244.719 276.646L246.569 274.341ZM227.693 259.192L229.544 256.887C229.722 257.03 229.873 257.198 229.992 257.38L227.524 259.007L225.056 260.634C225.266 260.953 225.529 261.246 225.842 261.497L227.693 259.192ZM227.524 259.007L226 256.474L197.622 273.556L199.146 276.089L200.671 278.622L229.049 261.54L227.524 259.007ZM199.146 276.089L201.237 273.998L201.236 273.998L199.145 276.088L197.055 278.178L197.056 278.179L199.146 276.089ZM199.145 276.088L197.597 273.57C197.082 273.886 196.41 273.777 196.03 273.344L193.808 275.295L191.587 277.246C193.885 279.862 197.746 280.419 200.694 278.606L199.145 276.088ZM193.808 275.295L195.899 273.205L195.898 273.204L193.808 275.294L191.717 277.384L191.718 277.385L193.808 275.295ZM193.808 275.294L196.031 273.346L182.629 258.051L180.405 259.999L178.182 261.947L191.584 277.242L193.808 275.294ZM180.405 259.999H183.361V259.998H180.405H177.449V259.999H180.405ZM180.405 259.998L182.627 258.048C182.289 257.663 182.275 257.138 182.531 256.769L180.103 255.083L177.675 253.397C175.823 256.064 176.108 259.584 178.184 261.948L180.405 259.998ZM180.103 255.083L182.531 256.77C185.368 252.688 189.693 248.814 193.405 245.915L191.586 243.585L189.766 241.255C185.898 244.276 181.021 248.583 177.676 253.396L180.103 255.083ZM191.586 243.585L193.405 245.915C195.245 244.478 196.902 243.305 198.096 242.494L196.434 240.049L194.773 237.604C193.495 238.472 191.729 239.722 189.766 241.255L191.586 243.585ZM196.434 240.049L198.096 242.494C198.691 242.089 199.172 241.775 199.501 241.563L197.899 239.078L196.298 236.593C195.934 236.828 195.414 237.168 194.773 237.604L196.434 240.049ZM197.899 239.078L199.501 241.563C199.661 241.46 199.787 241.38 199.875 241.325L198.3 238.823L196.725 236.322C196.628 236.382 196.483 236.474 196.298 236.593L197.899 239.078ZM198.3 238.823L199.875 241.325C199.935 241.287 199.951 241.277 199.968 241.266L198.405 238.757L196.842 236.247C196.811 236.267 196.756 236.302 196.725 236.321L198.3 238.823ZM198.405 238.757L199.968 241.266C200.001 241.245 200.028 241.228 200.037 241.222C200.039 241.221 200.04 241.221 200.04 241.22C200.041 241.22 200.041 241.22 200.041 241.219C200.042 241.219 200.04 241.22 200.037 241.222C200.034 241.224 200.029 241.227 200.023 241.231C200.016 241.236 200.006 241.242 199.994 241.25L198.433 238.739L196.871 236.229C196.857 236.238 196.846 236.245 196.837 236.25C196.829 236.256 196.822 236.26 196.817 236.263C196.813 236.266 196.809 236.269 196.807 236.27C196.806 236.27 196.805 236.271 196.805 236.271C196.805 236.272 196.804 236.272 196.804 236.272C196.805 236.271 196.821 236.261 196.843 236.247L198.405 238.757ZM198.433 238.739L199.989 241.252C199.905 241.305 199.832 241.344 199.777 241.372C199.724 241.399 199.681 241.419 199.664 241.426C199.656 241.43 199.649 241.433 199.652 241.432C199.652 241.432 199.664 241.426 199.679 241.42C199.694 241.413 199.721 241.4 199.756 241.383C199.789 241.366 199.841 241.34 199.902 241.305L198.44 238.735L196.978 236.166C197.039 236.131 197.09 236.105 197.124 236.089C197.157 236.072 197.184 236.059 197.199 236.053C197.206 236.049 197.213 236.046 197.216 236.044C197.22 236.043 197.223 236.041 197.223 236.041C197.226 236.04 197.218 236.044 197.21 236.047C197.191 236.056 197.147 236.076 197.092 236.104C197.036 236.133 196.962 236.173 196.876 236.226L198.433 238.739ZM198.44 238.735L200.531 240.826L200.533 240.824L198.442 238.733L196.352 236.643L196.35 236.645L198.44 238.735ZM198.442 238.733V241.69H198.443V238.733V235.777H198.442V238.733ZM198.443 238.733L199.994 241.25C199.767 241.39 199.504 241.492 199.217 241.54L198.735 238.623L198.253 235.706C197.765 235.787 197.304 235.963 196.893 236.216L198.443 238.733ZM198.735 238.623L201.606 237.916L200.751 234.449L197.881 235.156L195.01 235.864L195.865 239.331L198.735 238.623ZM197.881 235.156V232.2H195.698V235.156V238.113H197.881V235.156ZM195.698 235.156L195.698 232.2C195.334 232.2 195.032 231.898 195.032 231.534L192.076 231.534L189.12 231.535C189.12 235.164 192.068 238.112 195.698 238.113L195.698 235.156ZM192.076 231.534H195.032C195.032 231.277 195.187 231.035 195.434 230.925L194.226 228.227L193.019 225.528C190.735 226.55 189.12 228.848 189.12 231.534H192.076ZM194.226 228.227H191.27V228.631H194.226H197.183V228.227H194.226ZM194.226 228.631H191.27C191.27 228.9 191.283 229.158 191.309 229.415L194.251 229.128L197.193 228.841C197.186 228.767 197.183 228.701 197.183 228.631H194.226ZM194.251 229.128L192.728 226.594C191.714 227.204 190.907 228.114 190.423 229.198L193.123 230.402L195.823 231.607C195.817 231.62 195.81 231.63 195.803 231.638C195.796 231.646 195.786 231.654 195.774 231.662L194.251 229.128ZM193.123 230.402L195.819 231.615C195.813 231.627 195.807 231.636 195.801 231.643C195.796 231.649 195.788 231.656 195.776 231.663L194.248 229.133L192.72 226.602C191.716 227.208 190.912 228.111 190.427 229.19L193.123 230.402ZM194.248 229.133L191.304 229.408C191.348 229.869 191.427 230.316 191.536 230.745L194.401 230.019L197.267 229.292C197.23 229.147 197.205 229.003 197.191 228.858L194.248 229.133ZM194.401 230.019L192.486 227.767C191.442 228.655 190.734 229.998 190.734 231.538L193.69 231.538L196.647 231.538C196.647 231.857 196.496 232.118 196.317 232.27L194.401 230.019ZM193.69 231.538H190.734C190.734 234.269 192.949 236.5 195.695 236.5V233.544V230.588C196.226 230.588 196.647 231.015 196.647 231.538H193.69ZM195.695 233.544V236.5H197.082V233.544V230.588H195.695V233.544ZM197.082 233.544L194.992 231.454L194.988 231.457L197.078 233.548L199.168 235.638L199.172 235.634L197.082 233.544ZM197.078 233.548L195.6 236.108C195.846 236.25 196.086 236.37 196.309 236.473L197.543 233.786L198.777 231.1C198.682 231.056 198.611 231.019 198.556 230.988L197.078 233.548ZM197.543 233.786L200.411 233.069L200.409 233.061L197.541 233.778L194.673 234.495L194.675 234.503L197.543 233.786ZM197.541 233.778L198.778 231.093C198.682 231.049 198.612 231.013 198.56 230.983L197.082 233.543L195.604 236.103C195.849 236.245 196.087 236.363 196.304 236.463L197.541 233.778ZM197.082 233.543V230.587H195.703V233.543V236.499H197.082V233.543ZM195.703 233.543V230.587C196.228 230.587 196.653 231.008 196.653 231.537H193.697H190.741C190.741 234.281 192.97 236.499 195.703 236.499V233.543ZM193.697 231.537L196.653 231.538C196.653 231.859 196.501 232.119 196.324 232.27L194.409 230.018L192.494 227.766C191.452 228.652 190.741 229.995 190.741 231.537L193.697 231.537ZM194.409 230.018L196.344 232.253C196.33 232.265 196.306 232.285 196.271 232.31L194.542 229.912L192.813 227.514C192.686 227.605 192.574 227.696 192.475 227.782L194.409 230.018ZM194.542 229.912L192.823 227.507C192.73 227.574 192.606 227.666 192.471 227.783L194.405 230.019L196.34 232.254C196.315 232.275 196.295 232.291 196.282 232.301C196.269 232.311 196.261 232.317 196.261 232.317L194.542 229.912ZM194.405 230.019L197.271 229.292C197.234 229.147 197.209 229.003 197.195 228.858L194.252 229.133L191.308 229.408C191.352 229.869 191.431 230.316 191.54 230.745L194.405 230.019ZM194.252 229.133L195.803 231.649C195.785 231.66 195.77 231.668 195.759 231.672C195.748 231.677 195.742 231.678 195.742 231.678L195.044 228.806L194.346 225.933C193.78 226.07 193.223 226.294 192.7 226.616L194.252 229.133ZM195.044 228.806L195.685 231.692L195.764 231.674L195.123 228.788L194.482 225.902L194.403 225.92L195.044 228.806ZM195.123 228.788L194.52 225.894C194.521 225.894 194.52 225.894 194.515 225.895C194.511 225.896 194.5 225.898 194.489 225.9C194.468 225.905 194.427 225.913 194.379 225.924L195.044 228.805L195.709 231.685C195.697 231.688 195.688 231.69 195.683 231.691C195.678 231.692 195.675 231.693 195.677 231.692C195.678 231.692 195.679 231.692 195.682 231.691C195.683 231.691 195.685 231.691 195.686 231.69C195.688 231.69 195.69 231.69 195.692 231.689C195.699 231.688 195.712 231.685 195.726 231.682L195.123 228.788ZM195.044 228.805L197.848 227.87L197.847 227.867L195.043 228.802L192.238 229.737L192.239 229.74L195.044 228.805ZM195.043 228.802L194.344 225.929C193.753 226.073 193.211 226.306 192.731 226.594L194.252 229.129L195.773 231.664C195.777 231.661 195.768 231.668 195.742 231.674L195.043 228.802ZM194.252 229.129L197.2 228.913C197.187 228.726 197.184 228.67 197.184 228.632L194.227 228.632L191.271 228.632C191.271 228.925 191.293 229.2 191.303 229.345L194.252 229.129ZM194.227 228.632H197.184V224.867H194.227H191.271V228.632H194.227ZM194.227 224.867L197.184 224.867C197.184 224.705 197.192 224.531 197.207 224.339L194.261 224.101L191.314 223.862C191.289 224.176 191.271 224.513 191.271 224.867L194.227 224.867ZM194.261 224.101L193.776 221.184L163.937 226.144L164.422 229.061L164.907 231.977L194.745 227.017L194.261 224.101ZM164.422 229.061L163.748 226.182C159.105 227.269 154.501 224.283 153.583 219.633L150.683 220.206L147.782 220.779C149.348 228.708 157.19 233.79 165.096 231.939L164.422 229.061ZM150.683 220.206L153.59 219.67L153.534 219.368L150.627 219.904L147.72 220.441L147.775 220.742L150.683 220.206ZM150.627 219.904L153.541 219.408C152.697 214.458 156.349 209.882 161.36 209.602L161.195 206.65L161.03 203.699C152.497 204.176 146.276 211.97 147.713 220.401L150.627 219.904ZM161.195 206.65L161.363 209.602L162.034 209.564L161.866 206.612L161.699 203.661L161.028 203.699L161.195 206.65ZM161.866 206.612L163.75 204.334C158.759 200.205 156.971 194.538 156.801 187.74L153.846 187.813L150.89 187.887C151.084 195.654 153.192 203.273 159.982 208.89L161.866 206.612ZM153.846 187.813H156.802V187.772H153.846H150.889V187.813H153.846ZM153.846 187.772L156.801 187.846C156.878 184.773 157.289 181.935 158.163 179.376L155.366 178.42L152.569 177.464C151.448 180.743 150.977 184.209 150.89 187.699L153.846 187.772ZM155.366 178.42L158.258 177.806C157.686 175.116 157.384 172.26 157.384 169.244H154.428H151.471C151.471 172.657 151.814 175.925 152.474 179.034L155.366 178.42ZM154.428 169.244H157.384V159.97H154.428H151.471V169.244H154.428ZM154.428 159.97H157.384C157.384 159.378 157.395 158.785 157.417 158.192L154.463 158.083L151.509 157.974C151.484 158.638 151.471 159.303 151.471 159.97H154.428ZM154.463 158.083L155.093 155.195C154.081 154.974 153.169 154.739 152.347 154.494L151.503 157.327L150.659 160.16C151.635 160.451 152.69 160.722 153.833 160.971L154.463 158.083ZM151.503 157.327L152.347 154.494C147.427 153.028 145.729 151.242 145.16 150.377L142.69 152.002L140.221 153.627C141.783 156 144.863 158.433 150.659 160.16L151.503 157.327ZM142.69 152.002L144.781 154.092L144.782 154.091L142.691 152.001L140.601 149.911L140.6 149.912L142.69 152.002ZM142.691 152.001L145.158 150.372C144.934 150.032 144.863 149.582 145.004 149.127L142.182 148.248L139.359 147.369C138.717 149.43 138.972 151.734 140.224 153.63L142.691 152.001ZM142.182 148.248L145.004 149.127C145.521 147.467 147.314 145.419 150.28 143.186L148.502 140.824L146.724 138.463C143.618 140.8 140.468 143.806 139.359 147.369L142.182 148.248ZM148.502 140.824L150.28 143.186C153.153 141.022 156.777 138.94 160.381 137.114L159.045 134.477L157.708 131.84C153.96 133.739 149.992 136.002 146.724 138.462L148.502 140.824ZM159.045 134.477L160.381 137.114C161.172 136.713 161.962 136.326 162.741 135.952L161.463 133.286L160.185 130.621C159.374 131.009 158.545 131.416 157.708 131.84L159.045 134.477ZM161.463 133.286L164.054 134.709C167.694 128.081 172.666 122.223 178.59 117.758L176.81 115.397L175.031 113.037C168.401 118.034 162.891 124.546 158.872 131.863L161.463 133.286ZM176.81 115.397L179.735 115.828C180.201 112.667 180.857 108.714 181.706 104.781L178.816 104.157L175.927 103.534C175.041 107.637 174.363 111.727 173.886 114.967L176.81 115.397ZM178.816 104.157L181.706 104.781C182.652 100.396 183.813 96.1475 185.168 93.0565L182.46 91.8701L179.752 90.6837C178.156 94.3268 176.896 99.0387 175.927 103.534L178.816 104.157ZM182.46 91.8701L185.168 93.0566C185.849 91.5013 186.523 90.3717 187.149 89.6718L184.945 87.7012L182.742 85.7305C181.515 87.1023 180.543 88.8795 179.752 90.6837L182.46 91.8701ZM184.945 87.7012L187.149 89.6718C187.744 89.0065 188.084 88.958 188.157 88.9554L188.055 86.001L187.952 83.0465C185.616 83.1277 183.879 84.4587 182.742 85.7305L184.945 87.7012ZM188.055 86.001V88.9572H188.479V86.001V83.0447H188.055V86.001ZM250.16 241.318L247.793 239.547C246.461 241.328 244.62 243.179 242.658 244.909L244.614 247.126L246.57 249.343C248.68 247.482 250.853 245.327 252.527 243.089L250.16 241.318ZM244.614 247.126L242.658 244.909C240.458 246.85 238.176 248.583 236.435 249.835L238.161 252.235L239.887 254.635C241.725 253.314 244.175 251.456 246.57 249.343L244.614 247.126ZM238.161 252.235L236.435 249.835C235.568 250.459 234.838 250.96 234.328 251.305L235.982 253.755L237.636 256.205C238.186 255.834 238.964 255.299 239.887 254.635L238.161 252.235ZM235.982 253.755L234.328 251.305C234.072 251.478 233.873 251.61 233.741 251.697L235.365 254.167L236.99 256.637C237.145 256.535 237.364 256.389 237.636 256.205L235.982 253.755ZM235.365 254.167L233.741 251.697C233.678 251.738 233.641 251.762 233.589 251.796L235.2 254.274L236.811 256.753C236.835 256.738 236.909 256.69 236.989 256.637L235.365 254.167ZM235.2 254.274L233.589 251.796C233.567 251.81 233.548 251.822 233.54 251.828C233.534 251.832 233.534 251.832 233.534 251.832C233.535 251.831 233.542 251.827 233.553 251.82L235.157 254.303L236.762 256.786C236.777 256.776 236.79 256.767 236.796 256.763C236.802 256.759 236.809 256.754 236.811 256.753C236.817 256.75 236.815 256.751 236.811 256.753L235.2 254.274ZM235.157 254.303L233.562 251.814C233.603 251.788 233.637 251.767 233.663 251.752C233.676 251.744 233.687 251.738 233.695 251.734C233.703 251.729 233.71 251.725 233.713 251.724C233.713 251.723 233.714 251.723 233.714 251.723C233.715 251.723 233.715 251.723 233.715 251.722C233.715 251.722 233.715 251.722 233.715 251.722C233.715 251.722 233.715 251.722 233.715 251.722C233.715 251.722 233.714 251.723 233.712 251.724C233.711 251.725 233.708 251.726 233.704 251.728C233.701 251.73 233.696 251.733 233.69 251.736C233.684 251.74 233.677 251.744 233.668 251.749C233.66 251.754 233.65 251.759 233.638 251.766C233.627 251.773 233.613 251.781 233.598 251.791C233.583 251.8 233.565 251.811 233.545 251.824L235.145 254.31L236.746 256.795C236.726 256.808 236.709 256.819 236.694 256.828C236.679 256.837 236.666 256.845 236.655 256.852C236.643 256.858 236.634 256.864 236.626 256.869C236.618 256.873 236.611 256.877 236.605 256.88C236.6 256.883 236.595 256.886 236.592 256.888C236.589 256.889 236.587 256.891 236.586 256.891C236.585 256.892 236.584 256.892 236.584 256.892C236.585 256.892 236.586 256.891 236.588 256.89C236.592 256.887 236.6 256.883 236.609 256.878C236.618 256.873 236.63 256.866 236.644 256.858C236.672 256.842 236.709 256.819 236.752 256.792L235.157 254.303ZM235.145 254.31L233.53 251.834C233.518 251.842 233.508 251.848 233.503 251.852C233.497 251.856 233.493 251.859 233.492 251.859C233.491 251.859 233.492 251.859 233.493 251.858C233.494 251.858 233.496 251.856 233.499 251.854C233.502 251.852 233.507 251.849 233.512 251.845C233.518 251.841 233.527 251.836 233.538 251.828L235.142 254.312L236.747 256.795C236.758 256.787 236.767 256.781 236.773 256.777C236.779 256.773 236.784 256.77 236.787 256.768C236.79 256.766 236.793 256.764 236.794 256.764C236.795 256.763 236.796 256.762 236.795 256.762C236.795 256.763 236.794 256.763 236.793 256.764C236.792 256.765 236.789 256.767 236.787 256.768C236.782 256.772 236.773 256.778 236.761 256.785L235.145 254.31ZM235.142 254.312L233.052 252.221L233.051 252.222L235.141 254.312L237.232 256.403L237.233 256.402L235.142 254.312ZM235.141 254.312L233.502 251.853L233.49 251.861L235.13 254.32L236.77 256.78L236.781 256.772L235.141 254.312ZM235.13 254.32L233.574 251.806L227.406 255.623L228.962 258.137L230.517 260.651L236.685 256.834L235.13 254.32ZM228.962 258.137L227.11 260.441L227.513 260.765L229.364 258.46L231.216 256.155L230.813 255.832L228.962 258.137ZM229.364 258.46L229.62 261.405L263.511 258.459L263.255 255.514L262.999 252.569L229.108 255.515L229.364 258.46ZM263.255 255.514L265.416 253.497L252.519 239.675L250.357 241.692L248.196 243.709L261.093 257.531L263.255 255.514ZM250.357 241.692L252.52 239.677C252.788 239.965 252.965 240.313 253.045 240.674L250.16 241.318L247.275 241.963C247.416 242.595 247.723 243.202 248.195 243.708L250.357 241.692ZM252.669 235.957L249.733 235.609C249.637 236.419 249.206 237.466 248.383 238.711L250.85 240.341L253.316 241.971C254.378 240.365 255.354 238.417 255.604 236.305L252.669 235.957ZM250.85 240.341L251.213 243.275C250.581 243.353 249.882 243.145 249.379 242.607L251.54 240.589L253.7 238.571C252.831 237.64 251.614 237.267 250.486 237.407L250.85 240.341ZM251.54 240.589L249.379 242.606L251.357 244.726L253.518 242.709L255.68 240.692L253.701 238.572L251.54 240.589ZM253.518 242.709L255.373 245.011C255.158 245.185 254.907 245.318 254.633 245.399L253.797 242.563L252.961 239.728C252.477 239.87 252.039 240.105 251.664 240.407L253.518 242.709ZM253.797 242.563L254.634 245.399L257.716 244.489L256.879 241.653L256.042 238.818L252.96 239.728L253.797 242.563ZM256.879 241.653L259.784 241.107L259.489 239.539L256.584 240.085L253.679 240.631L253.973 242.2L256.879 241.653ZM256.584 240.085L258.729 238.051L254.814 233.923L252.669 235.957L250.524 237.991L254.439 242.119L256.584 240.085ZM195.137 229.621L193.046 231.711L193.047 231.712L195.138 229.622L197.228 227.532L197.227 227.531L195.137 229.621ZM195.138 229.622L195.976 232.457C196.001 232.45 196.022 232.443 196.041 232.437C196.059 232.431 196.074 232.426 196.086 232.422C196.098 232.418 196.108 232.415 196.114 232.413C196.117 232.412 196.119 232.411 196.12 232.41C196.122 232.41 196.123 232.409 196.123 232.409C196.123 232.409 196.123 232.409 196.123 232.409C196.123 232.409 196.123 232.409 196.122 232.409C196.122 232.41 196.122 232.41 196.122 232.41C196.122 232.41 196.121 232.41 196.12 232.41C196.119 232.411 196.116 232.412 196.113 232.413C196.107 232.415 196.098 232.418 196.086 232.422C196.074 232.426 196.058 232.431 196.04 232.437C196.021 232.443 196 232.45 195.975 232.457L195.141 229.621L194.306 226.785C194.281 226.792 194.259 226.799 194.241 226.805C194.222 226.811 194.206 226.816 194.194 226.821C194.182 226.825 194.172 226.828 194.165 226.83C194.162 226.831 194.16 226.832 194.158 226.833C194.157 226.833 194.157 226.833 194.156 226.833C194.156 226.834 194.156 226.834 194.155 226.834C194.155 226.834 194.156 226.834 194.157 226.833C194.159 226.833 194.161 226.832 194.164 226.831C194.169 226.829 194.179 226.826 194.19 226.822C194.202 226.818 194.217 226.813 194.235 226.807C194.253 226.801 194.275 226.794 194.299 226.787L195.138 229.622ZM195.141 229.621L195.978 232.456C195.971 232.458 195.968 232.459 195.971 232.458L195.218 229.6L194.464 226.741C194.416 226.754 194.361 226.769 194.303 226.786L195.141 229.621ZM195.218 229.6L194.469 226.74C194.472 226.739 194.473 226.739 194.467 226.74C194.463 226.741 194.45 226.745 194.438 226.748C194.412 226.754 194.36 226.768 194.299 226.786L195.137 229.621L195.974 232.456C195.956 232.462 195.941 232.466 195.932 232.468C195.923 232.471 195.917 232.472 195.916 232.472C195.916 232.472 195.917 232.472 195.919 232.472C195.92 232.471 195.921 232.471 195.923 232.471C195.924 232.47 195.926 232.47 195.928 232.469C195.932 232.468 195.938 232.467 195.944 232.465C195.95 232.464 195.958 232.462 195.967 232.459L195.218 229.6ZM195.535 228.729L195.714 231.679C195.693 231.681 195.679 231.681 195.678 231.681C195.677 231.681 195.678 231.681 195.681 231.681C195.685 231.681 195.691 231.681 195.699 231.681V228.725V225.768C195.629 225.768 195.502 225.769 195.356 225.778L195.535 228.729ZM195.699 228.725V231.681H196.296V228.725V225.768H195.699V228.725ZM196.296 228.725H199.252V228.724H196.296H193.34V228.725H196.296ZM196.296 228.724V225.767H195.699V228.724V231.68H196.296V228.724ZM195.699 228.724V225.767C195.6 225.767 195.477 225.77 195.339 225.779L195.535 228.729L195.731 231.678C195.716 231.679 195.705 231.68 195.7 231.68C195.695 231.68 195.694 231.68 195.699 231.68V228.724ZM195.036 227.977L194.496 225.07C194.241 225.117 193.99 225.179 193.743 225.256L194.621 228.079L195.499 230.902C195.522 230.895 195.548 230.888 195.576 230.883L195.036 227.977ZM194.621 228.079L195.408 230.929L195.613 230.872L194.826 228.022L194.039 225.173L193.834 225.23L194.621 228.079ZM194.826 228.022L195.536 230.892C195.562 230.886 195.574 230.883 195.576 230.883L195.036 227.977L194.496 225.07C194.357 225.096 194.229 225.125 194.116 225.153L194.826 228.022ZM195.53 227.919H192.574V227.92H195.53H198.486V227.919H195.53ZM195.53 227.92H198.486V227.919H195.53H192.574V227.92H195.53ZM195.845 227.915V230.871H196.097V227.915V224.959H195.845V227.915ZM196.097 227.915L198.901 226.98L198.9 226.977L196.096 227.912L193.291 228.847L193.292 228.85L196.097 227.915ZM196.096 227.912V224.956H195.845V227.912V230.868H196.096V227.912ZM195.845 227.912H192.888V227.915H195.845H198.801V227.912H195.845Z" fill="#090A0A" mask="url(#path-17-outside-1_171_3033)"/>
<path d="M254.026 243.338L257.811 242.222L256.21 233.704L266.325 240.625L273.247 230.51L274.844 239.024L279.679 237.823" stroke="black" stroke-width="1.61718" stroke-linecap="round" stroke-linejoin="round"/>
<path d="M280.079 239.899C281.325 239.899 282.335 238.889 282.335 237.643C282.335 236.397 281.325 235.387 280.079 235.387C278.833 235.387 277.823 236.397 277.823 237.643C277.823 238.889 278.833 239.899 280.079 239.899Z" fill="black"/>
<path d="M250.949 241.14L264.279 255.423C265.439 256.669 265.439 258.569 264.279 259.814L251.661 273.382C250.464 274.668 248.451 274.809 247.076 273.71L228.2 258.561" fill="#E5E5E5"/>
<path d="M250.949 241.14L264.279 255.423C265.439 256.669 265.439 258.569 264.279 259.814L251.661 273.382C250.464 274.668 248.451 274.809 247.076 273.71L228.2 258.561" stroke="black" stroke-width="1.61718" stroke-linecap="round" stroke-linejoin="round"/>
<path d="M198.443 205.297L161.285 207.371C154.994 207.723 150.409 213.468 151.468 219.682C152.491 225.694 158.382 229.587 164.313 228.18L194.91 223.094L198.912 239.339C198.912 239.339 186.856 246.766 180.812 255.462C179.975 256.667 180.088 258.28 181.059 259.384L194.461 274.678C195.541 275.908 197.376 276.178 198.775 275.313L228.256 257.569L234.749 253.55C234.749 253.55 254.083 241.126 251.754 233.917L244.141 225.666L257.454 239.703C262.075 244.579 269.858 244.53 274.423 239.602C279.141 234.512 278.373 226.446 272.785 222.334L239.758 198.036L198.443 205.305V205.297Z" fill="white"/>
<path d="M239.718 198.118L272.745 222.416C278.337 226.528 279.101 234.594 274.383 239.684C269.818 244.612 262.039 244.657 257.414 239.785L244.101 225.748" stroke="black" stroke-width="1.61718" stroke-linecap="round" stroke-linejoin="round"/>
<path d="M198.868 239.42C198.868 239.42 186.812 246.847 180.768 255.543C179.931 256.748 180.044 258.361 181.015 259.465L194.417 274.759C195.497 275.988 197.332 276.259 198.731 275.394L228.212 257.649L234.705 253.631C234.705 253.631 254.039 241.207 251.71 233.998" stroke="black" stroke-width="1.61718" stroke-linecap="round" stroke-linejoin="round"/>
<path d="M199.777 122.063C199.777 122.063 196.013 86.5173 188.267 86.8084C180.521 86.5173 176.757 122.063 176.757 122.063H199.777Z" fill="#FF6100" stroke="black" stroke-width="1.61718" stroke-miterlimit="10"/>
<path d="M246.239 122.063C246.239 122.063 242.475 86.5173 234.729 86.8084C226.983 86.5173 223.219 122.063 223.219 122.063H246.239Z" fill="#FF6100" stroke="black" stroke-width="1.61718" stroke-miterlimit="10"/>
<path d="M173.672 128.96C173.672 128.96 145.881 139.084 142.954 148.487C142.63 149.526 142.768 150.65 143.366 151.556C145.226 154.382 152.164 159.642 178.342 158.785L173.672 128.96Z" fill="black" stroke="black" stroke-width="1.61718" stroke-miterlimit="10"/>
<path d="M255.073 128.96C255.073 128.96 282.864 139.084 285.791 148.487C286.115 149.526 285.977 150.65 285.379 151.556C283.519 154.382 276.581 159.642 250.403 158.785L255.073 128.96Z" fill="black" stroke="black" stroke-width="1.61718" stroke-miterlimit="10"/>
<path d="M198.4 205.383L161.241 207.457C154.95 207.809 150.365 213.554 151.424 219.768C152.447 225.78 158.338 229.673 164.269 228.266L194.866 223.18" stroke="black" stroke-width="1.61718" stroke-linecap="round" stroke-linejoin="round"/>
<path d="M248.18 202.868C248.18 202.868 246.009 215.866 218.533 220.002C189.836 224.32 185.155 210.804 185.155 210.804L184.31 208.346" fill="black"/>
<path d="M248.18 202.868C248.18 202.868 246.009 215.866 218.533 220.002C189.836 224.32 185.155 210.804 185.155 210.804L184.31 208.346" stroke="black" stroke-width="1.41503" stroke-miterlimit="10"/>
<path d="M215.679 211.904H206.02C178.088 211.904 155.237 196.064 155.237 169.243V159.969C155.237 133.148 176.867 106.569 204.799 106.569H216.904C244.837 106.569 266.466 133.152 266.466 159.969V169.243C266.466 196.064 243.612 211.904 215.683 211.904H215.679Z" fill="white" stroke="black" stroke-width="1.61718" stroke-miterlimit="10"/>
<path d="M192.072 157.18C192.12 168.674 187.661 174.071 181.475 173.731C175.294 174.075 170.834 168.674 170.883 157.18C170.838 145.685 175.294 140.288 181.475 140.628C187.657 140.284 192.12 145.685 192.072 157.18Z" fill="white"/>
<path d="M192.072 157.18C192.12 168.674 187.661 174.071 181.475 173.731C175.294 174.075 170.834 168.674 170.883 157.18C170.838 145.685 175.294 140.288 181.475 140.628C187.657 140.284 192.12 145.685 192.072 157.18Z" stroke="black" stroke-width="1.41503" stroke-miterlimit="10"/>
<path d="M191.389 155.707C191.421 163.478 188.615 167.31 184.73 167.096C180.845 167.31 178.039 163.478 178.071 155.707C178.043 147.937 180.845 144.104 184.73 144.318C188.615 144.104 191.417 147.937 191.389 155.707Z" fill="black"/>
<path d="M191.389 155.707C191.421 163.478 188.615 167.31 184.73 167.096C180.845 167.31 178.039 163.478 178.071 155.707C178.043 147.937 180.845 144.104 184.73 144.318C188.615 144.104 191.417 147.937 191.389 155.707Z" stroke="black" stroke-width="1.41503" stroke-miterlimit="10"/>
<path d="M226.198 157.18C226.247 168.674 221.787 174.071 215.602 173.731C209.416 174.075 204.961 168.674 205.009 157.18C204.961 145.685 209.42 140.288 215.602 140.628C221.783 140.284 226.243 145.685 226.198 157.18Z" fill="white"/>
<path d="M226.198 157.18C226.247 168.674 221.787 174.071 215.602 173.731C209.416 174.075 204.961 168.674 205.009 157.18C204.961 145.685 209.42 140.288 215.602 140.628C221.783 140.284 226.243 145.685 226.198 157.18Z" stroke="black" stroke-width="1.41503" stroke-miterlimit="10"/>
<path d="M226.198 155.707C226.23 163.478 223.425 167.31 219.539 167.096C215.654 167.31 212.852 163.478 212.881 155.707C212.848 147.937 215.654 144.104 219.539 144.318C223.429 144.104 226.226 147.937 226.198 155.707Z" fill="black"/>
<path d="M226.198 155.707C226.23 163.478 223.425 167.31 219.539 167.096C215.654 167.31 212.852 163.478 212.881 155.707C212.848 147.937 215.654 144.104 219.539 144.318C223.429 144.104 226.226 147.937 226.198 155.707Z" stroke="black" stroke-width="1.41503" stroke-miterlimit="10"/>
<path d="M237.171 187.792C236.977 195.571 234.745 202.452 227.836 207.206C221.128 211.993 209.739 214.653 195.913 214.686C182.086 214.657 170.697 211.993 163.989 207.206C157.08 202.452 154.848 195.571 154.654 187.792C154.848 180.013 157.08 173.132 163.989 168.378C170.697 163.591 182.082 160.931 195.909 160.898C209.735 160.927 221.124 163.591 227.832 168.378C234.741 173.132 236.973 180.013 237.167 187.792H237.171Z" fill="#FF6100"/>
<path d="M237.171 187.792C236.977 195.571 234.745 202.452 227.836 207.206C221.128 211.993 209.739 214.653 195.913 214.686C182.086 214.657 170.697 211.993 163.989 207.206C157.08 202.452 154.848 195.571 154.654 187.792C154.848 180.013 157.08 173.132 163.989 168.378C170.697 163.591 182.082 160.931 195.909 160.898C209.735 160.927 221.124 163.591 227.832 168.378C234.741 173.132 236.973 180.013 237.167 187.792H237.171Z" stroke="black" stroke-width="1.61718" stroke-miterlimit="10"/>
<path opacity="0.75" d="M180.355 195.571V180.01L195.913 195.571L211.47 180.01V195.571" stroke="black" stroke-width="2.42577" stroke-linecap="round" stroke-linejoin="round"/>
<path d="M203.651 237.881C205.159 237.881 206.389 236.664 206.417 235.16H200.89C200.914 236.664 202.143 237.881 203.656 237.881H203.651Z" fill="#DB9B2A"/>
<path d="M203.651 238.69C201.694 238.69 200.105 237.113 200.077 235.16H199.269C199.293 237.554 201.25 239.498 203.651 239.498C206.053 239.498 208.005 237.558 208.034 235.16H207.225C207.201 237.113 205.612 238.69 203.651 238.69Z" fill="black"/>
<path d="M203.651 237.881C202.143 237.881 200.914 236.664 200.886 235.16H200.077C200.101 237.113 201.69 238.69 203.651 238.69C205.612 238.69 207.197 237.113 207.225 235.16H206.416C206.392 236.664 205.163 237.881 203.651 237.881Z" fill="black"/>
<path d="M211.458 224.866C211.458 220.561 207.957 217.059 203.651 217.059C199.345 217.059 195.844 220.561 195.844 224.866V227.911H211.458V224.866Z" fill="#FFCA00"/>
<path d="M195.036 224.866C195.036 220.127 198.913 216.25 203.651 216.25C208.39 216.25 212.267 220.127 212.267 224.866V227.975C212.55 228.027 212.821 228.112 213.075 228.225V224.866C213.075 219.67 208.846 215.441 203.651 215.441C198.456 215.441 194.227 219.67 194.227 224.866V228.225C194.482 228.112 194.753 228.027 195.036 227.975V224.866Z" fill="black"/>
<path d="M195.845 227.914V224.869C195.845 220.564 199.346 217.062 203.652 217.062C207.957 217.062 211.459 220.564 211.459 224.869V227.914H211.604C211.831 227.914 212.053 227.938 212.267 227.978V224.869C212.267 220.131 208.39 216.254 203.652 216.254C198.913 216.254 195.036 220.131 195.036 224.869V227.978C195.25 227.938 195.473 227.914 195.699 227.914H195.845Z" fill="black"/>
<path d="M212.897 230.016C212.687 229.834 212.436 229.701 212.165 229.62C211.987 229.568 211.801 229.531 211.607 229.531H195.698C195.504 229.531 195.318 229.568 195.14 229.62C194.865 229.701 194.619 229.834 194.408 230.016C193.976 230.384 193.697 230.926 193.697 231.536C193.697 232.644 194.598 233.542 195.702 233.542H211.611C212.719 233.542 213.616 232.64 213.616 231.536C213.616 230.926 213.337 230.384 212.905 230.016H212.897Z" fill="#FFCA00"/>
<path d="M213.075 228.23V228.635C213.075 228.8 213.063 228.966 213.051 229.132C213.868 229.625 214.421 230.523 214.421 231.542C214.421 233.09 213.156 234.355 211.608 234.355H207.965C208.009 234.602 208.034 234.857 208.034 235.115C208.034 235.132 208.034 235.148 208.034 235.164H211.608C213.605 235.164 215.23 233.539 215.23 231.542C215.23 230.066 214.345 228.8 213.079 228.234L213.075 228.23Z" fill="black"/>
<path d="M199.337 234.35H195.695C194.146 234.35 192.881 233.084 192.881 231.536C192.881 230.517 193.431 229.619 194.251 229.126C194.235 228.96 194.227 228.799 194.227 228.629V228.225C192.962 228.791 192.076 230.06 192.076 231.532C192.076 233.529 193.701 235.154 195.699 235.154H199.273C199.273 235.154 199.273 235.122 199.273 235.106C199.273 234.847 199.301 234.592 199.341 234.346L199.337 234.35Z" fill="black"/>
<path d="M200.886 235.111C200.886 235.111 200.886 235.143 200.886 235.159H206.412C206.412 235.159 206.412 235.127 206.412 235.111C206.412 234.848 206.372 234.593 206.303 234.351H200.987C200.918 234.593 200.877 234.848 200.877 235.111H200.886Z" fill="#BC7F1D"/>
<path d="M200.077 235.111C200.077 234.848 200.105 234.597 200.162 234.351H199.341C199.297 234.597 199.272 234.852 199.272 235.111C199.272 235.127 199.272 235.143 199.272 235.159H200.081C200.081 235.159 200.081 235.127 200.081 235.111H200.077Z" fill="black"/>
<path d="M207.965 234.351H207.144C207.197 234.597 207.229 234.852 207.229 235.111C207.229 235.127 207.229 235.143 207.229 235.159H208.038C208.038 235.159 208.038 235.127 208.038 235.111C208.038 234.852 208.009 234.597 207.969 234.351H207.965Z" fill="black"/>
<path d="M206.416 235.111C206.416 235.111 206.416 235.143 206.416 235.159H207.225C207.225 235.159 207.225 235.127 207.225 235.111C207.225 234.848 207.197 234.597 207.14 234.351H206.307C206.376 234.593 206.416 234.848 206.416 235.111Z" fill="black"/>
<path d="M200.886 235.111C200.886 234.848 200.926 234.593 200.995 234.351H200.162C200.11 234.597 200.077 234.852 200.077 235.111C200.077 235.127 200.077 235.143 200.077 235.159H200.886C200.886 235.159 200.886 235.127 200.886 235.111Z" fill="black"/>
<path d="M211.458 228.633V227.913H195.844V228.633C195.844 228.665 195.844 228.693 195.848 228.722H211.454C211.454 228.693 211.458 228.661 211.458 228.633Z" fill="#BC7F1D"/>
<path d="M194.251 229.127C194.494 228.981 194.761 228.868 195.044 228.799C195.044 228.743 195.036 228.686 195.036 228.63V227.975C194.753 228.027 194.482 228.112 194.227 228.225V228.63C194.227 228.795 194.239 228.961 194.251 229.127Z" fill="black"/>
<path d="M212.266 228.633C212.266 228.69 212.258 228.747 212.258 228.803C212.541 228.872 212.808 228.981 213.051 229.131C213.067 228.965 213.075 228.803 213.075 228.633V228.229C212.82 228.116 212.549 228.031 212.266 227.979V228.633Z" fill="black"/>
<path d="M211.458 227.913V228.633C211.458 228.665 211.458 228.693 211.454 228.722H211.604C211.83 228.722 212.048 228.75 212.259 228.803C212.259 228.746 212.267 228.689 212.267 228.633V227.978C212.052 227.937 211.83 227.913 211.604 227.913H211.458Z" fill="black"/>
<path d="M195.849 228.722C195.849 228.693 195.845 228.661 195.845 228.633V227.913H195.699C195.473 227.913 195.25 227.937 195.036 227.978V228.633C195.036 228.689 195.044 228.746 195.044 228.803C195.254 228.754 195.473 228.722 195.699 228.722H195.849Z" fill="black"/>
<path d="M213.613 231.537C213.613 232.644 212.712 233.542 211.608 233.542H210.221C209.542 233.934 208.774 234.189 207.953 234.266C207.957 234.294 207.961 234.322 207.965 234.35H211.608C213.156 234.35 214.422 233.085 214.422 231.537C214.422 230.518 213.872 229.62 213.051 229.127C213.023 229.43 212.97 229.725 212.898 230.012C213.33 230.38 213.609 230.922 213.609 231.533L213.613 231.537Z" fill="black"/>
<path d="M197.082 233.542H195.695C194.587 233.542 193.69 232.64 193.69 231.536C193.69 230.926 193.969 230.384 194.401 230.016C194.328 229.729 194.276 229.434 194.248 229.131C193.431 229.624 192.877 230.522 192.877 231.54C192.877 233.089 194.142 234.354 195.691 234.354H199.334C199.338 234.326 199.342 234.298 199.346 234.269C198.525 234.193 197.757 233.938 197.078 233.546L197.082 233.542Z" fill="black"/>
<path d="M200.995 234.351H206.311C206.311 234.351 206.303 234.31 206.295 234.29H201.011C201.011 234.29 201.003 234.33 200.995 234.351Z" fill="#BC7F1D"/>
<path d="M199.887 234.295C199.705 234.295 199.527 234.283 199.353 234.267C199.349 234.295 199.345 234.323 199.341 234.352H200.162C200.162 234.352 200.174 234.311 200.178 234.291H199.891L199.887 234.295Z" fill="black"/>
<path d="M207.415 234.295H207.128C207.128 234.295 207.14 234.335 207.144 234.356H207.965C207.961 234.327 207.957 234.299 207.953 234.271C207.775 234.287 207.597 234.299 207.419 234.299L207.415 234.295Z" fill="black"/>
<path d="M201.007 234.294H200.174C200.174 234.294 200.162 234.334 200.158 234.355H200.991C200.991 234.355 200.999 234.314 201.007 234.294Z" fill="black"/>
<path d="M206.295 234.294C206.295 234.294 206.303 234.334 206.311 234.355H207.144C207.144 234.355 207.132 234.314 207.128 234.294H206.295Z" fill="black"/>
<path d="M211.454 228.723H195.849C195.857 229.002 195.889 229.268 195.95 229.531H211.357C211.418 229.268 211.45 229.002 211.458 228.723H211.454Z" fill="#BC7F1D"/>
<path d="M207.952 234.266C208.773 234.189 209.541 233.934 210.221 233.542H207.742C207.831 233.772 207.904 234.015 207.952 234.266Z" fill="black"/>
<path d="M197.081 233.542C197.76 233.934 198.528 234.189 199.349 234.266C199.398 234.015 199.47 233.776 199.559 233.542H197.081Z" fill="black"/>
<path d="M195.137 229.621C195.08 229.354 195.052 229.083 195.044 228.804C194.761 228.873 194.494 228.982 194.251 229.131C194.28 229.435 194.332 229.73 194.405 230.017C194.615 229.835 194.866 229.701 195.137 229.621Z" fill="black"/>
<path d="M212.166 229.621C212.44 229.701 212.687 229.835 212.897 230.017C212.97 229.73 213.023 229.435 213.051 229.131C212.808 228.986 212.542 228.873 212.259 228.804C212.25 229.083 212.222 229.358 212.166 229.621Z" fill="black"/>
<path d="M201.375 233.542C201.217 233.768 201.092 234.023 201.007 234.29H206.291C206.206 234.019 206.081 233.768 205.923 233.542H201.371H201.375Z" fill="#BC7F1D"/>
<path d="M199.563 233.542C199.474 233.772 199.402 234.015 199.353 234.266C199.531 234.282 199.709 234.294 199.887 234.294H200.174C200.234 234.031 200.327 233.781 200.441 233.546H199.559L199.563 233.542Z" fill="black"/>
<path d="M206.861 233.542C206.979 233.781 207.068 234.027 207.128 234.29H207.415C207.597 234.29 207.775 234.278 207.949 234.262C207.901 234.011 207.828 233.773 207.739 233.538H206.857L206.861 233.542Z" fill="black"/>
<path d="M205.927 233.542C206.084 233.768 206.21 234.023 206.295 234.29H207.128C207.067 234.027 206.974 233.776 206.861 233.542H205.927Z" fill="black"/>
<path d="M200.441 233.542C200.323 233.781 200.234 234.027 200.174 234.29H201.007C201.092 234.019 201.217 233.768 201.375 233.542H200.441Z" fill="black"/>
<path d="M195.698 229.531H195.949C195.888 229.268 195.856 229.002 195.848 228.723H195.698C195.472 228.723 195.254 228.751 195.043 228.804C195.052 229.082 195.08 229.357 195.136 229.62C195.314 229.568 195.5 229.531 195.694 229.531H195.698Z" fill="black"/>
<path d="M211.454 228.723C211.446 229.002 211.414 229.268 211.353 229.531H211.604C211.798 229.531 211.984 229.568 212.162 229.62C212.218 229.353 212.247 229.082 212.255 228.804C212.044 228.755 211.826 228.723 211.6 228.723H211.45H211.454Z" fill="black"/>
<path d="M112.175 12.912V13.56H107.663V14.328H114.983V15.144H115.799V16.752H114.983V17.568H95.0153V16.752H94.1993V15.144H95.0153V14.328H102.335V13.56H97.8233V12.912H96.8393V12.24H95.9273V11.52H95.0873V8.016H95.8793V7.272H96.7193V6.6H97.6553V5.976H112.343V6.6H113.279V7.272H114.119V8.016H114.911V11.52H114.071V12.24H113.159V12.912H112.175ZM109.223 10.704V10.176H109.967V9.36H109.223V8.832H100.775V9.36H100.031V10.176H100.775V10.704H109.223ZM100.295 24.36V25.08H114.575V25.752H115.343V27.168H114.575V27.84H95.9513V27.048H95.1833V22.512H95.9513V21.72H109.607V21.048H95.9513V20.376H95.1833V18.936H95.9513V18.264H113.951V19.056H114.743V23.592H113.951V24.36H100.295ZM129.424 5.976V6.936H130.384V25.944H129.424V26.904H118.312V25.944H117.352V6.936H118.312V5.976H121.384V6.936H122.368V13.104H125.368V6.936H126.328V5.976H129.424ZM133.288 5.976H136.744V6.936H137.656V13.992H139.216V14.856H139.936V17.784H139.216V18.648H137.656V26.88H136.744V27.84H133.288V26.88H132.352V6.936H133.288V5.976ZM125.368 22.44V17.496H122.368V22.44H125.368ZM159.896 15.792V16.536H141.68V15.792H140.864V10.512H141.56V9.792H155.384V8.952H141.56V8.136H140.864V6.696H141.56V5.976H159.68V6.696H160.496V11.88H159.8V12.648H145.952V13.512H159.896V14.256H160.664V15.792H159.896ZM139.88 20.16V18.336H140.696V17.52H160.664V18.336H161.48V20.16H160.664V20.976H140.696V20.16H139.88ZM159.92 27.84H141.824V26.88H140.864V22.512H141.824V21.624H145.136V22.512H146.096V24H159.92V24.864H160.88V26.976H159.92V27.84ZM180.367 15.336V14.376H179.119V15.336H177.991V16.344H176.815V17.424H175.591V18.576H174.295V19.584H170.911V18.648H169.687L169.735 15.12H170.959V14.088H172.327V13.056H173.599V12.072H174.751V11.112H175.831V10.176H176.815V6.864H177.751V5.976H181.735V6.864H182.647V10.176H183.655V11.112H184.735V12.072H185.887V13.056H187.159V14.088H188.527V15.12H189.751V18.648H188.575V19.584H185.191V18.576H183.895V17.424H182.647V16.344H181.495V15.336H180.367ZM169.927 22.584H189.559V23.544H190.543V26.304H189.559V27.264H169.927V26.304H168.943V23.544H169.927V22.584ZM211.44 18.912V19.872H193.728V18.912H192.768V16.296H193.728V15.312H195.888V10.512H193.584V9.552H192.6V6.936H193.584V5.976H211.584V6.936H212.568V9.552H211.584V10.512H209.328V15.312H211.44V16.296H212.4V18.912H211.44ZM204.192 15.312V10.512H201V15.312H204.192ZM192.768 22.584H212.4V23.544H213.384V26.304H212.4V27.264H192.768V26.304H191.784V23.544H192.768V22.584ZM226.936 13.56V14.4H220.168V15.504H227.68V16.344H228.544V18.432H227.68V19.272H215.944V18.432H215.08V11.616H215.944V10.776H222.712V9.696H215.944V8.856H215.08V6.816H215.944V5.976H226.936V6.816H227.824V13.56H226.936ZM231.352 5.976H234.688V6.936H235.624V20.904H234.688V21.864H231.352V20.904H230.392V6.936H231.352V5.976ZM234.808 27.84H216.592V26.88H215.632V21.72H216.496V20.976H219.952V21.72H220.816V23.856H234.808V24.72H235.768V26.976H234.808V27.84ZM257.072 19.968V20.928H239.696V19.968H238.736V6.936H239.696V5.976H256.928V6.936H257.888V9.144H256.928V10.104H243.92V11.4H256.784V12.36H257.744V14.52H256.784V15.48H243.92V16.8H257.072V17.76H258.032V19.968H257.072ZM238.448 22.776H258.08V23.736H259.064V26.304H258.08V27.264H238.448V26.304H237.464V23.736H238.448V22.776ZM281.648 16.944H268.664V15.96H267.704V13.368H268.664V12.408H281.648V10.512H268.664V9.552H267.704V6.936H268.664V5.976H285.896V6.936H286.856V19.2H285.896V20.16H282.608V19.2H281.648V16.944ZM278.36 22.656H287.144V23.616H288.128V26.304H287.144V27.264H267.512V26.304H266.528V23.616H267.512V22.656H273.032V18.888H273.992V17.928H277.376V18.888H278.36V22.656ZM308.808 18.624V19.584H291.6V18.624H290.64V6.936H291.6V5.976H308.664V6.936H309.624V9.576H308.664V10.56H295.848V15H308.808V15.96H309.768V18.624H308.808ZM290.352 22.584H309.984V23.544H310.968V26.304H309.984V27.264H290.352V26.304H289.368V23.544H290.352V22.584ZM332.224 14.496V15.12H314.008V14.4H313.192V9.984H313.888V9.264H327.712V8.616H313.888V8.04H313.192V6.552H313.888V5.976H332.008V6.696H332.824V11.04H332.128V11.808H318.28V12.48H332.224V13.104H332.992V14.496H332.224ZM312.208 17.76V16.464H313.024V15.744H332.992V16.464H333.808V17.76H332.992V18.48H313.024V17.76H312.208ZM318.304 24.696V25.296H332.584V25.896H333.352V27.264H332.584V27.84H313.96V27.048H313.192V23.064H313.96V22.272H327.616V21.696H313.96V21.096H313.192V19.728H313.96V19.152H331.96V19.944H332.752V23.904H331.96V24.696H318.304ZM165.648 42.76H166.632V48.328H165.648V49.312H164.664V50.224H163.632V51.136H156.72V50.224H155.664V49.312H154.68V48.328H153.696V42.76H154.68V41.8H155.664V40.864H156.72V39.976H163.632V40.864H164.664V41.8H165.648V42.76ZM169.968 39.976H173.304V40.936H174.24V50.224H173.304V51.208H169.968V50.224H169.008V40.936H169.968V39.976ZM161.88 46.936V44.2H161.064V43.504H159.24V44.2H158.448V46.936H159.24V47.608H161.064V46.936H161.88ZM172.968 52.024V52.744H173.952V60.88H172.968V61.84H155.352V60.88H154.392V52.744H155.352V52.024H158.592V52.744H159.576V54.088H168.768V52.744H169.728V52.024H172.968ZM168.768 58.456V57.352H159.576V58.456H168.768ZM187.672 47.56V48.4H181.624V49.504H188.248V50.344H189.136V52.432H188.248V53.272H177.4V52.432H176.536V45.616H177.4V44.776H183.448V43.696H177.4V42.856H176.536V40.816H177.4V39.976H187.672V40.816H188.536V47.56H187.672ZM192.712 52.528H191.752V50.32H189.784V49.648H189.04V47.152H189.784V46.48H191.752V45.52H189.784V44.848H189.04V42.328H189.784V41.656H191.752V40.792H192.712V39.976H195.976V40.936H196.936V52.528H195.976V53.512H192.712V52.528ZM178.048 54.544H195.832V55.504H196.792V60.88H195.832V61.84H192.352V60.88H191.392V58.576H178.048V57.688H177.088V55.432H178.048V54.544ZM206.792 52.504H201.728V51.784H200.792V50.992H199.928V50.176H199.112V46.552H199.928V45.736H200.768V45.208H199.448V44.344H198.632V41.896H199.448V41.008H201.824V39.568H202.808V38.8H205.736V39.568H206.72V41.008H209.072V41.896H209.888V44.344H209.072V45.208H207.776V45.736H208.616V46.552H209.432V50.176H208.616V50.992H207.728V51.784H206.792V52.504ZM215.816 44.032V40.84H216.68V39.976H219.344V40.84H220.208V51.544H219.344V52.504H216.68V51.544H215.816V48.112H214.832V51.544H213.944V52.504H211.304V51.544H210.416V40.84H211.304V39.976H213.944V40.84H214.832V44.032H215.816ZM205.016 46.432H203.504V47.104H202.832V48.688H203.504V49.36H205.016V48.688H205.688V47.104H205.016V46.432ZM210.176 57.232V58H211.064V57.232H211.904V56.416H212.672V54.088H213.536V53.344H217.04V54.088H217.904V56.368H218.648V56.992H219.464V57.736H220.4V58.552H221.24V61.264H220.472V61.984H217.736V61.168H216.728V60.352H215.768V59.584H214.712V60.352H213.752V61.168H212.624V61.984H208.616V61.168H207.512V60.352H206.552V59.584H205.496V60.352H204.536V61.168H203.504V61.984H200.768V61.264H200V58.552H200.864V57.736H201.8V56.992H202.616V56.368H203.336V54.088H204.2V53.344H207.704V54.088H208.592V56.416H209.336V57.232H210.176ZM234.217 42.976H235.249V47.872H237.457V40.936H238.417V39.976H241.801V40.936H242.761V60.88H241.801V61.84H238.417V60.88H237.457V52.48H235.249V57.904H234.217V58.96H233.233V59.968H232.249V61H224.953V59.968H223.921V58.96H222.937V57.904H221.929V42.976H222.937V41.92H223.921V40.912H224.953V39.88H232.249V40.912H233.233V41.92H234.217V42.976ZM230.233 55.72V45.16H229.417V44.368H227.713V45.16H226.945V55.72H227.713V56.512H229.417V55.72H230.233ZM262.217 56.656H265.217V57.616H266.201V60.304H265.217V61.264H245.585V60.304H244.601V57.616H245.585V56.656H248.585V52.576H247.841V51.616H246.737V50.584H245.729V42.832H246.737V41.8H247.841V40.84H248.945V39.976H261.857V40.84H262.961V41.8H264.065V42.832H265.073V50.584H264.065V51.616H262.961V52.576H262.217V56.656ZM251.849 47.92V48.952H258.953V47.92H259.913V45.472H258.953V44.464H251.849V45.472H250.889V47.92H251.849ZM253.745 53.44V56.656H257.057V53.44H253.745ZM272.793 39.976V40.84H273.729V53.92H272.841V54.784H269.337V53.92H268.473V40.84H269.409V39.976H272.793ZM272.841 56.512V57.376H273.729V60.976H272.841V61.84H269.337V60.976H268.473V57.376H269.337V56.512H272.841Z" fill="#FF6100"/>
</g>
<defs>
<clipPath id="clip0_171_3033">
<rect width="430" height="276" rx="6.71875" fill="white"/>
</clipPath>
</defs>
</svg>
